<mxfile host="Electron" agent="Mozilla/5.0 (Macintosh; Intel Mac OS X 10_15_7) AppleWebKit/537.36 (KHTML, like Gecko) draw.io/24.7.8 Chrome/128.0.6613.36 Electron/32.0.1 Safari/537.36" version="24.7.8">
  <diagram name="Page-1" id="Ta0t9CTLVMKXKm1d22Kh">
    <mxGraphModel dx="1468" dy="2029" grid="1" gridSize="10" guides="1" tooltips="1" connect="1" arrows="1" fold="1" page="1" pageScale="1" pageWidth="850" pageHeight="1100" math="0" shadow="0">
      <root>
        <mxCell id="0" />
        <mxCell id="1" parent="0" />
        <mxCell id="e7r8Hhf1rWDUr8E3D0WA-4" value="" style="shape=image;verticalLabelPosition=bottom;labelBackgroundColor=default;verticalAlign=top;aspect=fixed;imageAspect=0;image=data:image/png,iVBORw0KGgoAAAANSUhEUgAAASYAAAEqCAYAAAC4Bv2hAAAMPmlDQ1BJQ0MgUHJvZmlsZQAASImVVwdYU8kWnluSkJCEEkBASuhNEJESQEoILYD0biMkAUKJMRBU7GVRwbWgIgo2dFVEwQqIHbGzKPa+WFBR1sWCXXmTArruK987+ebeP/+c+c+Zc+eWAUDjOE8iyUU1AcgTF0hjQwKYySmpTFI3QOCPDqjAm8fPl7CjoyMAtIHz3+3ddegL7YqjXOuf/f/VtATCfD4ASDTE6YJ8fh7E+wHAq/gSaQEARDlvMblAIsewAR0pTBDihXKcqcRVcpyuxLsVPvGxHIhbAVCj8njSTADolyDPLORnQg16L8TOYoFIDIAGE2LfvLyJAojTILaFPhKI5fqs9B90Mv+mmT6oyeNlDmLlXBSmFijKl+Typv6f5fjflpcrG4hhDRs1SxoaK58zrNvNnInhckyFuEecHhkFsTbEH0QChT/EKCVLFpqg9EeN+PkcWDOgB7GzgBcYDrERxMHi3MgIFZ+eIQrmQgxXCDpFVMCNh1gf4oXC/KA4lc9G6cRYVSy0IUPKYav4szypIq481n1ZTgJbpf86S8hV6WP0oqz4JIgpEFsWihIjIaZD7JSfExeu8hlVlMWJHPCRymLl+VtCHCsUhwQo9bHCDGlwrMq/JC9/YL7YxiwRN1KF9xZkxYcq64O18nmK/OFcsEtCMTthQEeYnxwxMBeBMDBIOXfsmVCcEKfS+SApCIhVjsUpktxolT9uLswNkfPmELvmF8apxuKJBXBBKvXxDElBdLwyT7womxcWrcwHXwYiAAcEAiaQwZYOJoJsIGrvaeyB/5Q9wYAHpCATCIGjihkYkaToEcNjHCgCf0IkBPmD4wIUvUJQCPmvg6zy6AgyFL2FihE54AnEeSAc5ML/MsUo8WC0RPAYMqJ/ROfBxof55sIm7//3/AD7nWFDJkLFyAYiMjUGPIlBxEBiKDGYaIcb4r64Nx4Bj/6wueAs3HNgHt/9CU8IHYSHhGuETsKtCaK50p+yHA06oX6wqhbpP9YCt4aabngA7gPVoTKuhxsCR9wVxmHjfjCyG2Q5qrzlVWH+pP23GfxwNVR+ZGcySh5C9ifb/jySbk93G1SR1/rH+ihzTR+sN2ew5+f4nB+qL4Dn8J89sYXYPuwMdgI7hx3GGgETO4Y1YW3YETkeXF2PFatrIFqsIp8cqCP6R7yBKyuvZL5zrXO38xdlX4FwivwZDTgTJVOlosysAiYbvhGETK6Y7zSM6eLs4gaA/P2ifHy9iVG8NxC9tu/cvD8A8DnW399/6DsXdgyAPR7w9j/4nbNlwVeHOgBnD/Jl0kIlh8sPBPiU0IB3mgEwARbAFs7HBbgDb+APgkAYiALxIAWMh9lnwXUuBZPBdDAHFINSsAysAmvBBrAZbAe7wF7QCA6DE+A0uAAugWvgDlw9XeAF6AXvwGcEQUgIDWEgBogpYoU4IC4IC/FFgpAIJBZJQdKQTESMyJDpyDykFClD1iKbkBpkD3IQOYGcQzqQW8gDpBt5jXxCMZSK6qDGqDU6HGWhbDQcjUfHoZnoJLQInY8uQSvQanQn2oCeQC+g19BO9AXahwFMHdPDzDBHjIVxsCgsFcvApNhMrAQrx6qxOqwZXucrWCfWg33EiTgDZ+KOcAWH4gk4H5+Ez8QX42vx7XgD3opfwR/gvfg3Ao1gRHAgeBG4hGRCJmEyoZhQTthKOEA4Be+lLsI7IpGoR7QhesB7MYWYTZxGXExcR6wnHid2EB8R+0gkkgHJgeRDiiLxSAWkYtIa0k7SMdJlUhfpg5q6mqmai1qwWqqaWG2uWrnaDrWjapfVnqp9JmuSrche5CiygDyVvJS8hdxMvkjuIn+maFFsKD6UeEo2ZQ6lglJHOUW5S3mjrq5uru6pHqMuUp+tXqG+W/2s+gP1j1Rtqj2VQx1LlVGXULdRj1NvUd/QaDRrmj8tlVZAW0KroZ2k3ad9oDPoTnQuXUCfRa+kN9Av019qkDWsNNga4zWKNMo19mlc1OjRJGtaa3I0eZozNSs1D2re0OzTYmiN0IrSytNarLVD65zWM22StrV2kLZAe772Zu2T2o8YGMOCwWHwGfMYWxinGF06RB0bHa5Otk6pzi6ddp1eXW1dV91E3Sm6lbpHdDv1MD1rPa5ert5Svb161/U+DTEewh4iHLJoSN2Qy0Pe6w/V99cX6pfo1+tf0/9kwDQIMsgxWG7QaHDPEDe0N4wxnGy43vCUYc9QnaHeQ/lDS4buHXrbCDWyN4o1mma02ajNqM/YxDjEWGK8xvikcY+Jnom/SbbJSpOjJt2mDFNfU5HpStNjps+Zukw2M5dZwWxl9poZmYWaycw2mbWbfTa3MU8wn2teb37PgmLBssiwWGnRYtFraWo52nK6Za3lbSuyFcsqy2q11Rmr99Y21knWC6wbrZ/Z6NtwbYpsam3u2tJs/Wwn2VbbXrUj2rHscuzW2V2yR+3d7LPsK+0vOqAO7g4ih3UOHcMIwzyHiYdVD7vhSHVkOxY61jo+cNJzinCa69To9HK45fDU4cuHnxn+zdnNOdd5i/OdEdojwkbMHdE84rWLvQvfpdLl6kjayOCRs0Y2jXzl6uAqdF3vetON4TbabYFbi9tXdw93qXude7eHpUeaR5XHDZYOK5q1mHXWk+AZ4DnL87DnRy93rwKvvV5/eTt653jv8H42ymaUcNSWUY98zH14Ppt8On2Zvmm+G307/cz8eH7Vfg/9LfwF/lv9n7Lt2NnsneyXAc4B0oADAe85XpwZnOOBWGBIYElge5B2UELQ2qD7webBmcG1wb0hbiHTQo6HEkLDQ5eH3uAac/ncGm5vmEfYjLDWcGp4XPja8IcR9hHSiObR6Oiw0StG3420ihRHNkaBKG7Uiqh70TbRk6IPxRBjomMqY57EjoidHnsmjhE3IW5H3Lv4gPil8XcSbBNkCS2JGoljE2sS3ycFJpUldSYPT56RfCHFMEWU0pRKSk1M3ZraNyZozKoxXWPdxhaPvT7OZtyUcefGG47PHX9kgsYE3oR9aYS0pLQdaV94UbxqXl86N70qvZfP4a/mvxD4C1YKuoU+wjLh0wyfjLKMZ5k+mSsyu7P8ssqzekQc0VrRq+zQ7A3Z73Oicrbl9Ocm5dbnqeWl5R0Ua4tzxK0TTSZOmdghcZAUSzoneU1aNalXGi7dmo/kj8tvKtCBH/JtMlvZL7IHhb6FlYUfJidO3jdFa4p4SttU+6mLpj4tCi76bRo+jT+tZbrZ9DnTH8xgz9g0E5mZPrNllsWs+bO6ZofM3j6HMidnzu9zneeWzX07L2le83zj+bPnP/ol5JfaYnqxtPjGAu8FGxbiC0UL2xeNXLRm0bcSQcn5UufS8tIvi/mLz/864teKX/uXZCxpX+q+dP0y4jLxsuvL/ZZvL9MqKyp7tGL0ioaVzJUlK9+umrDqXLlr+YbVlNWy1Z0VERVNayzXLFvzZW3W2muVAZX1VUZVi6rerxOsu7zef33dBuMNpRs+bRRtvLkpZFNDtXV1+Wbi5sLNT7YkbjnzG+u3mq2GW0u3ft0m3ta5PXZ7a41HTc0Oox1La9FaWW33zrE7L+0K3NVU51i3qV6vvnQ32C3b/XxP2p7re8P3tuxj7avbb7W/6gDjQEkD0jC1obcxq7GzKaWp42DYwZZm7+YDh5wObTtsdrjyiO6RpUcpR+cf7T9WdKzvuOR4z4nME49aJrTcOZl88mprTGv7qfBTZ08Hnz55hn3m2Fmfs4fPeZ07eJ51vvGC+4WGNre2A7+7/X6g3b294aLHxaZLnpeaO0Z1HL3sd/nElcArp69yr164Fnmt43rC9Zs3xt7ovCm4+exW7q1Xtwtvf74z+y7hbsk9zXvl943uV/9h90d9p3vnkQeBD9oexj2884j/6MXj/MdfuuY/oT0pf2r6tOaZy7PD3cHdl56Ped71QvLic0/xn1p/Vr20fbn/L/+/2nqTe7teSV/1v178xuDNtreub1v6ovvuv8t79/l9yQeDD9s/sj6e+ZT06ennyV9IXyq+2n1t/hb+7W5/Xn+/hCflKT4FMNjQjAwAXm8DgJYCAAPuzyhjlPs/hSHKPasCgf+ElXtEhbkDUAe/32N64NfNDQB2b4HbL6ivMRaAaBoA8Z4AHTlysA3s1RT7SrkR4T5gY8jX9Lx08G9Muef8Ie+fz0Cu6gp+Pv8L8cV8XCu9DJQAAACKZVhJZk1NACoAAAAIAAQBGgAFAAAAAQAAAD4BGwAFAAAAAQAAAEYBKAADAAAAAQACAACHaQAEAAAAAQAAAE4AAAAAAAAAkAAAAAEAAACQAAAAAQADkoYABwAAABIAAAB4oAIABAAAAAEAAAEmoAMABAAAAAEAAAEqAAAAAEFTQ0lJAAAAU2NyZWVuc2hvdHXSB7IAAAAJcEhZcwAAFiUAABYlAUlSJPAAAAHWaVRYdFhNTDpjb20uYWRvYmUueG1wAAAAAAA8eDp4bXBtZXRhIHhtbG5zOng9ImFkb2JlOm5zOm1ldGEvIiB4OnhtcHRrPSJYTVAgQ29yZSA2LjAuMCI+CiAgIDxyZGY6UkRGIHhtbG5zOnJkZj0iaHR0cDovL3d3dy53My5vcmcvMTk5OS8wMi8yMi1yZGYtc3ludGF4LW5zIyI+CiAgICAgIDxyZGY6RGVzY3JpcHRpb24gcmRmOmFib3V0PSIiCiAgICAgICAgICAgIHhtbG5zOmV4aWY9Imh0dHA6Ly9ucy5hZG9iZS5jb20vZXhpZi8xLjAvIj4KICAgICAgICAgPGV4aWY6UGl4ZWxZRGltZW5zaW9uPjI5ODwvZXhpZjpQaXhlbFlEaW1lbnNpb24+CiAgICAgICAgIDxleGlmOlBpeGVsWERpbWVuc2lvbj4yOTQ8L2V4aWY6UGl4ZWxYRGltZW5zaW9uPgogICAgICAgICA8ZXhpZjpVc2VyQ29tbWVudD5TY3JlZW5zaG90PC9leGlmOlVzZXJDb21tZW50PgogICAgICA8L3JkZjpEZXNjcmlwdGlvbj4KICAgPC9yZGY6UkRGPgo8L3g6eG1wbWV0YT4KLlHcEQAAABxpRE9UAAAAAgAAAAAAAACVAAAAKAAAAJUAAACVAAA9k/h0LF0AAD1fSURBVHgB7F0HfBXF8x9pUpQqP2mhKVUpoSeUQOhdmvQm0nsJSJFOgCBdmiJVBENXQToJEECKgCBVKWJDunRU/M93kz32Xe69vBZ8+bPz+SR3t/3m3X1vdmZ254V8+V/7lzRpDmgOaA74EAde0MDkQ7+GHormgOaA4IAGJv0gaA5oDvgcBzQw+dxPogekOaA5oIFJPwOaA5oDPscBDUw+95PoAWkOaA5oYNLPgOaA5oDPcUADk8/9JHpAmgOaAxqY9DOgOaA54HMc0MDkcz+JHpDmgOaABib9DGgOaA74HAc0MPncT6IHpDmgOaCBST8DmgOaAz7HAQ1MPveT6AFpDmgOaGDSz4DmgOaAz3FAA5PP/SR6QJIDL7yQiP7994m8fCZH3eczYXOcnWhgipNF1gVeevklypkjJ784/9L3339vXeg5Ty1VqhSFDBhA6dOnF5yYPGUKbdy40SFXXnklI00Km0h58+ajl15KRf/88w/98ssvtOyzz2jFihUO67qb6W6fALFxY8dQmTJljHu8fv067dq1i0aNHu1wOAEBgdSvbx/KmTMHJUv2Ij18+IAuXrxI48dPpKPHjtqtm9D6tHsjcWRoYIqDQfaye/fqTe+8015k165dh37+5Wd7RZ+79KpVKlP//gMoc+bMNvc+d+4cmjN3nk2aepE5U2Zas2Y1pUyZUk02zud99BHNnj3buPbGibt9JkqUmMI/X0F58uSxHMax776jNm3aWOYFB1eiKZOn0AsvvBArHx+6Tp0704EDB2LlJbQ+Y92ACwkamFxgllpUA5PKjafnS5YsoSKFCz9NUM7iAqYd27dThgwZRI0ffviBQWot5ciRg95+u4nxEnfv0ZP27NmttOrZqbt9Tp06lYIrVRKd3779Jy1fvoye0L/Urk07A1jXrVtHI0aOtBlgmjRpKDIiwrifHTt30r59+6hiUAUqW7acKAspMSAwkB49emRTNyH1aTNwNy40MLnBNFTRwGTNuK1bttD//vc/McXd/803dP78j9SyRUtR2BEwvfnmm7Ts009Fud9//51q1Kxl6Je6d+9OnTp2FHnHjx+nVq1bW3fuYqq7fWI6dejgN5QkSVL6+++/qBZLzFeuXBG958qVk9atXSfOMT0rXSZAnMt/AweGGPzYtGkTDXrvPZnF4LacChYoIK5nzZpFH338sZGX0Po0Bu7mSbwAU5YsWahZ06ZUsGBBypYtGz1+/Jh+/vkyLVn6Ke3fv99yqPiRO77bgfz9i1E2v2x09+4dOn3qNIWvXEUnThy3rNPx3XfFFxZz8k2bNscq079fP0qaNCnhq6SKxnVq1yX/YkXp2tU/xNQC19WqVaV8+fLS1atXaceO7bRg4aJY7XXr1s34ohfz96fcuXOLMlu3bqXbf/5plP/n738odHyocf08nSxnXdCVP/6g0aPH0I0b16lt27asS+krWOAImGbPnkVlA8uKcoOHDLHRRW3fto1eeeUVkYepTkBAAD14+NBjtrrbZ6OGDWn48OGifzxbfWPuDwmTJoVRtarVjLH17deXn6edxvWuyAhKkyatAO7SrJuSUhH0XNu2bjEkqT+Yh1WrPW0nofVp3LCbJ14HJnzZ8AJbzZ8xxp0sxvbp08dmuK+9lpsWLFhIaVnMNRMexIWLFtP06dPMWfzVOiiA58SJE9SyVatY+ceORisRN/NXfODAgUZ+ePjnlI+Vq48fP6I9UXsNkdwowCcAso6dOqlJRn82iXYuihQtaifn+Up2FpgiIyPF74/fu0TJUkISAafwLHU2/Q4h/Ftu4d/UU3K3z7lz5ghwRP/9+/ejbdt3iKG88cYb9NmyZTbD2sJgExIS/ewlS5aMDsbojszAA0DHh1wl9RlKSH2q9+DuuVeBCRKKqvC7dOkS/Xj+PKVO/TK9/noe8eCZRXGIqHujonhenkLcw61bN+nkyVOUNl06KpA/vwFwY8eNpZUsPankKTDJtiBynzjxPaVMlcoQpZEHsAPoScLXMCN/2UB+fn7GV/z06VP04MHTL/jff/9N78ZMPWTd5/XoLDDJ3/LW7dsUFBQk2KVKEXfv3hNWOmRA17Jo8WKPWepun/LDhgEUL1HSAFEp2aljPXLkCLVrH20kwQd4zeo1YtzQK3Xp2lWc16xZkyaMHy/O7927R6n4OQQFVaxIt27dEucJqU8xYA//eQ2Y0qfPQDu2bxNAAuXdgJABNiIsxglpyi+7H73/frQYLNOgQwCdPHWKWrA+QvquVKpUkaZOmSrahIKxAisIVZIPlrsSE9q6du0a1a1Xj+7fvy+aBrACYEFmMV0kxvzTOiaVG/bPnQWmo/wCQ8qGfql6jRqiQalzuX//AU2fMZ0Gx+hjwsNX0rjQcfY7dTLH3T43s24oU6ZMYjpWlKf0IFUP1rJVa9aXLRXp+DjXq19fnON5njY1WvKH2wSmrJCidu+KpOTJU4iP4O3btwwleNu27QzXgYTUp7hZD/95DZhCx42j2rVri+F8tvwzmjgxzKmhSWUpCteoUZN++/03m3qfr1hO+fNHKwTbtW9HR45ET89QyBvA1KNnT9q929bK8+3hw5Q4cWKCJNS0WXOb8cgLDUySE46PzgAT/JWi9kSJhi5cuEBvNWhAtWrVovGhoSJtwID+rFN6TLM+nCmuIyIiqXef3o47jiPXkz4xVtSH4hsSE5T9WzZvFsAqAUeC3o0bN6hScLAYTauWrXhaN0Ccy3dk8geTqQq7V+BjXrlyFRowoB/VqVNXlBk69H36asOX4jwh9SkG7OE/rwHTyvBwdorLK74iqo4grvEdPPCNcDCDY1pw5cqxirdo3oIGDYqeo4eFTWJHu6dzeG8AkzqPl53Lh+C3335j61BNmWxz1MBkww67F84AE6TtnWxwAJ07d05MoaEkhhRxlPWEbdu1Izhrfsx+TKC9e/dSV9Y9eUKe9Llv7z6hevjrr79YH1aS5McT07AKQRUFYElgUqem8HvDcwOCWwV0n9ISCR0qDC4jR4ygBgzMoDFjxtCq1avFeULqUwzYw39eAyapSLQykToao/wB4bfSqHHjWEUD2VIzhy02oJWrVtHYsWONMp4CE6yFJfmBN1NkxE5KmzadsNBVqVrVnC2uNTBZsiVWojPAhErSUIGPwSme0gezlAGJJLhyMN2+fcdGglq/fj0N5xfYU3K3T6lLgqIeUk1oaPQzqfpYybZ/+fVXMXaMVdUlbdjwFZUuXUboKdUyqq9Sl67d2Mdpr7jNhNSnp78L6nsNmKTko34h4hqgaqUwK8VlXVgqYLEAwSw/ICREZnk8lYNVrmSp0kZ78kQDk+SE50dngenwoYPCLwhTGkyjQVAHYMoDasV6mxCe0oHmzp3Lbh5zxbkn/9ztc93atZQrVy7RNZ4hLClRrbhYrhS1e4/IV/Wfqt8UpC24sgDc6r/1FkEXBfpk/nwqUaKEOK/FqhEsxwElpD7FgD385zVgkroiOe92dlxSYrp8+TLVqRs9t1brVmNfjklh0foqiLqq2wBMrwC3kydPUvMWLdRq7CuShnaxCRrkyF1AA5MN27x+4SwwwTIrrVEYxIWLF+ktfmEljR41iurHKJGHsfHkyy+/kFnGERZeCWpIfPLkCf/9Y+SbT9zt85NPGDyKR4MH2gTIVKxUkX3v7okusA5u7pzZ4jwychf16t1LnKdJ8zI/k7vFufy3nNf/TZgwQV4K/62s7AcIKso+fdIQlJD6NG7GgxOvAdOihQvZOTLaQtGwUUP68cfzTg1L6nNgeQkItPWSRQOqC4KqDETePtY1YF2VFahhYeW8mK9qfABTr569qEOHdzAMcuV+RYXn6J+zwLRq5Upj3RmkiNp16hjSAtglrVI4VyUJXEv6dOlSKlSokLxkS6v1MyULuNsnHEZxX5JG84Ld1Wui3QCQBqU9lPcgWBPhoydJqh9wDdeYoIqVZBZhLdy3hw8JJbp57AmtT+Om3DzxGjC9wxaz3r37iGFYSTByfPBNuXbtqrwUCyHz5csvrvvwauudOyOMPJzIaRXOa/KP/SvP2SVJKc1KVwRxP4DBCRQfwNSgwVusqBwp2rf3BReZz/k/Z4GpHrtsjIlZkW+WluD/s3rVavHCOjJIQJGM6ZKkuPSd7vYJyScyYpcYD2YIpcsEGr5MWMEAxT2kPwCs6t2Ncc2cMZMqVCgvhmiWltox2EkvcuighgwdJm+FZwAJq09j4G6eeA2Y0P/OHTuM7R+OHTtGPXv1EIpL5BVgk//kKZPpBlvf1LVO/v5FaRFP0UAAmPbvdBBLUPADz+b1QqVLRyun1bm6KMz/YKWBtQYk1x1BnO/SuRN16dJFpONffAATLJCwRIKgVxs0aBC7MhwxlhiIjOf031s85UqaLKm4+/LlKrDDZLT/GZwKt8dY3x49ekxffGE7HVOlCUgZs3gngRw5/GjhgkX8YqYW7ZklEJXFrgIT6rrbpypt4Vnv1Tva2jZz5gwqXKiwGBbS2yiSFRLxHqxgFxgQgKsfe45jyYrqs4c8K6kwIfWJe/CEvApMJYoXp3nz5golphwU5t9JkiQRXxekWSm5l7AXb5EiRWQV8fUBMEmCQrQpr707x5Y7ldQfGen4oUFw1IMoLL3J4wOY0M+X/GJlz54dp7HIyg0hVqH/pwnSIhXX7Zl5BAkGuiR7y5nO8yqCRo2b2NUbuQNM7vYJKW4FL7qF4tuK8Pw1atzIRsKX5dSpnkxTj59/Hm651jKh9anek6vnXgUmdA7/kLlzZ4u1aObBwM9j6rSpsZaWoNwwFlsb8w9pfijhmQ0PWHv7HVmtzYMSskXLFvQFm5VBUpoSF/xP+p3YE/Wl5GdezyTryyMU7GN4sWpJ9mVJkSK5zdjNL52s8zwcnQEmfESk17TKE5jUAU4wakhC2e94f6O27dobymCZpx5d1THJuu72iWVJ8PDGolyV8MzCGIPnxx6N4EXA8FdSn3fc52L2b4LLgD1KaH3au4+40r0OTLJDSDyFC79JRXkx6507d+jE8e/pFHtSOyJMw7CXT7Hi/rw04YpwpJNrhRzVA0AE8v410R64W2J5jzuqq/N8kwPYh6lSxYpsnbtAUVH7DB1OfI7W3T7x/FWrVpXH+Ddt5Z0Q7t656/QwocoozjON/fsPCBWGsxUTWp/O3pcsF2/AJDvQR80BzQHNAVc5oIHJVY7p8poDmgPxzgENTPHOYt2B5oDmgKsc0MDkKsd0ec0BzYF454AGpnhnse5Ac0BzwFUOaGBylWO6vOaA5kC8c0ADU7yzWHegOaA54CoHNDC5yjFdXnNAcyDeOaCBKd5ZrDvQHNAccJUDGphc5ZgurzmgORDvHNDAFO8s1h1oDmgOuMoBDUyuckyX1xzQHIh3DmhgincW6w40BzQHXOWABiZXOabLaw5oDsQ7BzQwxTuLdQeaA5oDrnJAA5OrHNPlNQc0B+KdAxqY4p3FugN3OYCNA2X4InfbeFb1sEnh1avXXB4v6t29e5e3gr7/rIaaIPrRwJQgfqbnZ5CIojMpbCKHm89HL72UirDfO4I+LuOgpys4Bps3CXvUT506zWGTjx49JHvRmGvUqE6DBg6idOnSiS1ysTXu7du3eMfNKJsIJ2oHnbt0ompVqom94tXtg+V9Dh8xnINaHFWriHPsZ549e45Y6VYJW7ZuEeHFrfJkGvrG1tOpUr0kkmZxtGsr/mKbaXX/fVlfPXbp2oW+//57Ncnjcw1MHrNQN+AtDmTOlJnWrFktYgVatTmPo+LM5sgp3iIAy8QJEx02Z29v8lEjR9oE5DQ3cu7cOWrWvEWsLYEjOQhrWt6K1xFZRRp2pp5sUw2yKdPMx6lTpogw7DJ9EQcEsdpr3Jn927t2687bYEfJprxy1MDkFTbqRrzBgR3bt1OGDBlEUz9wRJw1a9Zy+KYc9PbbTYxN+7v36El79thGs3W3bxWY0N9vv/0eq6l79+7SoPfes0lXQ3cBuBDGfMOGjWKsgwaGUNq06UT5DRs2sOQ01KYuACb5i8no2LHjvMf3Cbr8808i3FP58uUpY8aMoizabNGypYgwLSuHDBjA7eeUl7GOpUuXNCK2vNuxIx08eDBWGZlQtEhRWrx4kbwUx7iACcE5j/O+/VYUOj7UMhqMVVln0zQwOcspXS5eOYBAlZiugH7//XeqUbOWoa/p3r07IRoOyCr8l8hw458KTO8NHkxff/21U60sXLCAihUrJsrO/HAmzZ//iVEPU6QoBk6EdbKKwvPSyy/ZDVYwZsxoqle3nmhr1erVcU7HZKeI4HvwwH4x5UKEoLLlysosy6OMAvTnn3codeqXRZm4gGkHT+n69utn2V58JHoFmPDgpE+fnnZs3yFCMBUoUIDOnj1HYWFhlDJVSurbpw/lypWLzl84T0OGDOXQyLcs76VatWoiMgbqJ3vxRfrh3A8i6oRVnHrZANC/UeOGlDtXbvG1RdDMHzn+2NGjR2np0k8tY5DVqV2X/IsVpWtX/6A5c+cRrhHlIl++vKzAvMoBCLfTgpggnLIffYxfDsxmHUfZwOgXavCQIbRx40ajw+0ceeSVV14R15AmAgIC6MHDh0a+uyfuApMcD8biX6y4AaByHCNHjBChmXDdt19fEdBS5jk6QjqUIcdOnjpFzZs3d1TcyGvZoiUNZEkNtHLVKho7dqyRZz5BOZRHBOE5HK26J0ugoP+XwKRGM1UZAUROliwJJU+ewki2itWWMmVK+mjePJu480YFPjnGMcU68hfz0aNHajKZA2XaZPLFjRs3qHXrNrFi0oWHfy7i3j1+/Ij2RO2l4EpP48fLNg4cOEAdO3WSl/oYzxyQOhS87CVKljJ0M926daPOpt8hZOBA2rJli8cjcheYDvKzAcnInnTSqGFDGs5x40CuSD4BAYE0d060Dg1TMUzJnKGvN35NWbJkFkUrBVfm5/66ZbVsWbPRV199KabFiGj88MEjjiA9UJT9fw9Mly5dosyZMxnzXdw14s0jDhYACFSjRk2b2G9b+SGD2RSECKbHjh3lB/MfFpf9RQx4pFv9UKv56/D666+L0OLo9/LlyyhKBQsWpEyZMolzgE+p0gE2XzUJTKIA/4PIfeLE9yzdpaKCLK1JatmqldADyGt9jD8OyI8bwq0HBQWJjmCh28YWJgSFBAjASgeCkhYvkqekAtPt239S0qRJRJOQmk+fOUOhoaGW0r0rwLR79x7q0bNHnEOFhXDKlMlG8MyRo0bS2rXr4qyHAJhfffmlKHfx4iWq/1Z9u3UgjUEqQ0DOylWqUAtWzjsLTHiPHj/+m6eLiejmzVt06dJPhGks9GTxQV6ZysmH6sKFC/QWRxfNmjUrbWTFHwimXsRhT5PmZdoVGa20nDTpA/p0WbQ+oVWr1hQyoL8oe+bMaWrFEg6mYyCYKb/4Yj1lzZJFXCMi71EGLUm9evYSTF7OZmSzv0vouHFUm/sFhYVNYnPzMlmNVGDCj1SXQ1NLP5I2bdpQ/5i59I6dO6lv375GPX0Sfxw4euSIACDol6rXqCE6Ws4huPGhwMcKX/jBMUro8PCVNC50nMeDUYHJqjFMdyZMnBgrcnRcUzlE2W3IUhMILy4+cGZCoMvBrNdKljQZ+fllszHJHzp0iDq8+665iuX1pElhVK1qNZE3dtzYWGOVldTpnnyPXAEm2Y75CAls6LD3zckeX3sVmDaz5DOQxWyQfNBU0+XhQwfFD/DJJwtoxswZotzuXbuFAu6vv/4iWCbMuoOgoAo0Y3p0WfhnhIREty8qO/gHJWMUf61AZsWdCkw9evak3bttrTzfHj5MiRMnptMcObhpM+fm+Q6GorPi4AAkoag9UaKU/LjVqlWLxrPEAhrAH64HDx/TLP5CgyIiIql3n97i3JN/EpggpUHivnnjJkva/6M8efKK3x9tY2rZiEPX//jjeaOrRQsXkr+/v7iePn2ajT4SH9N9e/cYM4Zffv2VcC9matKkMQ0bOsyczNa9r+z6QMUqzAlSegOIlihZOtYHGnUgFED/i7Ht3/8Nde7SWTTlLDBBUPjhxx/pjyt/ULr06SgPz1Lk7AcNTWbXgyUc2tyb5FVgWrt2LY3kuPMgCUKqyVQyUZ13SwCDg9mRo0coEXv7SpJx3eVD8NNPPwnpRubLI+bm5coGUrZsfoJxLPkLKlyosDia9UUqMBXhEOZmwkuClwVT0Bo1a5qz9bWXOZA+fQbayQYHEPx/IGHsiowQukkYMdq2a0elSpWij9mPCbR3717qyronTwnqBUyFzNMRvMiLFy+lXDlzii4AWvXqP50iFchfgJ0Rl4s8ANfSpUtp85atQvIZGBIiDEFybPaeIagphrIhKHGSJMJBU/VtguWxDc8Onjz5RzZjeXyLxzQq5n2LYj+ibuxPZEXSigjwCq4czE6gd0QxZ4ApMLBsLB8leOSP4qlmfZ5pgNBuAJeTMx2R6OE/rwIT/DkmTgwTQ7ICoX179zHSpuCvQrR/x2uv5aY1q9c4fQuq/gGVoEuaOWOGYbGx19Chwywad3gqGktgAiNL8gNvpsiIncIXBboGe16/5jr62jMOSEc+vMin2CIVHBwsHnj5IqkS1HrWlQxny1d8EkALZnVIzgCfojESkuxz4oQJrCuNnnLKNHmE0edlltjxYT1+/ASrJ2JP5WRZeYTuZ/7HHxu6Vmemq+vXraecOaO9weH3ZOV9XalSRZoW490+e+5smjc3GtzRrzPAJMdnddzE7hWZM0cr3Tt06ECHeKbhLfIqMEGPA30OSAKTar40AxPQeA6biUGw1uFL6Igu/XSJFixYKIpAotm6ZZsAOiTgYTh58iRd+eMKYVoIatyokTgeYf1Fu/btxTn+PQWmRwxMpY10eaKBSXLi2R2lhA3JGWAAwkcOHzuQqou08owWhbz8T33xq1WvTleuXLHpAda3Xr17U5rUqQUIQXKAo2b//iFiSobC27Ztp/4xOlSbyhYXadOmpQjWawLQrHyg1CowFsFoBILzY1DFSmq2cQ5db9asWQW4Sl7KzDffeJOKFCkiLs+ePUsHWdUCidUZpTsqDRk8hJo2fVvUnzVrFn3EwOot+k+BCV+lXewJCzJLNXHdYEdWDvboEW3tkBKYWgdz4H0xQKeBSeWMb57v5fVlqdgqKunCxYs2Sz5G85Slfsx0atj7w8nKtw1TDAlqaOfJkydxTodkf1bHpUuXCK9s5LV/pz19++0Rq2IiDUCBjysI07SFMR9Qe2Z4UdDinyqFFPUvZqkzQrXRo0cbUynod6DnsaLNmzYZFmqrfHOaanww55mv1XcQBqgJLEV6i/5TYMJNSEWzvbm4vRtVHfLg5Gaej6sirAYme1z0nfRVK1ey0jmPGBCmTrXr1BEWXTlC9QWDlRfWXjN9yrqeQoUKGcmw5gUEBhjXrp5I6xvqlSpdOpYfnb32Fi9aREVjdJet2cr7HfvhOUtSWkd5qBns6W3k7AO8CqpYwdAbmfsBuOaN4as5LylbBCWQox0sWD7DjtGwTDtD6nq7IUOG0YaNXzlTzaky/zkwqeJy5y5d2Gqw33LgcGhTf6SP5n1EpUtH64ek+VOtCN8OKDZBGphUzvjmeT1WpI5hKQBklpagi1y9arWY4jj6gGFJC5a2SIprOmR+pmQ9HKXFDudwJQkIDMRpnARDDNQTmI6Zx5oieXJWdicWPllWDZUpU4Z1QHNFlqOxY4XEJF5VATpz9gyvJWwqzl39F5eOyRF/4GO2ZfMmA9gqV6nKrjtXXR2C3fL/OTDlz5+fPo/ZzgK6obBJk1gHFG4MGA8apmxl+IvVpWtXA7jgw9ShwzuiHBzL+vXvK0y6L/JSFkhTJYqXMNrQwGSwwqdPpD8cBgld4izeSSBHDj+eFi1ik3dqMXb4M0k9o/lmXAUmWIShE4Ju9NChw8JBF0ro1uxb15hdBKRV+OP58+nDDz+06W7yB5PF9cJFC9mt5AzlYiV03bp1hbQh65mnnK1athKuD7ACrlgRzsumjohVCdhVoXnzZtSyZQvDn0l1s7HpmC/CP1/By6fyi2Tz8h1zWUfXcQETdFiJEiWi8FXhtCtiN4PgWaFPgyGiV68exooOWBFbtW7tqCuX8/5zYMKIYTbFCnJJECv/+usxe+ImMx4O5KkSFXRIEHuxWFISJCqgPAieqjJPA5PkkG8fITVBlyRfbPNoz/MayEaNm8SatstyrgKTtATK+lZH6Vdlzlu7Zg3lzp3bnGxcW/kjAZhCQgYYZeydwPoMqci8BAvlVQW5PauyvXbN6XEBkzqVNdeV13jPqrCD520eszfJq8CkKuEOHvhGAINq9oQyGoBi5S1arlx53htngrHsQL1JSFJA5RDelEsVF7GAd/r0qcY2E7IOlhe0btOa8PBgDm1WrH/OPij52RfFnrgsV19DmVmVHxBNz44DNdlvDOAkPzDoGR8q6GnatmtvVxmMcq7qmFS9FeqrBOvg4sVLhMe5mi7P7bkLACyms0OwXNkgy+MIb+/xoeOFMtoKfHGfWAM4mncZwBIcK+rduw+9076dyHLF4mfVVrNmzQxvekihkEZVmjljJjs9l7P7oYDvFByq7Y1VbcvVc68Ak6udOioPS12pkiUo9+uv0a+//M7my7MsKp92VIX1CoWEsvHevTtiJbe30dth5zozXjiAKVWlihVZ33SBd4TcZyzq9XZn+FAW53Vq2f2yU9p0ael39qPCsifV09ten3BZCWC9kF/27Lx+7Cab+iPpJpvu4yJsU1KYlfSolyVrJrpx/Qa7upyiM2fOxtt9xjUme/mwdPr7F2GXAz969dWM/DF/zB+JY2K8cI+IL/I5YIqvG9Xtag5oDiQcDmhgSji/lR6p5sBzwwENTM/NT61vVHMg4XBAA1PC+a30SDUHnhsOaGB6bn5qfaOaAwmHAxqYEs5vpUeqOfDccEAD03PzU+sb1RxIOBzQwJRwfis9Us2B54YDGpiem59a36jmQMLhgAamhPNb6ZFqDjw3HNDA9Nz81PpGNQcSDgc0MCWc30qPVHPgueGABqbn5qfWN6o5kHA4oIEp4fxWeqSaA88NBzQwPTc/tb5RzYGEwwENTAnnt9Ij1Rx4bjjw/xaYECL8A8S4403hsRPhvn2OY9Y9N794ArpRbFL2779PnumIn3WfCPt09+5dEfDA1RtF3atXrz1zHuHdSpI4Ccezu+XqkJ0u71PA9Oqrr1LGjBnpwYP7Tu0g6Ogus2XNZgQdtNo21FFdnfffcQDRNyaFTaS8efOJbZaxxS1CNS377DPewH9FvAzM0z6b8xa1CNP0Ysx+840aN7b70nbu0omqValG2Xn3SnX7YHmfw0cM56g+R+3eJ6K3DOItptOlSye2vMV2vLdv3+JdPqNoyNBhduuZM9D3FxzROFWql0TWLA7g4Yi/CE7bv19fypYtqxGEAH0jWvXUadNo48aN5i48uvYpYJLRH7DBuVWEXFfuVAOTK9zyjbKIFrJmzWqxL7zViOZ99BFHwJltleV2mrt9QrLq1Pldatu6rU2gTgykJkcR+fXXXy3HFMkBXtPy9tGOyF6k4VEjR9oEATW3gSi6zZq3cGp7XjUmHNpxFJizXdu21KdPH4d7f3fr1t08HI+uNTB5xD5d2Zsc2LF9O2XIkEE0ibBKa9as5fBNOUQEHbl5f/cePWnPnt1e69bdPmXASauBxAVMyV9MRseOHSeEcbr8808i2m/58uXFbAHtQRJp0bKlCHkv28+bNy+tjAlrhnyE+96wYaPgz6CBIUZADquo1LINeUQQj8WLF8lLcbQHTHVq16Vx48YYZY9xUAgEFbl2/ZoI6FGV48mdOPEddeseHRXbKOjhiQYmDxmoq3uHA4gfiPBLIISprlGzlqE76d69O3Xq2FHkeTOGmSd9IiYdwBIRfNauXUcFCuQ3ogA7AiboZ+7euSvuxfxvDEdHqVe3nkhetXo1jRnzFBAWLljAoceLibyZH86k+fM/MapjWhbFYI1wZfYi/xiF+URGAfrzzzuUOvXLIsseMMlIMgDD0PHjbWI+yjYRXMEcCVvmuXv0OjAVLFiQunTuwlEVsnCQwjR09949usphkLZu20breU6rxspClIm+ffsZY6/G8anAKDBhNYdeUunChYv06adL1STjHPG6goIqiHn7pUs/cV9bGNX3ax2TwSHfP1FDvpuDOKrxzfBsBAQE0IOHDz2+KU/63BUZQWvXraeZMz8UUycVOBwBk6NBQzqE3gd08tQpDoLZ3CgueYD79y9W3ABtWWDkiBHUoEEDcdmXdUE7duyUWTbHgSxdtWzRUox5Dkf97ckSKMgKmIoV8+dgowtF/oEDB6hjp07i/Fn88yowjRs7hurUqWt33AcPHqR3Y758KITQz2tW2wKQvco3btygSsHBNtn4UixdsliIlDYZfIFYcjIar1Z+m7nje9dS94IXr0TJUoaepFu3btTZ9EKEcCwzxF/zlLzZpzeACeHF586J1qGZ35WDDAx43hHDrWy5srFuvVHDhjR8+HCRbpa2ZGHoXRHTEZIeYsg9fPCIBg0aKLKtgEmNnde8RQubqaVsM76OXgOm4OBKNHXKVDFOPFyQXE6fPsUSUGp6/fXXCaZNc+BJRBWdNjW6Diq+8UZBIY6i/tGjtpaJc+d+oHGh42z4ACUh4nqBoDA//O0ReilVKhG/XuokkKeBCVzwbZLhwRGFNigoSAwW1rJtW7eIFwkvJCRs0FR+ZvAieUre7NNTYCrBse2mTJnMs4y04rZGjhoppojyHl0Bpt2791CPnrF1PpDGIJVdu3aNKlepQnFF4kUA2yKFC4vpauUqwdS1SzcqV64c6wFfEfHzzpw5Q6M4OGl8uA14DZgmTQojTMVAo0ePjjUVwxQva5bMPM3aLnkd6+iKVS5d2nS0c+cO8dDev3+fatWqbQQbxJdnDps/JThpYIrFap9LkDob6Jeq16ghxrd8+XIqWKAA+/g8EF/4we+9J9LV6M6e3Ig3+3QVmBCVd/DgwZQsaTLy88tGSZIkNW7l0KFD1OHdd41rnMQ1lRvB0lJDlppAUKq3bNVKnMt/mL5hGgdq27adCOoZFzDBBSBrliwEXRR0VxAuzAQdW/8B/Skycpc5y6NrrwGTGp65Tt26dPnyZZcH5gowhQwYQK1imG9lRlbj2GtgcvmneKYVIAlF7YkSfV64cIHeYl1JLTa5jw8NFWkD+MF/wBFgZ7HSFxQREUm9+/QW5+7+83afrgJTkyaNaZiF39GGDV9Z+iMtWriQI+L6i9udPn0aLVi4yLh1gNq+vXvEbAOJv7CrAvgnKU2al2nH9h0C/Pbv/4Y6d+kssuICpt27dhvKcVRA+PNtrCu+/+ABlQ0MpMyZM4t2AFoBgeW8qgD3GjCpFoWrcLqaOl0ooXEzzpIrwKQqLisElWcnszs23ahM18Bkwxqfu0ifPgNbiqIlafji4GsP5XLy5CnElL5tu3ZUqlQp+pj9mEB72VzdlXVPnpC3+3QVmKBYHjpkKCVOkkQ4S6q+TbA8tmGpRrV0FchfgB0gl4tbhqpj6dKltHnLViFtDQwJofTp0xvs+I3DnNeoWdO4lmNDSO/gysHGu6K+I1Y6JtUlAqqS6jVq0Y0b1412l7PTK2ZCIG+/Y14DJugDtmzeRIkTJzYGjhPoDLYyAyd9MMnGImdTKObCFWBay1a73LlzCwte0ZgvidomPFUxnQN5m2lqP/rcOxw4FqNTxEt1ii1SwWzoUF8kVYKCdXc4W6E8JW/2KV9+jMkdqxx0P/M//tiYLllNV1VltPneMd16mV0RoL44fvwEtWodPZWrVKki63GnieKz586meXOjwR0JcQGT6uO1mHV6UxR9MOrnYd3xqlWrcMp+WccYTNuKc2/88xowYTB+fn40mQEIywmkfkcOEg/ZBx9MpuUOlhW4Akybvv5aiJL4elgB0xtvvEGfLVsmutfAJH8F3z0ePnRQTDWwNEN+3CZODBOOhBh1q1atKYSndCB7ntEi04V/3uzTU2DCsGEMiti5U7w79vyRYH3r1bs3pWGjEt4xvFdwRu3fP8Rwj9nGelzofUAbN2xg152s4gMOp0yV3nzjTSpSpIhIOnv2LB3k3wASK/yyQOvWraNcOXOK8/bvtKdv2bhkJqmn+4NdgqpWi9Yxm8u4c+1VYJIDgMMVrGXNeA1RQEAZSpo0WrGHh65U6TKGKViWl0dXgEnVaRUpWlQ2YRyrMZMmhYWJaw1MBlt89mQvr/VKxRZVSRcuXrRZfjGarT/169cX2cPeH05ffvmFLGocsUxEghoSnzx5YjMdMgrGnHijT9mmN4AJbckPLs6L+heL5a+EdElQRgMQQKrPkTotkw6Ssk5cR9X4oOq1GjZqaLl+9dvDhwXPsV6vQlDFuJp3Oj9egMncu7QoIF1aBMxlcP05z6Hz81wamv4SJUtaFTHSwiZOpOrVq4trKx+Lfn37cl/RoqUGJoNtPnuyauVKypMnjxgfpODadeqIxbtywOoLVqt2bZs8WUb9WCEN1ryAwACZHevojT5lo94CpsiIncbykpKsV3NWR7t40SIqGvOBxoLi73jpCGjp0iWUN4avcqzymJQtghLIwfNHjx7SmbPnqA3XBw0bNoya8IJk0HtsQfyaZykqQQA58u1hkXT+/HlqEGMVVMu4e/5MgGn2rA+pbNlyYozt2rezu3paLVeGJS5H3r0NGrxFI0eMFG3ujIgQiwxVJqjzYw1MKmd887xevXo0ht1MQGZpCY64q1etFlMXs2JXvRvVEot0e9MhWccbfcq2nAGmFMmTs7I7sXCSlPXUI575eeybB4pr7Go91T3GEX/UOjiPS8eE3T62bN4sqsEnsWmzp57oSOzILg09ekT7S1m9g6Kim/+8BkzwOUmZIiV9/PF82rBxgxBBgajBlYKEbgnzYaCylTu9HHtflnKwkhl08uRJGvb+MDp//qJdcVYVxcdPmCC2bUCfcFSrVLGiaAf/NDAZrPDpE+nwKH+zWbyTQI4cfrwsYhE7HqYWY4fHMn5PK3IVmNCGu31CH1S1ahVjGO+070BZ2E8PBCXzjes3xPkvv/zGVsQocY6lU3B9gJ/RihXhbHE8Qj//8jNhh4PmzZtRy5YtDH8m+AX16t1L1JP/JrOOFrRw0UJ2Xj7D+p8cVJddcyDhSJ2uvWmubEM9xgVMKCt1VDhfwwan0WPGivcRi46nTZ1ijLcZg9YpBi9vkdeASXqVyoHBvAhRUTIM6VCmjRg5UhaJdUyZMiXt3hVp3Kxa4Pr162zqrKwmCR2WdLpDBnRYiRIlsukT6RqYwAXfJ0gw0CWpz4w6akwXGjVuYldv5A4wudunaiVUx2g+l17WSAcwhYQMMBeJdQ1LNnSk6rpSFJKW6FgVYhLs+UDZK+8MMMERFNZC6QAK4QK6OzkFRNu72N+pZ6+e9rpxK91rwDRk8BBWTtY1NpFSRwPLwdq162nsuLFqsuV5rlw5aWDIQPZbKWkwAwWtgAnpdXk19qiRI2wYhf5GjR5jTA0+nj+fPvzwQxTX5OMcqMn+NwAnrAuThJcBOpO27drblZ5R1lUdk2zfnT6xYdvECRNlE3aPqrUKL/n40PGUKVMmS/DFfWIN4GjeZQBLcMxkz10Aeqjp02fQp8s+NVdxeA3jlPywO/p4YyqNqapcLiMbxXgX87IVLBHyNnkNmOTAsFDwzUJvkF82P7p37z6dPnOKRdfvnVbiyXZcPWKPmRIli9OBAwcNxZ+rbejyvsMB+PVgOn7h4gXenXGfXUuuN0f8rPqEuqFwoULkx7tYZsmaSUz7Tp48RWfOnI3zPuGxDos36t68eZPdCyKNpVje5IVVW9iypUL5CpTp1f+x68BR+o4dQVUnUKs67qZ5HZjcHYiupzmgOaA5IDmggUlyQh81BzQHfIYDGph85qfQA9Ec0ByQHNDAJDmhj5oDmgM+wwENTD7zU+iBaA5oDkgOaGCSnNBHzQHNAZ/hgAYmn/kp9EA0BzQHJAc0MElO6KPmgOaAz3BAA5PP/BR6IJoDmgOSAxqYJCf0UXNAc8BnOKCByWd+Cj0QzQHNAckBDUySE/qoOaA54DMc0MDkMz+FHojmgOaA5IAGJskJfdQc0BzwGQ5oYPKZn0IPRHNAc0ByQAOT5IQ+ag5oDvgMB3wSmBA7qzRvhnWDt9OdwNFQND2fHEA4pn//fZJgbh4bqSVJnIRu3brl9JhffPFFSpEihUt1nG48joLYa/wKh3+Kr83e4ujeYbZPApPcItWZME4O705nJjgOIKLzpLCJImgqdmvEPu6//PILLeNw1CscBEt150ZLFC/O28JGR6m1Vx8hjapUrWovmwIDy1L/fn0pW7asxrbS2HL26tWrNHXaNNq4cWOsutjbHtFx/f2L8BbCL4p8bI/766+/0chRI+xGEdq5Y4fNdtOxGuaELl270Pfff2+VxfvhJ6YJ40OpON93hgwZjO190Te2Lu7AUU/M5Gmf5vacvdbA5CyndLl45wC+4GvWrCa8uFY076OPaDZHTvEWObNvN0DGKtIzxoCIPn369DFecPO4ojg6Srdu3W2ScY9ffLHOACSbTL5AfwMHDRJ7f5vzZEhzc7p63ZX7k1FZ1HREdVkZHm6EIFfz5LlV4FhP+pTtunP0SWB6h2PPlS1Xjm7cuMFRJQa6c1+6TgLkgBoLEGGv16xZy+GbctDbbzcxXv7uPXrSnj27vXJ3KjChv99++z1Wu/fu3aVB770XK71O7bo0btwYI/0YSxz79u6la9eviaCtVatU5b3uv6Nu3aPjrsmCcjaAa8SAmzz5A/rt9z84sGQjI/IwwAmqDHOUFAkSt27dpOPHraWiUJaIfv31V9mdcVR5e+/ePYrgwJoI+Z0hYwYqG1CWChcubAnAnvRpdO7GiU8Ckxv3oaskcA68+eabhPBLIISprlGzlqFf6t69O3Xq2FHkHecN8Fu1bi3OPf2nApNVpFlH7cvIwACR0PHjKZylETNh6qTqbxDSeytHQQEhSnBg2bLGPSKtd+8+hI8yaNasWfQRh01SSYLEDp7S9e3XT81yeF6pUkUxdUQhgGHjJo1jRWExj1U26G6fsr67R68AEx6c9OnT047tO6gxI3+BAgXoLIcaDgsLo5SpUlJfFndz5cpF5y+cpyFDhloq+rp26UzJOWCmSjdZYkIcdnvUrVs3MVc+zPHTIzga79tNmlBFjqyROXNm+umnn2jJ0qW0e7d3vq72xqDTvcOB2bNnUVnW14AGDxlio5tRQ8wDCAICAhxGaXZ2RO4CU7Fi/hzOKDro5oEDB6hjp05Odan2ZxVjEeDw7eFDQjpUwz7Jxt0FCTXmY1WOV4e2nSV3+3S2fXvlvAJMajRTtaM//7zDc+kkhlIQeVYMR/rRI0cMcR3XoLiU37LfM2dOMzBmoIwZM0ZXVP7P/HAmzZ//iZKiT32RA5GRkZQ2TRqhYylRspQRxggfn86mFz9k4EBLHYyr96UChSsSkxrfrXmLFiJqtDN99+7Vm955p70oOmnSB5Zx4HZFRoj4bQBgs27LXZCQ79a5c+dYWmrizFCNMu72aTTg5onXgenSpUsssWSyUe5BfEzDD51UataoUZPn1b/ZDHnRwoVsNk0u0nLnzi3qOwtMsiEExTzLzM+RPYcRrhltlCpdxkakluX10Xc4ID8yiEIbFBQkBgYL3batW8QHCwEgYaUDIcCiI0laFHLinwpMt2//yZGjk4hasKidPnOGQkNDLaX7JRzksQjrZPBsVa4STF27dKNyrBPNkOEVEePtDNcdxUE7zW4DKjCFhU1iS+OyWKOUwISMov7FbKZ6EiQQ5frx47/ZQpeIY8vdokuXfiJ8gBF63Ezg4fZtW0Uyxn2Ew5I3fbsZYer8zz9/0eXLP4vQ36s5/LcVudOnVTuupnkVmC5cuEBvNWhAWbNmFTHPMRiYemvVrs3A9DLtioyeVtn7WsjBSwWhK8C0e/ce6tHzqaLxk0/mU4niJUST5qmB7EcffYcD8qsO/VL1GjXEwJYvX04FWS0Afcz0GdONqLHh4StpXOg4jwevApNVY4joDD+6lStX2WTDBSBrliyEGcHDhw8sLV14dvsP6E+RkbuMump/a9euZdeAUUYeTtSpHK7x3uD9kSRBQl6bj1999SUNHfa+TXIZVqLPmztXpO1l5XxgYKBNvrw4duwYtWEro5nc6dPchjvXXgWmzazYG8hiNkg+aPhhevXuJdIOHzoo/DA++WQBzZg5Q6RZ/XMVmCD2QpF4//59ozmEY160cJG41iHCDbb45Akkoag9UWJs8uNWq1YtDqcdKtIG8Av+4OFjmsVSASgiIpJ69+ktzj35J4ECUhok/Zs3bnL47v9Rnjx5jZDzeLYasd70xx/PG13t3rWbUqd+2biGH9C2bdvo/oMHrCcLFDpOZAK0AgLLGdL6q6++Sls2bxb18KwGmEBCVX6jUOcuXWj//v2iPP4BJNDXDz/+SH9c+YPSpU9HeV5/3ZiJoMzkKVMIkpGkFs1b0KBBtpZtqD6OHv2OMv4vIyHa8QsvvCCKz2UAmxMDYrK+O33Kup4cvQpM6ldAgtCGDRtoyNChYowHWVGImPSrVq+mMWOemlrNN+AqMEH0NjvBYdoI8y3oiy+/oPffH27uRl/7CAegH9y5Y7sYDfQgLVu1Yuk6Qugmj/LL2LZdOypVqhR9zH5MIHz5u7LuyVOCesHPzy/WFAjS/eLFSylXzpyiC4BWvfr1je727d3HYJBCXGNaVb1GLXZtuW7kL2dn0IIFC4rrBawkh7QnSc2DQ+WkD8J4hcNNdhWoTw14tqGS2TUCzpxmHyV4x48aNZLq16snqkLKC+ByADAQdFqYQkqC9Dd23Fh5KcaJMYFQpyTzWSV3+lTru3vuVWD6bPlnNHFimBiLFQjJH1QFK6uBuwpM+AK83bRZrKakGKpKcrEK6QSf4ID8raCPPHXqFAUHBwsFeHDlYLp9+w6pEtT69etp+IgR8TpugBa8nhMnTiwU8qoiWvUJWsxW4yms81IJUsyqVdHTP/MUCUC4hj/M+EBbEe4fVmVQTZYarXySrOpt+vpro16HDh3oEFuqQSrf7Olbw8M/p3x584nyldn/6tq1q+I8rn/2+oyrnjP5XgUmKPOg1ANJYFrJP9DYsdEIHV/ABKUfvrJmkg+7BiYzZ3zvWkrYWIICMADhI4ePHahVq9YUwlM6kNWUQ2R4+d/6despZ84cotVq1avTlStXxDlM/VKaas8SCRwVzSRVGVZWaEhkM2fOogL58xsABWfitWu53Vw5BSijPStPbKRb0ZDBQ6hp07dFluoD9eabhdg/bKlIhwtN3RjJSm1j3NgxVKdOXZHUl5fX7NixU822e26vT7sVXMjQwOQCs3TR+OPA3qgoSpUq2uqGXi5cvGh4QuN6NCuK68dMp4bxtPxLnp6bCdMaCWrIe/LkiaHfMZd15nrp0iVUuFBhUVQFIFiQ/f39RXrDRg1t9E+y3W9ZYsFYbt++RRWCKsrkWEdpaYTVEfTlF19Q9uzZ43SVMTfUkde59egRbfxZzmsKJ0yYIIpgKUpkRIQ4tzezeI8925s3i55xjB49muxZ6Jzt01zOnWsNTO5wTdfxOgdWrVzJSuc8ol0onGvXqWNjkZKe1ihgtlbJwUgVgLyGNS8gMEBeunxUHTtLlS5tLBEZNmwYLyFpLNqz8n+Cde3It9FTqfPnz1MD3i3DGcqa9ak1WxoBnKmHMlNZ6Y3pL2jIkGG0YeNX4hz/pPR27do1dm+oYqTLk5kzZlKFCuXFpSt+WY76lG27e9TA5C7ndD2vcqAeTzHG8NcaZJaWXnstN61etVpYj6CDqVGzpmXfWNIC/xxJsIqVLmMfmKDnkUpiWUcepcUO12YLmmpdO336FDVt1lxWE0dVetnJ0goW+sZFkPY+X/EZ5cuXXxTt0bOnzaoFR2OFr9KWzZsMadGsJ/pkPrvOlIh2nWnGYz3FY1ZJqliQ5l+suCFletKn2r475xqY3OGarhMvHJBOlmgc1qxZvJNAjhx+vPxjEfvBpRZ9wsKFPCtyFZggSWDxLnSjhw4dZmfDy2LRcGvWZ2FplTSjW7mbbGRrMyQc0Bp2Thw9ZqxwhixfvjyvS5tibE9iBgIov+fNm0eLFi1iF4Pt9OD+PQqqGES9evYy2oO+qVKM9CPvE2vsEiVKROGrwmlXxG46c/YspUmdWii3e/XqYayusFpLqFo0MWXEtPQs1wfwwMepWLFiohuzrtaTPuW43T36BDDBrC+9wuO6EVXUlA+ymaGyDa38lpxIGEdITdAlSUAwjxrTokaNmxhfdHO+q8Aknw9zO+q1vSkV/OTm8yLbJEmSiuKYfkKnpeq4drG/U89ePdXmbMzzNhkxF5h+tm3XVgCHmq9OK9V09RyuC1WqVmO91m01WZx/NO8jKl36qSsA3Ark2FEA48cUWbUCetpnrEG4kOBVYIJjFxy8QAcPfMOI/CKvun7qpSsByOyhKi14zowb1jfpei/rWX0l0JZ88DZt2mS5dYUz/ekyz5YDNXmaBnDC11wSXhpsZNa2XXubJRoyXx5d1TGpeivZhjzCOrh48RIbHySZJ4+YYi5csECsbZNpOGK8i/ldwNIZM9nbjwl1LrLCHz5bVsACPVD58uXsgjb2foJzs1Sim/vFNfgK8DcDP7ztscHchQsXbap5o0+bBl248AowudCfLqo54BQHsA8TvJIvXLxAUVH7jEW9TlV2oRAkdezomN0vO6VNl5Z+Zx3W0WNHLS1t9prFlroVylegTK/+j10HjtJ3vDWLut2JVT04YL7xRkFeuJyWfY4OCU/suLYRhh4Ku15mzepHr76akT3LsfPkMV5EfMol/qDvMmVK05Xfr9I3LEA48lvyVp9WPHCUpoHJEXd0nuaA5sB/wgENTP8J23WnmgOaA444oIHJEXd0nuaA5sB/wgENTP8J23WnmgOaA444oIHJEXd0nuaA5sB/wgENTP8J23WnmgOaA4448H8AAAD///g+R6IAAEAASURBVO1dB3xUxfMf6UqvUgVERVAQkBZ6SRBC7x0CIl16EUKT0Hu3gHQI0kuCSE3oJUIQFNCfFAvgD6VI1z/4n+9e9rn37t0lubvI5Zedzye5ffu2ztudnZ2Z3Xmu8OuF/iYNGgMaAxoDPoSB5zRh8qGvoZuiMaAxIDCgCZMeCBoDGgM+hwFNmHzuk+gGaQxoDGjCpMeAxoDGgM9hQBMmn/skukEaAxoDmjDpMaAxoDHgcxjQhMnnPolukMaAxoAmTHoMaAxoDPgcBjRh8rlPohukMaAxkCCE6bnnklHOF1+kX//7X3r69InGssaAWxjAOPr776du5f23M2XMmJGrfEp37tx1q+pcOXPFe754Uqc7uH0+TRrKlCkzXbt+za0+xieT1whT9erVqFNQJypS5HVKlSq10YY//3xMJ06coGHDh1l+tNJvv00zZ84y0lsFHj9+RP4BAVavKFmy5JQ6VUp6+OiR5XsdmbgwkC1bdpo6ZTK99lphSpcuLT158oR++eUXWrV6Na1Zs8arnfF07Pn5VaDRo0ZSzpw56bnnnhNtQ3uvXr1KIzn+1Klop+3FuJ00cQK9zeM/a9asRv4///yTvv76a3q3SxfLvJ7UibwD+vejAgXyizn66NFDunz5Mk2cOJmiTzu2tWDBAjR0yFAqXLgwZc6c2Wjj33//TQ8fPqLw8HCaNHky/d///WXZVk8ivUKYatd+hyZPmuyyHfhgrVq3pu+++84uXVzyAhElSpa0y1e8eHGaOWMGZcuWTcTfv3+fpk+fThs2brRLpx8SDwbANWzcuIFeeOEFy0Z/8umntGDBAst37kS6O/ZQV1DHjtS/f3+X1YaEhND6DRsc0mTKlInWrV1LOXLkcHgnI94qUUIGjV9P6qxRozrNmD7DIC5GoRzA/OrarRsdP35cjaZmTZvSyJEj7eLMD/fu3aeAWgH04MED8yuPnr1OmP7zn//QqehoOvftt5QzVy5q07qNWPnQyjt3/qBq1avbbe/UwYG8165dd+jQ/fv3aOgHHxjxefLkofCwMEskjxg5irZt22qk1YHEg4G9e/YI7gEtxljYuHET5c+fn1q0aG58616936eDBw94pVPujD1UDK5u966dRpvOnDnL3NznlDJVcm5rSypapIhoHyZ8pcqVCJNXBbWfWFAjIvbRyZOnKGv2rFTRryJh0TUvxJ7UiS1fZESE0d69+/bRkSNHqFrVKlSxYiXRNDAOfhUq0OPHj42mgjCNGDGCrl67RsePHaOLly7R0ydPqRYTojfeKEopUqQUac+cOUPt2rc38nkj4BXCVOKtEtS7dy8KGTeOrly5YtcuNP7A/khjFezWvTsdPXrUSKMOjg+GDaMvvvjCeOcs8Oknn1K5cmXpjz/uUo+ePei/LMuaPXu2GBAgflUY4RoSFwbefPNNWrVypWj09evXqXadQEO+1KtXL+r63nvinTcngTtjD41o0aIFBQ8fbrT1ndq1RVj+27d3L2XJkkU8Dv1gKO3Y8aV8RRB5zIoRXVzjCd+seTMHwoVtnlk260mdQ4YMprZt2oo27Nixw26RDw0NNQjp/Pnz6dOFC422uhKTZGZZ0+7dOwVxstrRGIW4GfAKYYqtbrCDoL6AZcuW0YyZM40s7gyOLxm52NcDiUAmANuAHTtsRK1EyVLGoDYq0gGfxsCCBfOpYoWKoo3DeNJv377daO+e3buNLTsmgZ+fn1dkiu6MPTRq7IcfUsOGDUX7QlnuNWnSJKOtCIwZPZoaN24s4lYysZ06bZrxfuuWLYILRERArVpiUTVeugh4Uuf+yAjKmDGT2LKVK1/e4IrMXBgWeLQprvD5mlB6/XUbd1ivfn366aef4po11nT/CmEaPmw4tWzZQjTms88W05y5c4yGuTM4wrZto3z58lFY2DYKHmHbA1eqVJnmz5srkG9mg43KdMBnMRAZGUmZeMsBwlO6TFlDoNqzZ0/q1rWrXbsHDxlCO3futItz58GdsYd6enTvRt279xBVRkREUt9+fe2qX8QLZpkyZUTc5MlTaHXoauN99KlTYkv1/fffM7fU3IiPLeBunalSpaITMbIjM+EJZYVC0aJF7aq2km3ZJVAesHjkyZ1bxFTElvXuPeWtZ8F/hTCtX7eOXn31VdHSlq1a0fnz541Wq4MD27CUKVOIdzdu3KDzFy7QhAkT6Pbt20Z6BCShwyDetXsX/fbbb9SEV6g0aZ4XW8kGMasZ0tarW5+6dOlMuXLl5D10JQcWGWk0PHsMRLHmNmXKlHT7zh2qWrWqaJC6okNOAy0dYCZz3EuZ8/YU3Bl7qBPc+RdfbBcEBlpn/wB/Q+Ns3uJApirHL/qzh8crYPny5SyLPUUtW7QibGOfPPmLOY6fWa620VKB426dhQq9TBs32BRCkCt172EjqHXq1GGt4ETRFsi50qa14bZqtWpGe8VLi38ZM6YXhBnyY8CdO7dZfFJNhL31L8EJU3lmHT/5+GPRXkjuIWBTQR0carwMQxUJleS6detlFA+IZLTzyx0OWo2//vqLGjdpQlC59nm/NwvpahmmCyBiHViTAlWsBt/DgOQkIF+SMhsp/3jw4CHNnjObhsUoQNauXUfjJ4z3uBPujD1Zabt27YXqPXny5CIKJg3JkiXjBTCXeMa4nThxkp1WTp0Lhw8fpgqmuSDLPn36tBir8ln+ulOnKtMCh4NtMrgoyH2xkJ89e1YQFikE79gxyNJ0YDJvVwu+XJCyM3GV8jO0C0Sp9/t9vD6vEpQwAQHQBkj1b8+evejQ4UMSz+JXDg6slBCc37p5i+VHOZjDeo3kRwdRadqsKf3ww0UjL4gTbDIgb0jDhl/nzp+jUyejhQanYMGCRjpwU7B/WcYrFAiWBt/DADihQwdt4+ISa34aMfcbGBhIE5lbBgwaNJBlSn+KrTqerbZPiI8vuDv2ZD2wg1q0aJGh7ZLxGK9t27Wjb775RkaJX3AYQ4cOsYu7cOE8RUd/TdlzZKfqzK1Ie6iPeTH/KGZBVzPEt852bdvR4MGDRBHYUmJrOX3adPL3rylsxGrW9Gf8DqB69eqLNMHBIyksfJtapQjLrbb6AjucJiw7/u23G2q0V8IJSphWrlhBxYoVEw3dvXsPDeQBZgaoMiEvAuVWAezismUrqGCBAiIaREvdosm0L7KFuZk7gurzGKs358yZKwiWTKt/fRMDWbJkpX1794jGQfaCSQ2BLVb0aDY96RgURGXLlqWFbMcEALfRg2VPnoInY0/VdKEdNjue53gRft5olqqcQWTnzp2ob59/5FHYBYwbP85ID3kP5D4ALKJluM8qeFonto9fsmxOaj9nz55Fi5cstRPWO7O9mjZ1KmHBx5YPBqFgOgCYa3369vOaCYfsb4IRJhg/1qhRQ9QDotKwUeN4a8owcKB6BeeEVUgVakvZkcodQbgXyqtCunQZxIqQPn16+vHHH2kis6GqXEt2Xv/6DgZOMwECQIV+7tw5MXawHapRs4aQ36gc1BbWbI1izVdCgquxV5XNUebMtilwwDV06hxkcPOQFy38dKFBoDoxMYKNEkDtA8QOZcuVd5B5rl37ORVmq3dATf8Agxtxt05VlhQeHsZmNuWFhvMXtk5HewCQ2dVgWRige4+ebON0WIRd/evWvSv17G5bHPCdKrA9lGoD5SpvXN4lCGEKHh4stlRoALZSgXXrut3oLZu3CBN6lFXrnXfo119/pRUrllPxYsURJSj20aNHaBYPFFiVq1yaSMD/QNSwHdi9Z6+M0r8+hoGvok4ImxiswHILr2q0IF8ZHMNxO9vmeLtLVmMPdWxYv55eeeUVUV37Dh0c5CuqXEe1u3rzzWLMrawQ+bBg1m/QQITVf+PHhRjbqv4D+tPevfvEa/fr/Mc+DMQQCgbMh4aNGhk2h5/xdrR06dKiHsxVyMviAlNY9vsOz0mA2QYqLvldpfE6YVLVu9CkBNYN5BXvjqs2uHynEiG5+sBYrH37dqyGDaWVK1cZq07dwHqsxbOxxrBujToRRUFBHYWQHOeCypX3c1mXfvnsMHD40CFDM4RWXLp8mRrx5JGg2vE4s+6H3FESNeR7+vSpMTZkOfH5tRp7yA95mDzHV4rlTFYghfk3b96k6jE7BxxFgcwVANlSi5atRFj99wEL+Fuz5howduxYQ0Pnbp0QieyPPKBWQWbbK1XtHx8bQGmig8L3cb/69etnV48nD14lTOqqBkLQoGEjweF40kDVuK5suXIuOS/JkqofHYMhgokUhIpNmjYxWG5P2qTzeh8DqkkJVvS69erZrdzSqBY1O1vVzdwytHl+FdxfjJyNvSOHj4itmlm8oGJFbk1V8we8lwQLO4ma/v5qFhGey3LRKlUqi3DrNm3oWz7aBfCkTmmKgXJu375FVavZtm14hnX3ya+ixPyIL74aMMcXwsQTsJdFLv0HDBBhb/zzGmFSGwnBHYzHIFuKDSBEc6Ytk1oTlGFlamAue8H8eeLsT1RUlHE6G0dijh87KlZSyXGZ8+nnZ48BdfyYuSXY4mxYv0FMHsigarMNjhVAqAsZj4TYuGR3x55qvd2PNcP79kXIKsUv5J/jx4eI8LcsL2vNh9clqNumVq1aOyhnJAFC+pKl3jY4Pk/qVImdmVtSDwZDBjU8eIRsqjgT6ErjtnnTJiEQR4apU6fRylUrjbyeBrxCmGCf8fFHHxmqTnT+CrPiVvANrwCqLRFWEBzYXLV6FUVFfSXM2nFwsz3LFJqxiYBUny7kffC8efOsijTipEAOK9mYMWMoMnI/QctQma1SEVfq7dLGhzYy6YDPYEBd2RcvXkLz+SaB/Pnz0ZLFS/lIRQbRTtgz4Z0VxJcwuTv2oPKXxoUwsOzXb4BhBgP50hRWyUutlVn2omoXIerAYgnZKNLD3q9UqVKia9BSQzspwZM6i/CxkTV8fASAeTBg4AAhu0JbZ86YacwxMyeK7SNkfuHbw2jXrl18MP8cPcU8YoI5lM/fScUTyoT8F8onb4FXCBOufwDljQucYkIU1KmTkVSyvEaERUDatli8sosCW4o9fIYM6e3i8WBeKRwS6IhnjgFwTZAlycXI3KCLFy+yPVtzp4tLfAmTJ2NP3eahnZjAAFXG5UzALQ+hiwz8D1oteVIfcZjoIBK410kFT+qETZjUwqllyvDnn6+lCXw/lApSrqXGWYXHc9lr+RoXb4JXCBNsM2CjEReI4v3su+92MZKqsgMjMiaAj71s2XJh9Wt+5+wZRwLmzp3LF9YVFh8bW8Cly5fyamSzgXGWT8f7Bgag3gZxkhwHWoWJCi67Y1AnDju/0TK+MiZPxl669OloXMg4vjqkqgMhRXtxSwaE184uMEQfQYjNRBiW7917dKdLly47fBBP6xw9apQ4XKzWibbC+BjyWTNA61a5chXD9MH8HnKysSFjxc7E/M7TZ68QJk8bActw3OT3Ur6XKFPmTHSd5Qi4UU+19Pa0Dp0/cWEA23lYQl+6fIkOHTpiHOr1di88HXu4bvaNN96govyHu4q++fYsC6zPuVTSqH2AUWX58uXo1+s36NjxY4bdkprGHPa0zpIlS4j5dvTocTZsPmMu3uEZRsxFixbhA7t56fnn09B/fvgPnTnzTZza6lBYHCN8gjDFsa06mcaAxkASwYAmTEnkQ+tuagwkJgxowpSYvpZuq8ZAEsGAJkxJ5EPrbmoMJCYMaMKUmL6WbqvGQBLBgCZMSeRD625qDCQmDGjClJi+lm6rxkASwYAmTEnkQ+tuagwkJgxowpSYvpZuq8ZAEsGAJkxJ5EPrbmoMJCYMaMKUmL6WbqvGQBLBgCZMSeRD625qDCQmDGjClJi+lm6rxkASwYAmTEnkQ+tuagwkJgxowpSYvpZuq8ZAEsGAJkxJ5EPrbmoMJCYM+CRhghseVzcVJiYE67a6j4HENA5y5MhBN2789q+NW1wWl4lva712/ZrbCM6VMxf9yvd0P31quxbY7YISIKPXCNOSxYvZCeCrLpsIP11wm2wF2bJlp6lTJtNr7IVU+uyC471V7DJ5DTs3cAa45zt1qpROrzB1lk/H+yYG3B0H7vSmNN+aOnPmLJdZHz9+RP4BAZZp4MVn6JChlDlzZnFFLq6pvXPnNt+4ecjO24hlZo7MkycPjRwxgl591TZvIiIjhfMMq/QFCxYQdRUuXNioD+lQ58OHjyg8PJwm8VW4uD/cGWCuTOJ7vXFbLNx8yyt24aUIVxe/2+WfK6+tyoC/Ozj4TB3jHrxps2bsDuq2VVKP47xGmMwXpVu1bMvWrTSK7x02Ayj3xo0b+G7hF8yvxPMn7LN+AXvMUKF48eLs4WGGcHeM+Pv379P06dMNB4FqWh1OHBhwZxx40jPVPZizcjDxVdf0Mt2H7IVHdcgp4+Xv999/T61at7EkFK+yF9+RPA/e4jGswpkzZ6kdO3K1gmZNm9LIkSOtXhlx8LoSUCtAuDozImMC8K+4jh0GgLNzBm+VKOHwClxr125dqGP7jnYOSZGwDrsYNztMcCjAzQivEyZQ7CNHjlk2Z/PmjZZuuvfu2SMoODLBldPGjZvYbU9+4WZcUvVevd+ngwdtHkWx0oSHhRkUX63MmZdWNY0O+yYG4jsOPO2FSpgw7q5du+5Q5P3792goe8dV4bXXXhOTHHEgXKtDVzPHsl2MWbg1whYLAC5meHCwCMt/qqdqGSd/YyNMI5i7usr34R8/dowuXrok7hivxYTojTeKGl5WVJfkslz8qrjFIh4RsY9OnjxFWbNnpYp+FQkLvRUBVv3cqeUhnKgIkzMPo+ZOyWc4KITbHQA8RNSuE2js03v16kVd33tPvFMRLt3f/PHHXerRs4fwZzV79mwqWqQIs9J/UJWqVUQe/S/xYMCdceBp71TC9MGwYcKzSVzKhNhC+n+bO28uLVr0mZEN3l0O8QKaKlVqsnK4Cc8j77APNgAce2InMHXKFPHsijC5ElnAM9Du3TsFcbLi8OA/blbMlhUOQ5s1b0bgrlRA+VayJuk5+K+//qJNmzaz96HXqVixYiLr/zRhWrBgPlWsUFF0dNjw4QQ/6hLU7SEQ7ufnJ2RJ0u0O5FVwKAjANmDHji9EOD7+10UG/e+ZY8CdceBpo90lTHJcYkzCW65ZUTNm9GjhJgnt6z+gv3AuKds6fNhwKlGiOLs9GsceSs6yI8+MtJ9lSwBXhEnmd/b7OTu0fJ0dWwLq1a8vHMfKtKoX34BateLlmHJ/ZARt2ryFXaLNE9tSlSj/TxOmSP4omfjj4COXLlPW2JNbsbyDhwyhnTt3Uti2bZQvXz4KC9tGwSNs++5KlSrTfF69rFYM+YH0r+9iwJ1x4Glv3CVMJ44fF37vwHVUrGRbVNW2NG3SxJClrt+wwalAG3m8RZiwoOfJnVs0oyJ7nr53957RJMn1QO7VrHlzI96dQKIlTCAM0ExAkH2XkfMza9Y28sfZvGWLJR6kW+jbd+5QVXYeCIBmZveunUKGhI8PLR0ATvmWLltGWHVatmwhiNCu3bvYv9Vv1KRxY0qT5nm6cuUKNWjYUKTHP/iR79KlM+XKlZP8KlSyZFeNxDrwzDDgzjjwtLEqYYIIIGXKFKLIGzdu0PkLF2gCe5i10jrFhzAdOHCQer/f22lTPSVMGTOmp+7dexguyzH3qlStZtSHubSH5whgOTu2PBV9ilq2aEXYOj958hdzVj+zTHdjnJVGiZYwGRgxBeCfvdO7ne0oOZJIag750ju1a4tcoaGhQl704MFD4YV3WIzwce3adTR+wngmWMlo55c7HDQM2Ac35tUK6s8+PBhqMduKvT4ABLMDuzGHWlSD72HAnXHgaS9UwmRVFhQ5UMGvW7fe7nVsWzl4vG3C4xCA7VrbdtaaNrx3hzBNnjSJCr5ckLIz0cmSJQuKEQCi1Pv9PnZjvHz58uyF+mPx/vDhw1ShQoWY1PY/p0+fFvPDPtbxKVESJthGXGaB3tVrVylF8pT0MpCXPbvRO7N7cHBC8I8OuMRahkbM9cC/OvysAwYNGsgypT/FFg3PERGR1LdfXwQFcRrQv5+QO6VhY7Nz58/RqZPRQpNXsGBBkQb/wE3BDgpukEGwNPgeBjwZB570RhImcOvgtG/dvEU5c+Zgu6LXKHny5KJoLGhNmzW18wq9dMkSKlmypHg/e/YsWrxkqdGMFClS0pHDB40F8ZerV8WYNhKYAu4QJrntVYsCx9eETQp+++2GGi04qaFDh9jFXbhwnqKjv6bsObITvB1LzffHTMA+iiFidhmUh0RHmGCsdoZXh8ePHyvdsG2lxo0ba3T+va5d6Tjv0QFZsmSlfXv3iDD2v1hZIGzDliw6Opp91QdR2bJlaSHbMQFA8Xv07CnC8h/cF5u5oydPntAxVqnOmTNXECyZVv/6Jga8MQ7c6RmIAmSV4GpUwPZo2bIVVLBAARFtFg8UYSHzGhY2A0C4VqxYQV/u3MVl5aUhgwfbcTHQgtWuU0ektfrnDmGaNnUqYfFNmzatMLOBJhCAcd+nbz/DrAZxnTt3or59bIs5nsH9jRs/DkEBcFEeykbMACzcZXi+uYJER5hcdSYkZCw1qN9AJDELA08zAQLgA547d45q1KghBOA1atZgWdVdOw5qC8upRrHGAyBlRyp39F82rw9lm5J06TKQv39NSp8+Pf344480kVnf8+fPi3z6n29iwN1xkFC9AcHYt3ev4JxAfMw2PthO1Y4RPZjbADOW9OnTicU4Nk2bO4TJXF+37l2pZ3fbgo3tZ4WKlQwGQd2BQNRRtlx5Bznr2rWfU2E+cQGo6R/gwHWp9f1PESYYb63grRRAtUfC81dRJ4T9Bai9ZJ8nT54ijNbwvl279jSYt3QAyWriaEvxYjarWeQ7evQIzZo9hyDHWsmrl7SzEJn4HwYWtoW79+yVUfrXxzDgzjhI6C5sYTV5gQL5RTW12Pbo119/tasS2rc+fftSxgwZBBECUYCh5sCBg9m4Mkyk3b17Dw2MGb92mWMevEGYUJRqHwUTGnn06803i7Gd4ApRGxbp+g1sDEJM9eJn/LgQqlevvgibzRvUdAj/TxEmmMHvYjU/AEZlqin/YT5XBJZUgvn92A8/pIYxWjZp1d22TVtqz6b7q1lIvnLlKmMFqBtYjzUpNjZ17759FHUiioKCOgohuZWxm6xT/z57DLgzDsythlJELm549/TpU2NsmNPG5VldADvxlgiW0s4AYxwcO6BUqZI8gZeIMLTI0CY7A28RJmkug3r2RURQv379RJU4ihLJzwDIllq0bCXC6r8PWLmEc3CAsWPHutTQ/U8Rpjq8x540caLouIo0RKxft844xAjOpm69eoTDuxKkMSWeA+vWtXsn08hfDIAa1avbfQB8mAgmUhDwNWnaxE6IKfPp32ePAW+MAzO3DK2uXwU/tzsntW8ooGy5csb2KLYCly1dykaUtnNnOPTqShPsLcLUgDmhECYqgL28Be0/YIDRTKnxdHYqYy7LYqtUqSzSt27Thr799lsjrzmQqAgThG+uNF7qB549ZzYtjllN0GkVoWZuqVChl2nD+g2CqMQmRERZC+bPo4q8v46KijJOSkNLcvzYUbGSxrbqoQwNzwYD3hgHONoE+xwJsXHJrsat1NihrAcPHjCBqyCLdfnr51eBPuLTDFgI4zJm40qYYI9k1ripDdm8aZMQiCNu6tRptHKV7ZgXnj9btIhKly6NILVq1dpBIaSeh4Mlu9XRFJGZ/yUqwgQtAQjCl2xbtHXbVhY0X6C/mY0uW66sMIbMmTOn6BdWsKrVqjoQMWlch0QgWvP5/FD+/PkYCUvZziODyGsmaCLS9E8KAcF5jRkzhiIj9wur28psCYu4Um+Xdol0U3H68V/GgKfjIL6ECZwEZEKrVq/ixewrcYwDh8fbs1yzGZsISDX6Qp7Y8+bNs8PG9GnTxfOSpUvEeC/Isqj6fBSkA3NIMp8UPdhl5AccwcqdJ5eITvtCWurfv78IYyv46UKbBhoRO1nTd4dNGQAwq4E8NXx7GO3atYvOfXuOnmJMMyHBwWGpBMI4hzxMbiuRV9Vsw2AZCzTksSDMsHGS5/6sbK6w4wgI8EcxAjp3epdy57a1fcHHC+jm7zdF/C+/XGOtuc30JyapRz9euV0AhCnAyZ01snVAGIy/5A0BMh6/WC0hS5IfVH2H8MWLF9mWpHmsRAUHEbGfzpAhvbkICmVbpkmsSdHguxjwdBzElzBJTaArjEj7OnOaTWwt/fLLL5ujjWcIv4cHjzCe1YB60l+NN4flESzEgzDJExDmdOrzeLYBXMvXm5hBHnyX8RDUYzchAfMTohLzNSaqVk+mtfp1tk20ShuXOK8Qps6dgqhnz15s0v9PR9XKoQ3ox8aQP/xwUY22C0MOBeIkbTLwEsjC/rxjUCcOP7VL7+wBJ63nzp3Lp6ALC8SDDV+6fCmvDP+sRM7y6vhnjwFPxkF8ZUyq/NLcc3Any5YtFycPzO/w7MxcACKN2awhVrdS5vyqaMP8Tn0eOHCAoUmG1q1y5Sp81Ot5NYkRBmEYy2Y52CU4A8wvEH8zA4BTF917dGcj58sOWdUtrcNLJQIcGg4Iewu8QphkY3ABVqFXCrEW7EVxy903zG5+/XW0wxULMr3VL1hpWKNeunyJbwI8YhzqtUqr4/53MfBvjQOc6cSNji/le4kyZc5E19meLvp0tMtFVGIdHIwfH/nI99JLdOvWLVayRNKt27fk6wT5hUFx0aJF+MBuXnr++TT0nx/+wyY437iUP5kbAqPK8uXL0a/Xb9Cx48filddcVkI9e5UwJVQjdbkaAxoDSQsDmjAlre+te6sxkCgwoAlTovhMupEaA0kLA5owJa3vrXurMZAoMKAJU6L4TLqRGgNJCwOaMCWt7617qzGQKDCgCVOi+Ey6kRoDSQsDmjAlre+te6sxkCgwoAlTovhMupEaA0kLA5owJa3vrXurMZAoMKAJU6L4TLqRGgNJCwOaMCWt7617qzGQKDCgCVOi+Ey6kRoDSQsDmjAlre+te6sxkCgwoAlTovhMupEaA0kLA5owJa3vrXurMZAoMKAJU6L4TEmzkXDHFNebS72JIVz8f//eXXZP/8ibxVqWBbdP9+7dEw4PLBM4icRNr5kzZ3bwdeckuV008JqTL5y7zn7y3MFvOnbmmSJ5Crp9+7Zdud588Aphgl+quoF149Sua9d+sfNtBdfiM2fOcpn38eNH5O/kTnHc8506Vcp/ZRC5bKR+6RUMgChMnTKZXmPPsLghElfcwp3XKnZjvYbvbU8o6NLlXWrSpCm9mCO7cRc2rnbGnd+DBg+yvNESExzOIsvzLZZZsmQRTfv9999p//799GGMKyVze+Ewo5Z/LXqJb71Ur5GW/Rw1ehSdOhVtziba1KplS2rZsoVwBiDv60YbcX30uvXradas2U4JTerUqWnEiGCqzY4KUqVKbZQPTzLbwsL5PvzJLm+LrcAOFAYO6E958+ahNGls1/ui7hs3btDMWbNo+/btRpneCHiFMH380Ufk5xc3/103b96k6uwGXEJc7hQGAswumuHdd+aMGZQtWzZR1P3792n69OkunfXJOvWvb2IgV85ctHHjBr7X+gXLBn7y6ae0gD3oeBNAXObPmyO8/Dgr18oJJBbEtZ+vMXwimvOe5rvq4THFDJGRkZSJ3Y+7AulxWk0TF4cfIIq1+e58sys14HMXe1xx5cwAef0Dalk6/Ajq2FE40DTfFS7bd4i9o+DOf2+CVwhTI/aU688+z53B668XpuzZs4vXG9m7hLqaqIQJrnSuXbvuUMz9+/doKHNlEvLkyUPhYWEOl6rjvTOXOTKv/vVdDKjeQzAWNm7cxG688lOLFs2Nb92r9/uWnnbc7ZV0kor8WAAPHDhIx44do2TJk1HJkiWpcqVKNH7CeNq0abNdFWq+O3f+oNBQ9ghNf1NQhyCDsG7evJlGsxsxFUCY0qRORadPnyG4S/rp5x+Fu/vKlSsbcwTtaNO2rZ3jSbiL8vevKdp4it1OfX3mDF3me/GLFysuPFVLD8THjh2nrt26qlUa/hYRCRdq4dvD2dXal1SPvaJg/kkOyMqzS7269Wn8+BCjPBDcI4cP02+//0avv16EAnjenz37NfXs1dtI442AVwhTbA1RfcDDk4Lq80olTB8MG0ZffPFFbMWRdEXzxx93qUfPHqK82bNnU9EiRdgP1x9UpWqVWMvQCXwLA3BUCfdLAHjtqF0n0NiW9OrVi7q+9554d4YnZLv27UXY03/gIA4yIQInAC6jQ4eODs4gwRmZHUCCy4o6cUxsr+AGKbBuPUPWU7BgAdocQ8SsHG5CPnPv7j3Lpoewl5MG9RuId+s3bBA+EWVC9D937tw0bfo0B+ceRZhAhIauFv2w2l2oDi379O1j50mlPtc3jusFWLlgkp5kUO4E9qZt5RrKCkey3e7+JjhhgnBv186don1w41Sf3ceo4A5hksj6dOFCmj9/vigO24AdO2xErUTJUsagVuvSYd/FwAL2XgtHkIBhw4fbySxUd0eYIBAbeEMwHTw8WHBjqHPy5Cm0mid3XKBpkyY0atQokXQvu5+XDisRMXXqFKrFWyIJ/Vkus3fvPvno8hfc4dYtW0Sab8+do9atW7tMr74M27aN8uXLJ6Kat2ghHFrK99JFOORYpVimqwKI7KmTXwmiBiL7dukyxutSpUqy09kl4vn48eP0Xld7TsxImACBBCdM2J83jCFGcDgJx5MquEOY5EcIC9tGwSNGiuIqVarMsoK5gtU1y6PU+nTYNzEgZS8gPKXLlDUEsT179qRupgmhOoL0pDdYMLFw/vXXX1SmbLk4L2aqTFX1/fbGG2/Q6lWr7Jq0c9dOGjx4iF2cswe4F//4I5sM7cSJE9Qlhkt0ll6NV3cljRo3svMRd+zoEbFdA24rsVdqeOOVAGXDnt27xCN2IJWrVJav7HzntW7Txm5raSRKoECCEybJRoIalylb3oEtVgkTtmEpU6YQXYW0//yFCzSBPYua1ZLDhw0X2gkgehcjFSxok8aNBfKvXLlCDVjmJQF75C5dOlOuXDnZ/3wlh/plOv37bDEg3YPfZpfYVatWFY3BpNnNExtbLUwmKbyFfGfpsmUeN1iOze+//5695gbTu507U5kyZXgcpRFbs6PHjtKUKdMcCNbatZ9TYdYaAsBhYGwDJGenthXyoKBOncR7V/+gnZ4xYzplzJhJJBvz4RgHuZar/BJ/ILKluQ8qQJgO/3cAcIXgDiWo20e4Hh80eLB8RcuXL6e3WMmEMmv616Ae3XtSJZa5Zc2aTfjPu8Dz80N2ommen0YBHgQSlDDVYnnS1Ck2JBw5coS9ffZwaKpKmBxecgQ++iT2Qrpu3XrjNdjPnV/uEKudEckBILAxs9mQF/R5vzehfqkaBRHrwNoFePbV4HsYkNsNyJfeqV1bNDA0NFTIDSGwnT1nNg2LUYCsXbtOCKQ97YWs88J3F6gQu/uWKni1XGiR27RpS9euXzOipSgBY0py56ocrG279iwvWyHSmxdKWUjJkiVoGMtUU6VMxVuwvHZ1R0VF0btdusiksf7CXKd1q1YinRUhzJQpEy1dsoQKFiwo0kD2dfHSZXqlUCHDZOE2O+qsW6+eHTcFE4A8LNcCJ4U84C7NgDk3cNBAO7mVOY07zwlKmKBOLVz4ddEufKyzZ884tFESJqyU+Ii3bt6inDlzsBr2NZKaBgyAps2a2tmSgDgNYLfjkDdghTt3/hzvlaOFzEB+AFQGbgr2L8uY+pvVqA6N0RHPBAPghA4dPCTqht1QI+Z+AwMDaSJzy4BBPPAfPvpTbNXxHBERSX379UXQbYAKHdolFaAyP3DgAD2XLBlrm/wN7Rq0Z23btTOSoq1os5TJYMLuZC0XODtMZsjIJNEzm8fIQpo3b0YjgkfIR+PXSjNmvLQIwKsuto+oW3I2d+7cdUgJoottIjhCM4BjbM8KBbPc7sD+A5QhQ3ojOebP7t276cHDhywPrMC7kFziHYiWt3cjCUaYQKUjWDAIhN25c5s1ZdWMDqqBjGzTAaEdPr4KGTOmZ9/xK6hggQIi2tnKA5fJZu4IQj6ofOfMmeugZVHr0GHfwECWLFlp3949ojGYJCAC+yMjxNY8OjqaOgYFUdmyZWkh2zEBDjNB6cGyJ09ArRPlXL58RRBEaQkNwoWtmbSpatWqtTGW5BYQhADbps/XhArVOWzpMM5BsCRhUremanshWIbwPXmKFMKCW7VtguaxQ8egWMUOmCPbw3cYW9zhw0ewKUCYWo0I58mTh1azgaqsA+178OARpU37grH4g2Nq3qKlncZc9hOF/PnnY+ZkA+nmzd+N8kO5TBBGwGIWkoOr9RYkGGGSciA0dNXqVbxXnxrvNoNo7du7VyBPZZtRkJQdqdwRzBCgNk2XLoOw+UifPj1BEziRhe7nz5+Pd/06w7+HgdNMgADXrl2jc6yRqsFGuJhANWrW4IXtrh0HtYU1V6NGj/a4cbJOFNSSt0LmMdK3bz/q3ClI1INJh8kHkLIkjMng4JEsBx0n4lUbK1n2L1eviraLBC7+QSO3iLXMcrsU23YVVuOw5ZPpIeoYN97WDnM1O9gER3I3qowJu47x48ZSXTZ3AIA4N2z0j3xWtStbxjK9GSzbU+HVV16h9WxxDjh9+rQQlajvPQknGGGS7C4+XtVq1Xhw3XGrnaq2oRab0//K53tWrFguDMtQILijo6x1mDV7jlCRrlyxgooVK2ZXF9qA7cDuPXvt4vWD72Dgq6gTQs6C7ym38KoKvx2LAgbzNwRYWUa705OTX31luejJsqSmF887duwwjHw3b9pkyGvASUCOqarTYat0iO2jAOZtoIh08k/dZVjZQMlsICib2EJeLsowCu3NMlUrAEcDzgZw6fJlatSokUMyKTPDCxCpn3/5WaSBgajcsXTq3IlOnjzlkFdyhmAKYKPoLUgQwlShQkX6iO1SAGDNmzVv7nZ7VSIkkdOWhZHt27djDUMorVzJFrdPn4jy6wbWM1Yv2JdEnYiioKCOYlVx9aHdbpzO6DUMHD50iLcWaY3yzJNoLGt/GsZoW51Z92PCSqKGgp4+fWqMDaNgJQAZE7ZqkJ2U4a2iGd58s5ghxFaPXXz22SIq/XZpIzm2dNWqVzMEx6raPzJyP8GoMa6gcjfO7PHUxTc2g1PMlSFDbJo2Z1zYZN5R1I5ROIADDAvfJpoLgTms3wFNmjaxk/GKSP4nibsrcY1MG5/fBCFMKjFxNoji2kjJNiN92XLl6PHjx06zymMCFy6cNw4Kq6uQM+Q6LVC/+NcwsH7dOuPcGThcaIhweFeCuqoH8lEK9Z1Mo05YxEGb51fB+RnObVu3isO0SFuy1NsORKwB29+FxBzGVcURA/r3p46s4ZUAW70NfNRKAoT2EN4D1C2gfO/qNzJiH2XKlFkkAbE0K2xU1T8UBY354LGUi1mV+x5r93r3tnFT5uNgMr1qFDqdz5/CTAAwYsQIat6smQhbncqAxTeMMwEXL14UGnHx4IV/XidMWIGw+kktgdmmwtxm7JXNyJdppMYOzzhB7ceaAFewYP48cRhTVbdCG3Gc7VGwkkqOy1UZ+t2zwYBKBMzcUqFCL9OG9RvEmIIMCgdVrQBHWnC0RUJsXLK6Pfzss8U0Z+4cmVX8qgusKliG0DkyYr9oD+Rg5cpXEPIwZMJ4g+Ae3B8IbDm2H5KL6fOsPU6eIrnBWdlVxg+4peATtjkCWLV9CpvevBOzXQIe6vFxEtTvCkq8VYKVSEtFEtUUQ80DOa68HUGVtUGxBG0j4DxrvVuyAkAFlejti4gQB33V956EvU6Y+vbpS515Pwowm+tbNRR7VBzYxIoUFfUV/fTTT+LgZnuWKTRjEwEQOMDCRYto3rx5VkUYcbhSomf3nmJAjBkzRthWhISEUGW2dsUgKcXst9z2GZl0wGcwII0E0SAImufzTQL58+fjYxFL2fAwg2inKw4kvoRJXbQwPkaOGk3btm0V9YDLwMQDgEhUrFTFjgioHB4Ev3362swX5jJxw8FagFkg3K5tOyHrhNxpzZq1FB19SshzcJyqdetW1LZtG8OeybwFVLk0tBVXjfzpZPcAcwppdwWu5sTxo0a5kEfB7gjEEoQSV6WUL19OtNeKGG4PD6c8efKI9+C4xoaMExwaDh3PmjnDKFfVWorEHv7zOmFSWdFmzAZ+z0THFUjthas00rbFVRq8w0eIZMqt2l7IPDgKgyMxGnwXA+CaIEuSi5G5pdguNG3W3OniEl/ChPKhdYP2TQImPUBtAxY3HKpVAVzcGpZxSgNe9R3C2EbC9u4qa+UkgDAN5rudYgOYGMA4WHJaSL9u7Vq+o+q12LKK92bLeNUmTBYAuVjKlCnlo/i1OtdXkg1BoS0EEQcAP5DdqbK8/Wzv9H6f98V7b/3zKmFS1YdWJ5WtGq3KDszvoaFZtmx5vOwjMvP+fO7cuVSkSGGBTGwBly5fyiyyzQbGXId+9i0M1OFtGoiTeokaJgMs9jsGdRKrtbMWx1fGJMuB6cmYMaMcJio0bsPZWHLXbpuNlUwvf2F/BwtveYxExmPs42wZNFUqYJJPnDCRDYhz2hE+mQb93Mnn98aGjHXY7qnGyjK9s19VTiTTgNAF87Ebacsk4/GL9o5ibhECfisAEV6yeLFDP9FeGC6DEHobvEqY3G0c5FJv81mhl/K9RJkyZ6LrvH+OPh1tqQVwtw6dL3FhAHY91dnM5BLfOXTo0BG7bVRC9QRbqmrVqvKtSkQnThyP8/iDvV2tWgHcxv9jIrbb6bUmst3g7IuzSUs+vsUyd56cdPP3m3xA9hxduPBdgvczb568VPyt4lx3XrrCdktff33GjquTbbT6hRlElcpV+FreHGw6EC3uhEoo0YhPECYrJOg4jQGNgaSLAU2Yku631z3XGPBZDGjC5LOfRjdMYyDpYkATpqT77XXPNQZ8FgOaMPnsp9EN0xhIuhjQhCnpfnvdc40Bn8WAJkw++2l0wzQGki4GNGFKut9e91xjwGcxoAmTz34a3TCNgaSLAU2Yku631z3XGPBZDGjC5LOfRjdMYyDpYkATpqT77XXPNQZ8FgOaMPnsp9EN0xhIuhjQhCnpfnvdc40Bn8WAJkw++2l0wzQGki4GNGFKut9e91xjwGcxoAmTz34a3TC4Y3LlASShMJQtW3a6f++ug8vshKgPfczJl/5fZ3+J7vQVl7elSJ6Cbt++Ha/mPSvcxrWRmjDFFVM63b+CARCFqVMm8/3WhYXra1yvDFdNq9hp4xq+tz2hoEuXd6kJu0J6MUd2u/utcd/8IL6n+4cfLjqtujV78W3foQOlZo8/gKZ8170rQpE6dWp2jRRMtdmBq3pnOJwBbAsL57vpJ7u8yRJ+GwcO6E958+YRbtRRJ665vXHjhnBSsH37dkQ5APzdDejfjwoUyC/qRX2X2QnmxImTxY2xDhlMEfHtpyl7vB41YYoXunTihMQArrbdyB5mcdWyFXzy6ae0gD2neBPAOcyfN0e4/XJWrtlvHNIhX9duXahj+452jjrxrg77lFOdECBOAvq2a+cuQXRlnPn3999/J/+AWpZOF4LYn12/fv0s7wxHOapjTrXcGjWq04zpMyzzgah17dZNeBNW8yDsbj/N5cT3WROm+GJMp08wDOzds4eyZs0qyodLr40bNwlXXi1aNDcmVK/e79PBgwe81gbpJBUFYoLCvdGxY8coWfJkwgtt5UqVaPyE8bRp02a7Oo8cPsIE9Hm7OPngijBJ34dIC08q4dvD6Uv23VaPnXjCj2KaNLYyw8PDaHjwCFmk+IXThPHjQ4y40+ygAd6Ef/v9N3r99SIU4B/ALsm/pp697N2F405yeA+Snl/gVu3IkSNUrWoVgyCDM4XfRtUzCypyt59GI90MaMLkJuJ0Nu9iAI4q4X4JAMeMtesEGjKXXr16Udf33hPvYnOJLRLF8V+6dGnpIBMiTFg4Xe3QoSOdY8eOKsBxgNWF+/CHiHxwgwSiVaTI61SMHQwAXBEmdaLDdTj8x0mozw4sx7GHFICVlyHpUQgEdMLEibSWXTqZwaq9cBEOV+GAHTt20NAPPjCyhbILqqJFiojn+fPn06fsqkkFd/upluFO2CuECQMHnjz37tkrnFQW4Y5+9933BM+hL6R9gfoz61mwYEG6eOkiu8MJdth/Y4Bgf4/VKXuOHJSW2d1rPDjPnztPW7dt41XgjEPf4KL5JfYy8fTJU5o2fZoDpUeGxo0bsWdW22BZtHCR4QTQoTAd8cwxsGDBfKrIshPAMHaZpMpJVDfxmJR+fn5eEUwH81gENwaYPHkKrQ5dLcJx+Qdvu5s2b2FXYfOEPAjujUqVKiWyuiJMcqKDQynFnoFUwLYJLrdB8OBh9+3SZYzXpUqVZBdKS8Tz8ePH6b2uXY13sQXQVriYAu5Uz8CQ5+3etdPgpOBuKiDG068s091+yvzu/nqFMKkeVNWG/PHHXRaypTDYU7wzdx4+qzZu+Mfvu5pfhpctW0YzTL6renTvRt279xBJor6KonfftXlNlXnKst/3hSyTAMCBYM2a/i4FijKf/n02GIiMjBQ+zzB5Spcpa3yrnj17UjfTJBw8ZIjwv+ZpS3exD7ccvBCC6ylTtpzBoblTblwJ07GjR8R8QD8rsYfoe/fuG9WBUOzZvUs8Y+5UrlLZeDeZnbXWrl1bPMNn3bfffmu8cxWAf74TTMgA5rkXygqFokWL2mV/q0QJu2fzQ1z7ac4X32evE6YrV65Qrlw57bQN8LOOfa4UatauXcfgXorw3njNmlDRbiDux59+pF+v/0rwmw5fc3JfbOUifOWKlcw+23zVT5kyVbgZR0HgwLDKYr+OAdC8efNYPQLHF3E6vXcxIBc3LCJVq1YVhasrOiYwvivA7GlWRLrxT26rvv/+e5bnBNO7nTtTmTJleNykoV9ZfX/02FHm+qfFiWDFdcJ+/PHH5Fe+vGgtOLTJzKlJCOFtXAPezgF27drF2sDB8hUtX76c3ipeXBDRmv41qEf3nlSJdxhZs2ajW7dvsU+6C/QhOwo1awPVhR9ype49bIs5HItO4u0g4P79+4YAvyr78jOXYTSCA3Htp5rHnbBXCZN05Q1f5/B5DoCqN5AFexkzpqf9kTah5dSp02jlKps8AYMvOHg4zZgxg3766Se7PmTJklWwmnBHjIFZsZKN1ZeJQOhAgPALAtS4SWO6dOmykFVAZgFQ65L59K/vYUBucSBfeieGM5DyDwiJZ8+ZTcNiZCNr164TAmlPeyHrvPDdBSr08suGmYBa7s2bN6kNy2euXb+mRjuE4zphM2XKREuXLBGiDRQClf1FHrOvFCrEi7nN3OA2E5q69erZcVPY2ubJnZvASSEPOD0zgPMbOGigndyqevVqNGvmLJEUZWCbjHoO7I8UC/fZs2fpzp3bhhC8Y8cgl6YDce2nuW3xffYqYfqSWeMhzGYD5EeHcA9CPsBXUSfEx//ss8U0Z+4cERfbP/hNxyoGsGIzi/Mqspy3euCsMIgwmCHzApw4cYK6xAhNRYT+55MYACd06KDNPbVc3AJZ5T5xwgTR3kE82R4++pPV+nPFc0REJPXt19ejvmAxg0ZLBajpDxw4QM8lS8YaLn+Dw8fkbduunZrUIRyfCZsiRUr6+KMFxrhWCwP31r59ewcZ2oH9ByhDhvRGUgjrd/Oi/ODhQ5bNVeBdSi7xDkTLr0IlQ2Dfrm07Gsx2WADJoU2fNp38/WsS5FwQcQwaNIDq1asv0gQHj6Sw8G0ibPUvPv20yh/XOK8Spk2bNtEYZicBkgiFM+cENhmAvS6o9foNGygk5B+1J97BgrUFb7kgJIc9S+o0qRHNAu78hr/18swCP3z0SMSr/6zkEHfu/MG2IP5C26Km1WHfwwA4431794iGYWKCCEDoiq14dHQ0dQwKIlVmeJgJSg+WPXkCap0o5zK7y27UuLGxbVO5cbxv1aq1g8YO8RLiOmGxm1jNsp1MLNoAQMj94MEj3kq9QNgZAMAxNW/RUsiERAT/k9tOPP/552PmKgN5If5dviZVXrSYheTgMAGdO3eivn1sRBzbQTAPUvs5e/YsWrxkKY0ZPZoVRY1FesxLzE9nENd+Ossf13ivEiZJkVG5FRGSyFWJFdJib12fKbaUJyHOCqpUrcxs512rV4JTkmpPbOtatGzJmsHvLNPqSN/DwGkmQADII8+dO0c1atQQk7ZGzRrim6sc1JYtW2gUTyZPQdaJclqy9fb58+ftiuzbtx917hQk4jDRMeGdQVwn7I4vvjC4G3W+QCM3ftxYqlu3nqgChLJho4ZGdaqNl5Uy6NVXXqH169eL9KdPn6YOrLUGqLIk2EaVK1eesmXLRr9cvUrAKUC15ereoyfbONlzkiJRzL+49lPN407Yq4Rp1epVLCycKtohCdM6Rta4ceNEnBVhGj5sOLVs2UK8B0HBivnjjz+xJu22iIOgEKsMwJVgbuWKFYYdCcpp2qypy2MEokD9z2cwIDlsbC8k5wDBMCYvoF279jSYt3QACJA/4j9P4eRXX4m6MF5KlCzpUFylSpWN7aPZ/secOC4TFhowcDaAS5cvU6NGjczFkLRVwgsQqZ9/+Vmk2bx5MxUsUECEOzEXdPLkKRFW/0nxiap9U+3DIINKmTKlkMc25LqhqAJ8tmgRlS5dWoQhD4Zc2BnEpZ/O8sYn/pkTJknAgDQgy4yUTz7+hMqXLyf65IwwwfhOypVk5yHQq1EzwFA7y3j965sYOHzokKEZQgvNE3csiwgaNrRxECNGjqJt27Y6dARchyRqePn06VND1uKQmCMgY8KWDfKaMmxeYgbYwK1auUJEOzvqIfPEZcLCyBHGjgBnAnzVLECV90BgXjKGeDZp2sRy0ZWEFmO/StVqoh5V6SQi+F8onzmcxOYHEqRgHc8lSpYytrPyvfobl36q6d0NM2F6+W93M8t8USeiBCW2cUw29eeJ4yds8iTmmELG2eRJRw4f5YHwPNm2csMpU6bMwlQe5eyLiOAzQLa9sCwXv1/u+JJy5swpomyE6Zb6moqx9m0Fmw1gGwjN3bawbYTDhoCjR49Rt+5d7dLrB9/EwPp16+nVV18VjQMHU7ee/cqtjoPAuoEOCxgy2sxHihkdhDbPr0J549kc2LZ1mzDSRXxJNo40W3g3aNCAQsbaxq46ts3l4BnGj/8YWNaxPCv3Xpf3qHfv3iL7xo0b6cOxNnmsWt7UqVOpFp+TA0xnTfXy5ctEeOSIkWy83EyEPxg2jL74YrsIy3+w+D518qR4vHjxotBQy3dyfuIZ8ivMIwnIB4KG+RMbvpAnLv2UZXvy+0wJU7p06QxtDNjKBg1tNhyyQ+XL+9EnCstuJkzPs3B0D5+vSps2rWBP27dvR2dYg7KZLXIl22uzb7KZJshy9a/vYUAlAjZuycYdoaWFWJW+Yf0GMXkgg6pdx2ZoaO7FqpWr2NLfZiaCd9BQwdLZGbRv14E1UrbtoU1TbBMYy/QrWDxQvFhx8YgTC+Hbw+Qrh9+4TNgSb5UgyIcANrOIdxzK2bd3nzhFgRctW7U05F4vvpiTdvKZOsB5PjYDmZgKKtEzL/Jz58yjKjHGmjZuaaKRFYeC+/cfIJ5t5/NsiiojgSkQl36asrj1+EwJE1osOSuEx7N6GCsJNBU1alSnKZOnCk4M7wBmwrRyxSrDwFIdWODEdrOBmtxPN2/eTBtY2lDo0//VlR2C5vl8TCV//pd4lV7KdnAZRNttQujFlv2IL2GC2v44H9jF9g9c2shR/2wRwdlgsgNA4CqyvAnjUgLGWABrfSV07vQu5c5tU9l/xKYAv7PpCuCXX67S4cM2UwhwJyeOHzPspWCaALsjHJzFIjtr1mwkTlieAAAC80lEQVRDbGFFVLeHsy1TjLwV8yQkZBw9/fsJVa5chW2VZhjltmKipZ75sxkx266MQT8HDOxPe5kAVq9enWbOmGkonaw4UXf6KXHiye8zJ0wDBwzkw5MdjD4AcZANSFkBPpA8ca0Sph58HKV79+4iH06iQ9itAgjbzBk2wzJYE2MQQZagwXcxAK5p7IdjjYlibim2KLjryLzlkuniS5iQr3MnVqez9k0Cxh9A1RBDa2xWoQcG1jXsrGReq1/bYdyaxiurfFIobSTiQP8B/QTxUONKlixJsOsDQQWY5wri9rO90/t9bNtFPEuYOGGioYWTcerv55+v5YPB49UoEbZqr0MijjD30ypNfOK8SphgJzF9xnRRv02onVqcgMa1EQCbVu4FCmM5UPCIf650mDB+PCOtrt1gANK3bt3Kq9VjQ2uHowrQ1uXPn5+28HYNgwfEJiAgwNDiiYpi/qkfw2aU10d9rcM+iIE6dQKZOH1oWEGjiRgLX/MVH0FBnQSH4KzZ8ZUxyXJwnciYMaPtuHO8g73QcLaU3sWGjGbAubXJfKFbbGDTkAXYJavFB2WD+UoTacukvsQEHzVqNN+rdFCNNsLY1kIAjUO5KgBHy3j+zWTOyRmM5nJhr6QS3djyedJPZ+2IS7xXCFNcKootDVhGaN/y5c0nLLajT0fHlkW//x/GABaf6iykhbzp0KHDdtuohOo2DHurcZ2YrCf4lMIPP/yQUFWJcvPmyUvF33qLXsqXly6zjBXE19kFc+aGpE+fXmzhcr6YQ5gOfH3mjFNO0pwXnBfOoUI5dPbsGfNrn3j2GcLkE9jQjdAY0BjwCQxowuQTn0E3QmNAY0DFgCZMKjZ0WGNAY8AnMKAJk098Bt0IjQGNARUDmjCp2NBhjQGNAZ/AgCZMPvEZdCM0BjQGVAxowqRiQ4c1BjQGfAIDmjD5xGfQjdAY0BhQMaAJk4oNHdYY0BjwCQxowuQTn0E3QmNAY0DFgCZMKjZ0WGNAY8AnMPD/7Tl0oPbZGQIAAAAASUVORK5CYII=;" vertex="1" parent="1">
          <mxGeometry x="425" y="32" width="294" height="298" as="geometry" />
        </mxCell>
        <mxCell id="e7r8Hhf1rWDUr8E3D0WA-5" value="" style="shape=image;verticalLabelPosition=bottom;labelBackgroundColor=default;verticalAlign=top;aspect=fixed;imageAspect=0;image=data:image/png,iVBORw0KGgoAAAANSUhEUgAAASYAAAEqCAYAAAC4Bv2hAAAMPmlDQ1BJQ0MgUHJvZmlsZQAASImVVwdYU8kWnluSkJCEEkBASuhNEJESQEoILYD0biMkAUKJMRBU7GVRwbWgIgo2dFVEwQqIHbGzKPa+WFBR1sWCXXmTArruK987+ebeP/+c+c+Zc+eWAUDjOE8iyUU1AcgTF0hjQwKYySmpTFI3QOCPDqjAm8fPl7CjoyMAtIHz3+3ddegL7YqjXOuf/f/VtATCfD4ASDTE6YJ8fh7E+wHAq/gSaQEARDlvMblAIsewAR0pTBDihXKcqcRVcpyuxLsVPvGxHIhbAVCj8njSTADolyDPLORnQg16L8TOYoFIDIAGE2LfvLyJAojTILaFPhKI5fqs9B90Mv+mmT6oyeNlDmLlXBSmFijKl+Typv6f5fjflpcrG4hhDRs1SxoaK58zrNvNnInhckyFuEecHhkFsTbEH0QChT/EKCVLFpqg9EeN+PkcWDOgB7GzgBcYDrERxMHi3MgIFZ+eIQrmQgxXCDpFVMCNh1gf4oXC/KA4lc9G6cRYVSy0IUPKYav4szypIq481n1ZTgJbpf86S8hV6WP0oqz4JIgpEFsWihIjIaZD7JSfExeu8hlVlMWJHPCRymLl+VtCHCsUhwQo9bHCDGlwrMq/JC9/YL7YxiwRN1KF9xZkxYcq64O18nmK/OFcsEtCMTthQEeYnxwxMBeBMDBIOXfsmVCcEKfS+SApCIhVjsUpktxolT9uLswNkfPmELvmF8apxuKJBXBBKvXxDElBdLwyT7womxcWrcwHXwYiAAcEAiaQwZYOJoJsIGrvaeyB/5Q9wYAHpCATCIGjihkYkaToEcNjHCgCf0IkBPmD4wIUvUJQCPmvg6zy6AgyFL2FihE54AnEeSAc5ML/MsUo8WC0RPAYMqJ/ROfBxof55sIm7//3/AD7nWFDJkLFyAYiMjUGPIlBxEBiKDGYaIcb4r64Nx4Bj/6wueAs3HNgHt/9CU8IHYSHhGuETsKtCaK50p+yHA06oX6wqhbpP9YCt4aabngA7gPVoTKuhxsCR9wVxmHjfjCyG2Q5qrzlVWH+pP23GfxwNVR+ZGcySh5C9ifb/jySbk93G1SR1/rH+ihzTR+sN2ew5+f4nB+qL4Dn8J89sYXYPuwMdgI7hx3GGgETO4Y1YW3YETkeXF2PFatrIFqsIp8cqCP6R7yBKyuvZL5zrXO38xdlX4FwivwZDTgTJVOlosysAiYbvhGETK6Y7zSM6eLs4gaA/P2ifHy9iVG8NxC9tu/cvD8A8DnW399/6DsXdgyAPR7w9j/4nbNlwVeHOgBnD/Jl0kIlh8sPBPiU0IB3mgEwARbAFs7HBbgDb+APgkAYiALxIAWMh9lnwXUuBZPBdDAHFINSsAysAmvBBrAZbAe7wF7QCA6DE+A0uAAugWvgDlw9XeAF6AXvwGcEQUgIDWEgBogpYoU4IC4IC/FFgpAIJBZJQdKQTESMyJDpyDykFClD1iKbkBpkD3IQOYGcQzqQW8gDpBt5jXxCMZSK6qDGqDU6HGWhbDQcjUfHoZnoJLQInY8uQSvQanQn2oCeQC+g19BO9AXahwFMHdPDzDBHjIVxsCgsFcvApNhMrAQrx6qxOqwZXucrWCfWg33EiTgDZ+KOcAWH4gk4H5+Ez8QX42vx7XgD3opfwR/gvfg3Ao1gRHAgeBG4hGRCJmEyoZhQTthKOEA4Be+lLsI7IpGoR7QhesB7MYWYTZxGXExcR6wnHid2EB8R+0gkkgHJgeRDiiLxSAWkYtIa0k7SMdJlUhfpg5q6mqmai1qwWqqaWG2uWrnaDrWjapfVnqp9JmuSrche5CiygDyVvJS8hdxMvkjuIn+maFFsKD6UeEo2ZQ6lglJHOUW5S3mjrq5uru6pHqMuUp+tXqG+W/2s+gP1j1Rtqj2VQx1LlVGXULdRj1NvUd/QaDRrmj8tlVZAW0KroZ2k3ad9oDPoTnQuXUCfRa+kN9Av019qkDWsNNga4zWKNMo19mlc1OjRJGtaa3I0eZozNSs1D2re0OzTYmiN0IrSytNarLVD65zWM22StrV2kLZAe772Zu2T2o8YGMOCwWHwGfMYWxinGF06RB0bHa5Otk6pzi6ddp1eXW1dV91E3Sm6lbpHdDv1MD1rPa5ert5Svb161/U+DTEewh4iHLJoSN2Qy0Pe6w/V99cX6pfo1+tf0/9kwDQIMsgxWG7QaHDPEDe0N4wxnGy43vCUYc9QnaHeQ/lDS4buHXrbCDWyN4o1mma02ajNqM/YxDjEWGK8xvikcY+Jnom/SbbJSpOjJt2mDFNfU5HpStNjps+Zukw2M5dZwWxl9poZmYWaycw2mbWbfTa3MU8wn2teb37PgmLBssiwWGnRYtFraWo52nK6Za3lbSuyFcsqy2q11Rmr99Y21knWC6wbrZ/Z6NtwbYpsam3u2tJs/Wwn2VbbXrUj2rHscuzW2V2yR+3d7LPsK+0vOqAO7g4ih3UOHcMIwzyHiYdVD7vhSHVkOxY61jo+cNJzinCa69To9HK45fDU4cuHnxn+zdnNOdd5i/OdEdojwkbMHdE84rWLvQvfpdLl6kjayOCRs0Y2jXzl6uAqdF3vetON4TbabYFbi9tXdw93qXude7eHpUeaR5XHDZYOK5q1mHXWk+AZ4DnL87DnRy93rwKvvV5/eTt653jv8H42ymaUcNSWUY98zH14Ppt8On2Zvmm+G307/cz8eH7Vfg/9LfwF/lv9n7Lt2NnsneyXAc4B0oADAe85XpwZnOOBWGBIYElge5B2UELQ2qD7webBmcG1wb0hbiHTQo6HEkLDQ5eH3uAac/ncGm5vmEfYjLDWcGp4XPja8IcR9hHSiObR6Oiw0StG3420ihRHNkaBKG7Uiqh70TbRk6IPxRBjomMqY57EjoidHnsmjhE3IW5H3Lv4gPil8XcSbBNkCS2JGoljE2sS3ycFJpUldSYPT56RfCHFMEWU0pRKSk1M3ZraNyZozKoxXWPdxhaPvT7OZtyUcefGG47PHX9kgsYE3oR9aYS0pLQdaV94UbxqXl86N70qvZfP4a/mvxD4C1YKuoU+wjLh0wyfjLKMZ5k+mSsyu7P8ssqzekQc0VrRq+zQ7A3Z73Oicrbl9Ocm5dbnqeWl5R0Ua4tzxK0TTSZOmdghcZAUSzoneU1aNalXGi7dmo/kj8tvKtCBH/JtMlvZL7IHhb6FlYUfJidO3jdFa4p4SttU+6mLpj4tCi76bRo+jT+tZbrZ9DnTH8xgz9g0E5mZPrNllsWs+bO6ZofM3j6HMidnzu9zneeWzX07L2le83zj+bPnP/ol5JfaYnqxtPjGAu8FGxbiC0UL2xeNXLRm0bcSQcn5UufS8tIvi/mLz/864teKX/uXZCxpX+q+dP0y4jLxsuvL/ZZvL9MqKyp7tGL0ioaVzJUlK9+umrDqXLlr+YbVlNWy1Z0VERVNayzXLFvzZW3W2muVAZX1VUZVi6rerxOsu7zef33dBuMNpRs+bRRtvLkpZFNDtXV1+Wbi5sLNT7YkbjnzG+u3mq2GW0u3ft0m3ta5PXZ7a41HTc0Oox1La9FaWW33zrE7L+0K3NVU51i3qV6vvnQ32C3b/XxP2p7re8P3tuxj7avbb7W/6gDjQEkD0jC1obcxq7GzKaWp42DYwZZm7+YDh5wObTtsdrjyiO6RpUcpR+cf7T9WdKzvuOR4z4nME49aJrTcOZl88mprTGv7qfBTZ08Hnz55hn3m2Fmfs4fPeZ07eJ51vvGC+4WGNre2A7+7/X6g3b294aLHxaZLnpeaO0Z1HL3sd/nElcArp69yr164Fnmt43rC9Zs3xt7ovCm4+exW7q1Xtwtvf74z+y7hbsk9zXvl943uV/9h90d9p3vnkQeBD9oexj2884j/6MXj/MdfuuY/oT0pf2r6tOaZy7PD3cHdl56Ped71QvLic0/xn1p/Vr20fbn/L/+/2nqTe7teSV/1v178xuDNtreub1v6ovvuv8t79/l9yQeDD9s/sj6e+ZT06ennyV9IXyq+2n1t/hb+7W5/Xn+/hCflKT4FMNjQjAwAXm8DgJYCAAPuzyhjlPs/hSHKPasCgf+ElXtEhbkDUAe/32N64NfNDQB2b4HbL6ivMRaAaBoA8Z4AHTlysA3s1RT7SrkR4T5gY8jX9Lx08G9Muef8Ie+fz0Cu6gp+Pv8L8cV8XCu9DJQAAACKZVhJZk1NACoAAAAIAAQBGgAFAAAAAQAAAD4BGwAFAAAAAQAAAEYBKAADAAAAAQACAACHaQAEAAAAAQAAAE4AAAAAAAAAkAAAAAEAAACQAAAAAQADkoYABwAAABIAAAB4oAIABAAAAAEAAAEmoAMABAAAAAEAAAEqAAAAAEFTQ0lJAAAAU2NyZWVuc2hvdHXSB7IAAAAJcEhZcwAAFiUAABYlAUlSJPAAAAHWaVRYdFhNTDpjb20uYWRvYmUueG1wAAAAAAA8eDp4bXBtZXRhIHhtbG5zOng9ImFkb2JlOm5zOm1ldGEvIiB4OnhtcHRrPSJYTVAgQ29yZSA2LjAuMCI+CiAgIDxyZGY6UkRGIHhtbG5zOnJkZj0iaHR0cDovL3d3dy53My5vcmcvMTk5OS8wMi8yMi1yZGYtc3ludGF4LW5zIyI+CiAgICAgIDxyZGY6RGVzY3JpcHRpb24gcmRmOmFib3V0PSIiCiAgICAgICAgICAgIHhtbG5zOmV4aWY9Imh0dHA6Ly9ucy5hZG9iZS5jb20vZXhpZi8xLjAvIj4KICAgICAgICAgPGV4aWY6UGl4ZWxZRGltZW5zaW9uPjI5ODwvZXhpZjpQaXhlbFlEaW1lbnNpb24+CiAgICAgICAgIDxleGlmOlBpeGVsWERpbWVuc2lvbj4yOTQ8L2V4aWY6UGl4ZWxYRGltZW5zaW9uPgogICAgICAgICA8ZXhpZjpVc2VyQ29tbWVudD5TY3JlZW5zaG90PC9leGlmOlVzZXJDb21tZW50PgogICAgICA8L3JkZjpEZXNjcmlwdGlvbj4KICAgPC9yZGY6UkRGPgo8L3g6eG1wbWV0YT4KLlHcEQAAABxpRE9UAAAAAgAAAAAAAACVAAAAKAAAAJUAAACVAAA4oU3UiZgAADhtSURBVHgB7F0HeBVF1z7SpCgdfxAjRaX3HkA6SO8gJZDQEaQTkN4RgoCAVKVLJ4QiSE8CBKR9BEFAQQLyISCKIB2F7z/vJLPO3ey9ublJyL0w53nu7uzMzpzZs3vfPXPmzJ5X8uZ753+kSUtAS0BLwI0k8IoGJje6G7orWgJaAkICGpj0g6AloCXgdhLQwOR2t0R3SEtAS0ADk34GtAS0BNxOAhqY3O6W6A5pCWgJaGDSz4CWgJaA20lAA5Pb3RLdIS0BLQENTPoZ0BLQEnA7CWhgcrtbojukJaAloIFJPwNaAloCbicBDUxud0t0h7QEtAQ0MOlnQEtAS8DtJKCBye1uie6QloCWgAYm/QxoCWgJuJ0ENDC53S3RHdIS0BLQwKSfAS0BLQG3k4AGJre7JbpDMUnglVeS0P/+9yym0+K1XPOMV3HG2JgGphhFFLsTXnv9NcqZIyf/cf5HP/zwQ+wqvyRnlylThvwHDqSMGTOKK546bRpt27bN4dVnzpyFpgRMpjx58tJrr6Whp0+f0tWrV2nFypW0evVqh3VdLXSVJ0BswvhxVK5cOeMa//jjD9q3bx+NGTvWYXe8vctT/359KWfOHJQixav06NFDunTpEn366WQKPxlut66n8bR7IVEFGphiklAsy/v07kMdO3YQterVq0//vfrfWLbw4p5es0Z1GjBgIGXLls3mIufNm0tz5823yVMPsmXNRhs2BFLq1KnVbCM9f8ECmjNnjnEcHwlXeSZJkpTWrllN7733nmU3Tn7/PbVv396yrFq1qjRt6jR65ZVXopXjRde1Wzc6cuRItDJP4xntAiwyNDBZCCUuWRqYrKW3bNkyKlqkiGVhTMC0d88eypQpk6h74cIFBqkgypEjB7Vs2cL4E/f8uBcdOLDfsn1XMl3lOX36dKpWtapgeefOX7Rq1Qp6Rv8jv/Z+BrBu3LiRRo0ebdOtdOnSUWhIiHE9e4OD6dChQ1SlciWqUKGiOBdaonf58vT48WObup7E06bjDg40MDkQjitFGpispbZr50564403xBD3u8OH6eLFn6ltm7biZEfAVKhQIVrx9dfivOvXr1PtOnUN+1LPnj2pa5cuouzUqVPk066dNfNY5rrKE8OpY0cPU7Jkyemff/6muqwx37hxQ3DPlSsnbQzaKNIYnpUt5y3ScjNokL8hj+3bt9PgTz6RRQxuq6hA/vziePbs2bTgyy+NMk/jaXQ8hsRzBaY333yTWn34IRUoUIDeeustevLkCf33v1do2fKv6bvvvrPsKm5yl86dqHjxEvSW11t0795dOnf2HK1dt55Onz5lWadL587iDYsx+fbtO6KdM6B/f0qePDnhraSqxvXrNaDiJYrR7zd/E0MLHNeqVZPy5s1DN2/epL1799CixUuitdejRw/jjV6ieHHKnTu3OGfXrl1056+/jPOf/vOUJn460Th+mRKr2BZ047ffaOzYcXTr1h/k6+vLtpR+QgSOgGnOnNlUoXwFcd6QoUNtbFF7du+mzJkzizIMdby9venho0dxFqurPJs1bUojR44U/PFs9Yu6PmRMmRJAtWrWMvrWr38/fp6CjeN9oSGULl16Adxl2TYltSLYuXbv2mloUr+xDGvW+rcdT+NpXHAMiecGTHiz4Q9sNX5GH4NZje3bt69Nd995JzctWrSY0rOaayY8iIuXLKUZMz43F/Fb66gAntOnT1NbH59o5SfDI42IO/gtPmjQIKN87do1lJeNq0+ePKYDYQcNldw4gRMAsi5du6pZBj+bTDsHRYsVs1PycmU7C0yhoaHi/uN+lypdRmgikBSepW6m++DP93In39O4kqs8582dK8AR/AcM6E+79+wVXSlYsCCtXLHCpls7GWz8/SOfvRQpUtDRKNuRGXgA6HiRq6Q+Q57EU72GmNLPBZigoagGv8uXL9PPFy9S2rSv07vvvicePLMqDhX1YFgYj8tTiWu4fftPOnPmLKXPkIHy58tnANz4CeNpHWtPKsUVmGRbULlPn/6BUqdJY6jSKAPYAfQk4W2Yhd9sIC8vL+Mtfu7cWXr48N83+D///EOdo4Yesu7LuncWmOS9vH3nDlWuXFmIS9Ui7t27L2bpUABby5KlS+MsUld5yhcbOlCyVGkDRKVmp/b1xIkT5NchcpIEL+ANgRtEv2FX6v7RRyJdp04dmvTppyJ9//59SsPPIahylSp0+/ZtkfYknqLDTm4SHJgyZsxEe/fsFkAC491A/4E2Kiz6CW3K620vGjEiUg2WebAhgM6cPUtt2B4hfVeqVq1C06dNF23CwFiJDYQqyQfLVY0Jbf3+++/UoGFDevDggWgawAqABZnVdJEZtdE2JlUa9tPOAlM4/4GhZcO+9EHt2qJBaXN58OAhzZg5g4ZE2WPWrl1HEyZOsM/UyRJXee5g21DWrFnFcKwYD+lBqh2srU87tpctF/l4OTds1Eik8Tx/Pj1S84fbBIas0KL27wullClTiZfgnTu3DSO4r6+f4TrgSTzFxTq5SXBgmjhhAtWrV090Z+WqlTR5coBTXZPGUpxcu3Ydunb9mk29NatXUb58kQZBvw5+dOJE5PAMJ8UHMH3cqxft3287y/Of48cpadKkBE3ow1atbfojDzQwSUk43jsDTPBXCjsQJhqKiIigxk2aUN26denTiRNF3sCBA9im9IRmfzFLHIeEhFKfvn0cM46hNC480VfUh+EbGhOM/Tt37BDAKgFHgt6tW7eoarVqojc+bX14WDdQpOV/ZOpnU6kGu1fgZV69eg0aOLA/1a/fQJwzbNgI+mbrFpH2JJ6iw05uEhyY1q1dy05xecRbRLURxNS/o0cOCwczOKZVq1492ultWrehwYMjx+gBAVPY0e7fMXx8AJM6jpfM5UNw7do1nh2qI7Nt9hqYbMRh98AZYIK2HcwTDqDz58+LITSMxNAiwtlO6OvnR3DW/JL9mEAHDx6kj9j2FBeKC89DBw8J08Pff//N9rDSJF+eGIZVqlxFAJYEJnVoCr83PDcguFXA9ilnImFDxYTL6FGjqAkDM2jcuHG0PjBQpD2Jp+iwk5sEByZpSLSaInXUR3kD4bfSrHnzaKeW55mauTxjA1q3fj2NHz/eOCeuwITZwtL8wJspNCSY0qfPIGboatSsaS4WxxqYLMUSLdMZYEIlOVGBl8FZHtJXYy0DGkm16tXozp27NhrUpk2baCT/geNKrvKUtiQY6qHVTJwY+UyqPlay7au//ir6jr6qtqStW7+hsmXLCTuleo7qq9T9ox7s43RQXKYn8YzNfUlwYJKaj/qGiKmD6iyF2Sgu62KmAjMWIEzLD/T3l0VxHsphVq50mbJGezKhgUlKIu57Z4Hp+LGjwi8IQxoMo0EwB2DIA/Jhu40/D+lA8+bNYzePeSIdl42rPDcGBVGuXLkEazxDWFKizuJiuVLY/gOiXLV/qn5T0LbgygJwa9S4McEWBVr41VdUqlQpka7LphEsxwF5Ek/RYSc3CQ5M0lYkx91O9oukxnTlyhWq3yBybK3WrcW+HFMCIu1VUHVVtwFMvQLczpw5Q63btFGrsa9IOtrHU9AgR+4CGphsxBbvB84CE2Zm5WwUOhFx6RI15j+spLFjxlCjKCPycJ482bJlsywy9pjhlaCGzGfPnvHvqVFuTrjKc+FCBo+SkeCBNgEyVapWYd+7+4IF1sHNmztHpEND91HvPr1FOl261/mZ3C/ScrOK1/9NmjRJHgr/rezsBwgqxj59ciLIk3gaF+NEIsGBacnixewcGTlD0bRZU/r554tOdIuE0ROGRMy8eJe39ZJFA6oLgmoMRNkhtjVgXZUVqGFh5fyot2pCAFPvXr2pU6eO6AbF5npFhZdo4ywwrV+3zlh3Bi2iXv36hrYAcclZKaRVTQLHkr5evpwKFy4sD+0+U/IEV3nCYRTXJWksL9gN3BDpBoA8GO1hvAdhNhE+epKk+QHHcI2pXKWqLCKshfvP8WPCiG7+P3gaT+OiYkgkODB15BmzPn36im5YaTCyf/BN+f33m/JQLITMmzefOO7Lq62Dg0OMMiTksArpOnyzf+UxuySppVnZiqDuezM4gRICmJo0acyGytGifXtvcFH4km+cBaaG7LIxLmpFvllbgv9P4PpA8Yd1NCEBQzKGS5Jisne6yhOaT2jIPtEfjBDKlitv+DJhBQMM99D+ALCqdzf6NWvmLKpU6X3RRbO25MdgJ73IYYMaOmy4vBQeAXgWT6PjMSQSHJjAP3jvXuPzDydPnqRevT8WhkuU5ecp/6nTptItnn1T1zoVL16MlvAQDQSA6dCxk1iCghs8h9cLlS0baZxWx+riZN5glgazNSC57gjqfPduXal79+4iH5uEACbMQGImEgS72uDBg9mV4YSxxEAUvKSbxjzkSp4iubj69ytWYofJSP8zOBXuiZp9e/z4CW3ebDscU7UJaBmz+UsCOXJ40eJFS/iPmVa0Z9ZAVBHHFphQ11WeqraFZ713n8jZtlmzZlKRwkVEt5DfXtGskIn/wWp2gQEBuPqz5ziWrKg+eyiz0go9iSeuwRl6LsBUqmRJmj9/njBiyk5h/J0sWTLxdkGelZF7GXvxFi1aVFYRbx8AkyQYRD/ktXfneeZOJfUmIx83GgRHPajC0ps8IYAJfLbwH+vtt99GMhpZuSFEO+kFzZAzUjFdnllG0GBgS7K3nOkiryJo1ryFXbuRK8DkKk9ocat50S0M31aE569Z82Y2Gr48Tx3qyTx1v2bNWsu1lp7GU70me+nnAkxgDv+QefPmiLVo5s7Az2P659OjLS3BecNZbW3ON9L8UMIzGx6w9r53ZLU2D0bINm3b0GaeVgZJbUoc8Eb6ndhT9aXmZ17PJOvLPQzs43ixamn2ZUmVKqVN381/OlnnZdg7A0x4iUivaVUmmFIHOGFSQxLO/Z6/b+Tr18EwBssydR9bG5Os6ypPLEuChzcW5aqEZxaTMXh+7NEoXgQMfyX1ecd1LmX/JrgM2CNP42nvOmT+cwMmyRAaT5EihagYL2a9e/cunT71A51lT2pHhGEYvuVTomRxXppwQzjSybVCjuoBIMrz92siPXB3RvMed1RXl7mnBPAdpqpVqvDsXASFhR0ybDgJ2VtXeeL5q1WrJvfxH9rFX0K4d/ee092EKaMkjzS+++6IMGE4W9HTeNq7rucOTPY6ovO1BLQEtASkBDQwSUnovZaAloDbSEADk9vcCt0RLQEtASkBDUxSEnqvJaAl4DYS0MDkNrdCd0RLQEtASkADk5SE3msJaAm4jQQ0MLnNrdAd0RLQEpAS0MAkJaH3WgJaAm4jAQ1MbnMrdEe0BLQEpAQ0MElJ6L2WgJaA20hAA5Pb3ArdES0BLQEpAQ1MUhJ6ryWgJeA2EtDA5Da3QndES0BLQEpAA5OUhN5rCWgJuI0ENDC5za3QHdES0BKQEtDAJCWh91oCWgJuIwENTG5zK3RHnJUAPhwowxc5Wyc+zkPAjPv37nJY8kfx0ZzDNl599VX++mkqjphy2+F58VmIDyreu3ePPz/9ID6bdaktDUwuiU1Xet4SAChMCZjM4ebzEsJ64XvvCPq4goOeruYYbAlFnTt3oqZNm9H/vZHF+GY9PnUbERHBQVYHWoYjA3BOGD+OECosY8aMomsIdb9v3z4aExXxxaq/CDn2+fTPOdxZUeOb4QjE8euv12j0mFEc1CLcqprIc4Vnt+5dqVaNWuL79Ooni6VsR44a6ZCnuTP4nHW7du1F9p07ty3jQZrr2DvWwGRPMjrfbSSQLWs22rAhUMQKtOrUfI6KM4cjp8Qn4Y8++4uZVKFCRbvNmuPG4UTEgFu7ZrURC89c+SR/o7x9+8g/r1qGa9y8eaMBSGoZ0gDDQRxxZ+fOneYil3mGcuDX9Pz5X0fkbHTj//u//xMx/uS3yhFspBR/895V0sDkquR0vecmgb179lCmTJkEvwscEWfDhiAO35SDWrZsYXy0v+fHvejAAdtotnHpID78X61qZNBJgMJ+Du19+PBhSpI0iQjg+n7FijRh4gQKCtpow0atd+fOX7Rq1Qp6Rv8jv/Z+BrBu3LiRRo0ebVNPDZiAGHlTp37G36j/jVpwIA4ZeRj9MMejQyOu8gQwpXw1BZ08eYq/K36arvz3FxFi6v3336csWbKI/oFnm7ZtRVRrmw6bDhCyDKHLJGlgkpLQ+xdSAghUifBLoOvXr1PtOnUN+1LPnj0JwweQVfgvUeDCBkPFAwxEePtjKNW+vW+0gBnQjMxhxqFlHTt6WAz5EPCybr36dOPGDdGDXLly0sYoEDNH4YFtB0FaQQjvVL5CBeMakYeAsR05cCxoNsdUXPDllyKNjas8Ufe111+zGyBh3Lix1LBBQ5xG6wMDady4cSJttUG8wDEcwQYgBkDCsNCtgQkPDsbYe/fsFSGY8ufPTz/9dJ4CAgIodZrU1K9vX8qVKxddjLhIQ4cOs2voq1WrloiMgfop2Ch44fwFEXXCKk69FFyxosU4fldTyp0rt3jb4gH7meOPhYeH0/LlX0d7qFCvfr0GVLxEMfr95m80d958cYwoF3nz5qGbN29yAMI9tCgqCKfko/cJK4E5c2ZThfIVBJMhQ4fStm3bDIZ7OPJI5syZxTH+FN7e3vFimB7GzyK0MdDkyQG0ctVKkY5p06xpUxrJ4ZdAe4ODjei5OJ4yJYBq1ayFpKB+/fuJgJY4qF37A5o8abLIt9Km1BDh5tBhrvIUzBxsoJHKMGdnzp6l1q1bW54Nu1hoSIgAIwAYrjFt2tfdG5jUaKbqVf31112+kGSUMmUqI9sscBTgohfMn28Td96owAmM17vwG/Px48dqNpkDZdoU8sGtW7eEkc4ck27t2jUi7t2TJ4/pQNhBQ5VX6x85coS6dO2qZul0AkpA2kEAPKVKlzHCNfXo0YO6me6D/6BBljaY2HZPhpjHW790mbI22oujtubNnSvAEecM4Ei6u/mFDCpYsCCtXLFCpOVm566d5O8/SBz26d2HOnbsINJTpnxGX6+I1BDludgjvDji1EEOatw9V3mqbVulvb3L07y5kXa7o0ePUucozdR8ruSPmbwKFd8XIOVRwHT58mXKli2rjXEPY2nEwQIAgWrXrmMT+00+ICiDinvyZDg/mE+pRIniIgY88q2EFrh+Pb377rtCDQffK1eu4FQqUKAAZc2aVaQBPmXKets8dBKYxAm8gcp9+vQPrN2loQKsrUlq6+MjxuTyWO8TTgLy5YZw65UrVxaMMEO3m//YGGohiCmGXiDYWpZw9Oa40qGDh/iZTEXnz5+nocOGUaeOHUXw0pQpU4qh2XeHv2Ot/zObZwc81eenZKnSBohKzU7tK8LG+3WIBCMVmAICpvBMoy2IoW0JTEgXK17C4O0qT7RjjxA5e9q0qUbAztFjRkezpaEuZh3nz5snmhn8yWAOILuD9u/b7zkaE6ZWG3N00ezZs9O2rVvFhWCqF3HY06V7nYUeabRU3xY+Pu3If+AAce6PP54jH56GxHAMhKCZmzdvouxvvimOEZE3nEFLUu9evQlRT1fxNLLZ32XihAlUj/mCzA+BepNRvwGHppY+HZhJGdC/v6hnVtNFpt4kiATC+Q8MAIJ96YPatQWPVRyCGy8KvKxmzJxBQz75ROSvXbtOGKTj2hHJ88effqR3cuc23ATUdqF1t2nT1uZFumP7dvHiU7Ua1Q7Wlp9pROgF4YXZkG0zIHUoFxQUxK4BY0S+3KhDOeThf4P/D8hVnqJy1AbBNYcMGUIpkqcgL6+3bK732LFj1KlzZ/V0kYZtC0O4dOnSCgBv3iJy6OtRwLSDDXuDWM0GyZseGrqPevfpLfKOHzsqhLFw4SKaOWumyFMvELMEZqe2ypUr0cwZkeeqarGo7GADg18YGzZBe/fupX5RYINjFZg+7tWLZ2IiARNloP8cP05Jkyalcxw5+MNW1mPuyDP1Nj4kAE0o7ECYaEq+3OrWrUufTpwo8gbyi+vhoyc8rT9LHIeEhFKfvn3ixBra+6GDB23agA8SnoVXkiShmjVqGBo+ZrKgPUtCX9FnGL6hMUVGgN4hgBW2MdjI5PMPYKtarZqoiqn2nTt2iDRehN4cPVol1fiN/G7du3OE3u/EKa7yVNtv0aI5DR82XM0S6a1bv2GNMXo+CkePGiVCmQOE69dvQNIsov5v3dZdQKrh6ltAgtBW1pygJoOOst0GlnzV+i9vIJy9ToSfoCSM0JLwBgUVL15c7H/55Reh3YgDZYNxcsUK5emtt7woQ8YM/IBEFhYpXEQkzPYiFZiKcghzM8mHAEPQ2nXqmIv1cTxLIGPGTBTMEw4gDKsAAhjSwDaJSQxfPz8qU6YMfcl+TKCDDCgfse0pLqTyRDuXLl0W2r7UvAFcGJpJ80MrfkHJEPdyCChnpNasXkX58uWn+/fvU6XKVQRgyedaHZqCzyp2FIWpAQSHyimfBdCtP/5kV4FGAgBEQdRGdY2IC0/ZJkwjMPgnTZaMMmTIYOPbhNnO9jwiUWcg33knNwWuDxSAu2nTJhrJICXJo4AJsxqY3QBZgZAUrgQrXPiGwA3yWmPcm28ybvCsmTONGRt7DRw7zmpqp3/VVAlMGDKW5gfeTKEhwZQ+fQYxQ1ejZk1zsT5OAAmcZAAC4WVwlmeHqrGWAY2kWvVqdOfOXVI1KPOfxNXuSJ6o/2GrVqwhn7NpStVgMJRctGixKJe2JGgRw4aNoIkTx4t8FUhk21d//VX0XTbs5eXFz3ygeEHLPHWP68+WLZvIqsNa469cHxQXnqIBiw1m5L5ilwRofCDzEHn7t9+KvmAo/X6lSoYtDed6FDDBmAd7DkgC0zo2UI8fH3njzMBUnqeH5/I0MQizdXgTOqLLv1w2Hg6o0rt24o0WOeOHGcAzZ87Qjd9uiClMtNO8WTPRnGqARMa/wPRYzMaIk5SNBiZFGM8pKTVsaM4YRoPwkpNT+Kot0lkv5Zi6Lofsqq1IrVORZ5/k8HE725UGR9m4NrJ9CO4vIEyupEjxKqlauWpGMA8DUQf21lmzZlP+fPkMgMKQD06cuXLlFKCM81RtPq480Z4VpU+fnkLY5QGjE9XvStVQYYODDUqlD1u2FGYZyE7eo0WLlrDN96Z6WozpBPX8lkO52AITZur2sVcqyKzVxHRFXdhQ9/HHH4vTpAam1lFtCBqYVMm4Z/pgWJgxA4seRly6ZHhC43gsG4obRRmRh48YSVa+bTDUSlBDnWfPntkMTZCnEmxMeE7sac6FChU2jNhhB8OoR4+eovrChV9RqZKljKYwpKtStYqYOUSmOgWv2liNCkpCzjRiJg+0ZfNmsaZNDhPlqfHJU7Yp91IzwrGcCazK14P1fLEh2JJxvbEhtwQmXIB8a8XWnqM65BUvUTLaA6gKVgNTbB6VxDl3/bp1xrozvIXr1a9vzEihR3JWCml1tgrHktTlHsjDEMS7vLcsjraXIIACq2eoIc/WjotajKu+dPv360e+vr5Ge+a1dDDaY+gJUoeARgU7CXU2W04CyFMTiifalyMEpGHaAFDDHjXXwbpE1TcRmhao+0cfxWoxMOq4LTBt2riJcubMgT7azEKIDGUDo7l0I0D2gvkLqGzZSPuQ2Y0A5d9s2cJTol5IsrD+9SXBsR7KQQruRSoImLUl1Qjr6AWGJS1Y2iJJHZrIPHWvDg/VmWJ5zvLly8SaMhwPHTqctm77RhRhKBYask8Mf2AHK1uuvGF/gYsLDPdp2CcOAGu15k22r+6h7a1ZvZJXH+QT2ebZYld5pmKfrKTJkhranMoTadVHKSZ5qXVfaBsTLjQfj7PXRH3OAuprwJQpDBxrDRngQcOQrVzZsgKR5fQpfJg6deoozsOMSv8B/cSnKfB9G2hTqqqtgckQp1snpEkAnYSheTa/sXPk8KLFbLuAHw3IkQYSW2ACiBxhJ0oM/wAiI0aOMoaIeOZgLgDhD1uhoq3xV9XwTp48yS4xke4Ls9gNRs4GI7+9olmhLbws58+fT0uWLKHdu/fQwwf3qXKVyoTnGRoTSHUxEBlRG1d4+rT1IbhbwNa1evVanuU8Iab88ZWD1q1bUdu2bQx/ppiGnWpfXnhgwsWqa5ZwjIfk77+fUHJ2BJMuA8hX/TpgG4AKCsOjJGhU0KxA0iiJtAYmSMH9CVoTbEnqPVd7fZHXQDZr3iLasF2eE1tgQr2OHfzE4lnZBp49kNoHLGyFi4tK0OJWswOo+vyp5RhGNuMvBshZNVmGmWS4DNgj1PP18+W1pj9FO8UVngAmf/6eVEyEGW+sVTUv+7JXz6OAadmyZTR12jRxLUePHBY3TZ2ClMbGb77ZQsOGj7C5ZsyATJ40yVh2oBZCk4Kfhf+gwTZWfyzgnTFjupjaV8/HZyjatW9HQRs2iLeh2bAu/U7sqa7B7JCJRcmYKazJN0vT85NAHfYbAzjJFww4Ayy+5/WSvn4dOP3Mbmdia2OSDWFR9+jRI/lFmFxmiT1ebkPZWXIXazZWBO0HHt5Y26YSVhO0btNGPD9qPtL2vseEa7zEBn/4bN1hkLBHseUJb+9PJ34qPNVVsJXtgy++/TSWvzIgDfCyzNF+Hxu5ocXamzhwVFctS1Abk8oormnM1JUpXYpyv/sO/Xr1Ojvc/RTNv8TMA7MnxdhR8v79u2Ilt6Mba66rj91TAvCxqVqlCs/ORVBY2CHDhpOQvQVoVOFhFXSmo0ePWH610oo/nll8neKff/4RX8O4d/ee1Wk2edCcChYswE6O6cWMdHj49w5B16YyH8SWJ5a7FClcmLzefpvezJ6VnTpvsXvNWfrxx5+ei2zN/ZfHHgNMssN6ryWgJfDiS0AD04t/j/UVagl4nAQ0MHncLdMd1hJ48SWggenFv8f6CrUEPE4CGpg87pbpDmsJvPgS0MD04t9jfYVaAh4nAQ1MHnfLdIe1BF58CWhgevHvsb5CLQGPk4AGJo+7ZbrDWgIvvgQ0ML3491hfoZaAx0lAA5PH3TLdYS2BF18CGphe/Husr1BLwOMkoIHJ426Z7rCWwIsvAQ1ML/491leoJeBxEtDA5HG3THdYS+DFl4AGphf/Husr1BLwOAm8dMCE2F6fIcYdx8taunQZHTrkOGadx93Rl6DD+EC/oy9WJoQIEoNnQlyHp7TpEcCE2O5ZsmShhw8fOP31QHs34K3sbxFisoPwYXt8xF6T+0sgc+YsNCVgMuXJk1d8ZhkBMK9evUor+DvZq6OCVsT3VcSVZ2uO4tuufXt6Nep7882aN6fbt2/H2E0EHxgxfLgRtiqEYyzi++LOkKs8Zdv4dPFmDvudJs1rIms2B/CISb5x5Sl5q3uPAKa1a1aL8DX41nLpMmXV/sc6rYEp1iJL9Ar4tO2GDYEiCKVVZ+YvWMARcOZYFbmc5ypPaFZdu3Um33a+NoE60RE1tLdVx957912OyDKSihYpYlN86tRp8mnnY5OnHsSFp9oO0tP52/wIwy5pydKlNH36dHlo7OOTp9GoktDApDUm5XFwz+TePXsoU6ZMonMXLlxgkAri8E05qGXLFkbUkp4f96IDB/bH2wW4ylOGu7fqiCNg6tGjB3Xr2tWqGgfccAxMrvI0M0MQj6VLl9hk2wOm+OJpw0w50MCkgUl5HNwvifiBCL8Eun79OtWuU9ewL/Xs2ZO6dukiyhAtx6ddO5GO6yYuPMM5iCqijiCCT1DQRsqfPx8V5o/9gxwBU8DkyfTBBx+I8xDYExrglIAAcRwTMLnKUzSubGQUoL/+uktp074uSuwBU3zxVNjbJJ8bMCH6Q/du3Tl435siksO9+/fpJodB2rV7N23iMa0atwpx2/v16290tFbNWkJQCCkTyKGXVIqIuERfc6gcK0LsrMqVK4mY75cv/8K8dtKhg99pG5OVsNw0Tw35PoRDJm3bts3o6R5+djJnziyO8Wx4e3vTw0ePjHJXE3HhiWi7QRxFetasL0SUkcWLFnFY7RKiK46AaeiQoRzRpwiHSxovglAi2sk+ti2BYgImV3mKxqM2gwb5U9s2bUWf586bR71YAwXZA6b44BnF2nL3XIBpwvhxVL9+A8sOIPPo0aPUOerNh2ME8NsQaAtAyLciq+ikMOAtX7aUo/nmj1YFseRkNF5t/I4mHrfLCOU/Z3r+kwJ4SpUuY4QUshr6+A8aJGKhxfUi4pOns8Bk7nNsgMlcN7Y8YXdFTEdoepgMevTwMQ0ePEg0aw+Y4srTXN98nODAVK1aVTaoRRrP8HBBczl37ixrQGnpXTb2vfHGGyJ+VqdOkWGX0cH06dPT54rBDXG2ENkU9cPDw22u4fz5CzRh4gSbvHmM+N7lyok8GMyP/+cEvcYx46Giq8H9NDDZiM0tD2R4cESErVy5sugjZst279op7iWCMULDBsFIiz9SXCk+ecYWJGTfnycwYRYONjsE5Kxeowa1ad3mxQemKVMCCEMx0NixY6MNxTDEy/5mNrtRTVEvNrNyGdJnoODgveKhffDgAdWtW4/+vP0nmmFVvzzN5elPCU4amIRY3HojbRmwL31Qu7bo6yoOwV0gf35C2Gy84Yd88onIV6M7x+Wi4pOnuwMThm8YxoF8ff0o/GT4ywFManjm+g0a0JUrV2L9zMQGmPwHDiQfn8ipVatpZDWOvQamWN+K51oBmlDYgTDBMyIigho3acIvmroc2nqiyBs4cADblJ7Q7C9mieOQkFDq07dPnPoY3zzdGZjSpXud9u7ZS8mSJafvvjtM3bp3E7J7KTSmcRz7vGGDhuKCb968yer2DGGERmxzZyk2wKQaLitVfp/jvd+1YaMKXQOTjWjc7iBjxkwUvHeP6Nf58+epLb9wYHRNmTKVGNL7+vlRmTJl6Ev2YwIdPHiQPuJp97hQfPN0Z2CSffvnn7+pWvVqxn9F/Y+8sDYm2AN27thOSZMmtXleYDPYtXMXTflsis2MnM1JUQexAaYgnrXLnTu3sEcVK148WnPly1cQwzkUaGCKJh63yzgZZVO8du0anT17Vjj/qX8kVYPC7O7IUaPifA3xyVP++dEpR7Ny5k4ntI2patUqbMf9XLCdM28OzZ8XCe7IeCmACRfq5eVFUxmAsJxA2neQD8JD9tlnU2mVg2UFsQGm7d9+S9myZbMLTAULFqSVK1YI3hqYhBjcenP82FEx1MASFPlymzw5gFauWin67ePTjvx5SAfCpAemuuNK8cnTXYFp29at7LqTXfxPpCyl3AoVLERFixYVhz/99BMd5XsAjRV+WfbI1eu0116Cz8qpjJMkSSpmy1rxGiJv73KUPHlyUYyHrkzZcsZUsFoH6dgAk2rTKlqsmLkpqlWrluG4poEpmnjcLuNgWJjN0g44HzZu3Njo59gxY6hRo0biePiIkbRly2ajTCawfEKCGvKePXvGv6eyONo+PnjKRl39wya0xrRj+3bKmjWr7GaMe3XywepkV6/Tqi3kPVdgMndCdZCTMwLmc3C8ZvUq4ZMEb9pSpUtbnWLkqR60rdu0oTNnzhhlSPTv149nH3xFngYmG9G45cH6deuMxaxwF6lXv75YvCs7q/7B6tarZ1Mmz1FfVsjDbJ53eW9ZHG0fHzxlo67+YRMamJYvX0Z53ntPdtNmnzx5CgPIIfPHjx/Rjz+dp/a8INkeuXqd9tpLVGCaM/sLqlChouibXwc/OnEi3LKf6nnl2D/JkXdvkyaNafSo0aKd4JAQ6tu3r02b6hooDUw2onHLg4YNG9I4djMBmbUlOOIGrg8U5gHYoGrXqWN5DepMLE549OghlS1nH5jig6fsiKt/2IQGJtk/q/1LYWOCz0nqVKnpyy+/oq3btvKY9hlhSFetamVhW4LNCahcvERJUWYlqH6s5fhFaTnQgIaPGE4XL16ye76qin86aZL4bAN4Tps2lapWqWKw0MBkiMKtE9LhEZ3EPZvN68hy5PCixYuW8PKmtKLv8GdCmRXFFpjQhqs84Rxcs2YNoxsdO3SiN9lPDwQj860/bon01avXeBYx0hVCZPCmAk/MvJk98tw0qbEsq58o+o2Xbi348l/j9E6eNLrDk0eS4sJTtqHunQGm+Oap8kc6wTUm6VUqGcMTG6qiagTfuHEjjRo9Wp4SbZ86dWravy9UGEHNhX/88QdPdVa3yYYNSzrdoQA2rCRJktjwRL4GJkjB/QkaDGxJ6jOj9vrixYvUrHkLu3YjV4DJVZ7qLKHaR3Naelmr+ao2r+ab0+alN3HhaW4bx84AU3zzNPcjwYEJixMbNWogfE/MzDEjFxS0icZPGG8uinacK1dOGuQ/iP1WStsAlBUwoXID9p0aM3qUMVZGHviNGTvOGBp8+dVX9MUXX6BIk5tLoA4P0wBOWAcpCZr2999/T75+Hexqzzg3tjYm2b4rPGvX/oAmT5osm7C7hxZUkydiVFJtrmq+OT1gQH/azY6RkuLCU7ah7tUXu72Xd3zzVPkjneDAJBlioWChwgXJ6y0vun//AZ378Syvov6BYuNoKduKzR7fmClVuiQdOXJUPMSxqavPdT8JYE0XhuMRlyIoLOyQ3Znc+Ox5YvCMz/57YlvPDZg8UTi6z1oCWgKJIwENTIkjd81VS0BLwIEENDA5EI4u0hLQEkgcCWhgShy5a65aAloCDiSggcmBcHSRloCWQOJIQANT4shdc9US0BJwIAENTA6Eo4u0BLQEEkcCGpgSR+6aq5aAloADCWhgciAcXaQloCWQOBLQwJQ4ctdctQS0BBxIQAOTA+HoIi0BLYHEkYAGpsSRu+aqJaAl4EACGpgcCEcXaQloCSSOBDQwJY7cNVctAS0BBxLQwORAOLpIS0BLIHEkoIEpceSuuWoJaAk4kIBHAVOzpk35I/Ll+LvJf9CkyTF/JdDBdesiD5YAwjHh2/GeQG+88QbdvPl7rPuLQLH37911GHgjoa4/W9ZsdIO/sOkoxFVC8ZbtehQwyU+kOhPGSV6g3r8YEsAfdUrAZBE09bXX0ojvuF+9epVWrFwpgk3E51WWKlmSQ9l/7rBJhDSqUbOm5Tn47OzgQYMpQ4YM4jvl+ATwnTu3+YubYTR02HDLOnny5KFuXbuJeIv4xr38vjk+B33p0mUaMnQoIfhkTNSav3ffjsMsvRr1CeJmzZvT7du3HVZDoI5Jn06kknzdmTJlMnjj67L4dHGnzp0d1neFp8MGuVADU0wS0uWJLgG8wTdsCCT8Ya1o/oIFNIcjp8QXOfM9a4CNVQj6MRxUQw3Iae4TItq2at0m2ieBZVhy8/nq8RSOWP3118vVLJGGBtm1W2fybedrExwUhTGFJUe0k3Vr1xI0O3tkFTg2Ljzt8VHzPQqYOnLsuQoVK9KtW7fInwMTaHo5JKBGD7lw4QKDVBCHb8pBLVu2MN7uPT/uRQcO7I8XgajABH7Xrl2P1u79+/do8Cef2ORD68GfHATgQujtrVu3ib4OHuRP6dNnEGVbOTz30GHDRFpuJDAhesqRI0fo1KnTlDxFcmrapCnlzJlDnIY2mzVvRj//fFFWE/tDBw8xaKeyyZMHMQGTKtv79+9TSEgw/ec/JyhTlkxUwbsCFSlSxBKA48JT9s3R3qOAydGF6LIXUwKFChUihF8CIUx17Tp1DXtNz549qWuXLqLs1KlT5NOunUjHdaMC0ydDhtC3337rVJNqcMtZX8yir75aaNRDdJcwBs4UKV61DLi5ioeks+fMtQRXRM0tUriIaMsq1Fn4iRMCoGHiCAraSPnz56PChQuL8x0BU9WqVejzqCErAoY2b9Gc7t27b/QZCQzzrGxNrvK0adzBQYICEx6cjBkz0l4ONdOckT5//vw8Tj5PAQEBlDpNaurHUXJz5cpFFyMu0tChwyzHwh9170YpOWCmSn+yxrRk6VI1yybdo0cPMVY+fvw4vwFCqGWLFlSFI2tky5aNfvnlF1q2fDnt3x8/b1cbxvog3iUwZ85sEQgSDcPOsm3bNoOHGu4I2oS3t3e8GItdBSbZH/TFKoDr6FGjqEmTJqL//fr3o717g41rcZSAzWvhwkiQw1CwOT/PKu0LDaGgjZto1qwvxBBRBUhHwKTGfEQoKYSUcpZc5els+wkKTGo0U7VDf/11l98cyWxizVnF2UIdicxq/ZiM35Lvjz+eY2DMRFmyZFGri7T5jRbtBJ3hFhIIDQ2l9OnSiaFRqdJlDNsMXj7duna16aM5EKRNYSwOXAWmozwEg2YEraNCxQrROGJWeeTIkSJ/fWAgjRs3Lto5VhkYTi1ftkwUnTt3lj5s1drqNCPPWWCS/y0rsDMaczLhLE8nm0tY47cECHTm8uXLrLFkFaqs7BzUR8Rol0bN2rXr0LXr12Sx2C9ZvJhSpUop0rlz5xb1nQUm2RCCYv7Eb5ocb+cwwjWjjTJly1mqqbKe3ie+BOQzdJtDYleuXFl0CDN0u3ftFMMXgABm6UDTp093qEmLk5zYqMB0585fHDk6mah18+ZNjof4I02cONFSu48NMO3ff4A+7vWxE70h6s+hwn19fcW5yxigpk6b5rCeMyABGe7Zvcto80T4CfqwZSvC0Pnp07/pypX/si1vAwXyzxlyhqcz7chznovGFBERQY1Zhc2ePTttY8MfCFO9devVY2B6nfaFRg6rpkz5jL5eEWlPkB1U9866C8iHGXXND8DChV9RqZKlRLPmoYHKS6fdQwLyrQ770ge1a4tOrVq1igqwWeDBg4c0Y+YMIxz82rXraMLECXHuuApMVo1hCh9+dOvWrbcpjmkoN4q1paasNYFOnz5NbX18bOpbHbz2+msUzKYQaGIYIjZp2oQiIi5ZnWrkOQMS5dgfcP68eaLOwYMHqXz58kZ9NXHy5ElqHwWKar457QxPcx1Hx88FmHbs3EmDBkXOoskHLTR0H/Xu01v07fixoyLs98KFi2jmrJl2+xtbYMKNLF+hAj/AD4w2ixcvRksWLxHHOkS4IRa3TEATCjsQJvomX25169alT1ljAQ0cOIBtSk9oNhuaQSEhodSnbx+RjstGAhO0NGj6f976k7JmfYPeey+PEXIez5Z5hgzaffHixQXrGTM+p0VRzxkykiVLTocOHjBGDFd//ZVwLTGRfOZx3rr162n8+PExVSFnQKINuywMHmw7sw3TR3j495TljSyEaMfSl2oeA9jcKBCzx9wZnvbqWuU/F2AKCgqi0Rx3HiRBSJ0ylSpwTONueZOcHcpB9TY7wWHYeIjfEKDNWzbTiBGRY36RoTduJQHYB4P37hF9gh0EGgaMrilTpuI/UDj5+vlRmTJl6Ev2YwLhzf8R257iSjAveHl5Ca1GbQva/dKlyylXzpwiG6DVsFEj45T8+fKzs+cqcQzgWs6TLDt27uK23qJB/v5iIkieDDNG7Tp15KHl/qPu3ak7/0BwI6heo4bleeZMZ0CiY8cO1Kf3vyAO7W/8hH9Br0CBAoSZQhAcLUuznB2RMzwd1TeXPRdggj/H5MkBgrcVCEmfCBWszB3FcWyBCW+Alh+2itaU9BlRNbloJ+kMt5CAvFf4I589e5aqVasmDODVqldjb+q7QuuQGtSmTZtoJM98JSQBtIL37hWaE8DH7GQ5edIkqh015DT3A5M+r/PQDJoI/JR82tkfyqmG8idPHlP9Bg3pxo0b5iYtj50BCVXztGdvXbt2DeXNk1fwqF6jJoPjTUt+yHSGp93KFgXPBZhWrFzBLgJTBHsJTKpamlDAZG8cLx92DUwWT4SbZUkN++nTp8YwCi85vOxAPj7tyJ+HdCBnhhzixDhuNvHUvHR6rPXBB9EAA6DSu08fSpc2rQAh2KTgqDlggD87XH4juO/evYcGRPXb3B34F02fNl3UxXW3at3aqeUosh1nQKJQocLsH7ZcVIELTYOGDWV1Yz9h/DiqX7+BOI7JvcEZnkbDTiQ0MEXZvpyQlT4lESRwkNeXpUkTOesG9hGXLtks+RjLJoJGUcOp4Tws38LDczNh+UTSpEmN7GfPnsVpNlZ1eOzAQyJ4StsjLPWQ/kElShRnzWKxOBV+eJhFNFPp0qXF0BRaFTSyLuwScfToUfNpDo+dAQksRQkNCRHt2BtZfMKe7VgHBxo7dqzDGTpneIqGnNxoYNLA5OSjkjinrV+3jo3O7wnm+KPWq19fzOjK3uzYvp0N01nFIWZ5MdtrJmkCkPmYzfMu7y0PY72Xs2+oWKZsWXr8+LFTbSxdsoSKFSsmzsVCWyyQVQl2HfQVIIprhZYSHByinuJU2lmQkBNR9uxXs2bOokqV3hc8W7dpQ2fOnLHL31medhswFWhg0sBkeiTc67AhDzHG8dsaZNaW3nknNwWuDxRDHkfGZCxpgX+OpEePHvLnc+wDE6bmYfC1IjljhzLM9nrbmWY31/X2Lk9z2YsdmpBVX3Plysnr7Naxz1RyUXXYsBH0zdYt5macOnYWJBZ+xa4zpSJdZ1qx0+ZZdt5USZpYkAdPdqulKfJ8Z3nK82Paa2DSwBTTM5Lo5apf2iIeCs3mLwnkyOHFw6Il7AeXVvQP/kwos6LYAhM0CdiEYBs9duw4OxteEQtx27E9C0urAC4gK3eTqfwFANDiJYvp3LkfeQYvBzVo0IDas4Yk65mHnPBV2rNrl7ES4tjxY+xAulu0Y97AAL2L7VMqYVhWs+a/M3YdO3QyHInnzJvD3y+7JU6/evUaz1yGGVXVGU04qmJYik+rAJjh41SiRAlxrpWt1lWeBvMYEm4NTJjWl17hMVwHqaqmfJCtBIp2tPE7Jmm6Vzm0JtiS5B/b3LuLFy+yT1ELu2/02AKTfD7MfNRj6Vel5iEdxJ7SWKFgj2D8Nn+T6b1336X17KPkDFlpaeoMm6M2rIZsC+YvoLJl/3UFgKEePleSMKTEEPlX9rtSKS481XbspZ8LMKlu9EePHBZOZqqXrgSgb77ZQsOGjzD6KmfwjAwHCfi4AIhAsp69FefywdvO9gnzpyscsNBFiSiBOuzzA3DC21wS/jSw0/j6dWCbjP0vWsbWxqTarSQvuccs2dKly4THucxT9/bcBTA0nDFjpuXKBgxJNwRuUJuxm8anSeA0rJI6vFTzzWl761EhV4C/Gfjhbd/9o+6WnuZx5Wnum/k4QYHJzEwfawnEVQL4DhO8kiMuRfAXIQ8Zi3rj2q65PjR1fNHxba+3KX2G9HSd/ajCT4ZH+xaSuR6O4bHuzUs+vN5+m/78808KCQ6lP2//aXWqW+XB+F6uXFm6cf0mHWYFwpHfUkJ3XANTQktYt68loCUQawloYIq1yHQFLQEtgYSWgAamhJawbl9LQEsg1hLQwBRrkekKWgJaAgktgf8HAAD///PsxewAAEAASURBVO19BXgV19b2KpQCFy2UFsotUkFKoUBxtwDF3SHB3a0kSCBoggcv7hqCFocAQQOEwi3SXqQt0g8v0AL3lv7r3cmeu8+cOZKE6L/X8yRnZtvsWTPz7mUz6628+T75mzRpDmgOaA4kIA68pYEpAV0NPRXNAc0BwQENTPpG0BzQHEhwHNDAlOAuiZ6Q5oDmgAYmfQ9oDmgOJDgOaGBKcJdET0hzQHNAA5O+BzQHNAcSHAc0MCW4S6InpDmgOaCBSd8DmgOaAwmOAxqYEtwl0RPSHNAc0MCk7wHNAc2BBMcBDUwJ7pLoCWkOaA7EKTC99VYyyvrBB/Tb//0fvX79l+a+5kC0OID76O+/X0erb0w6vfdeFnr+7Cn9+eJFTIZJsH3ff/99evbsGf3xxx9RniP63rt3/41dl1gHpsqVK1F7r/aUP38+euedlMYJv3r1kk6fPk3DvIfRkydPjXK5Ueyrr2jatOly1/L35csXVM3Dw7IuWbLklPKdFEn2JrI86SRcCFAI8J9EefLkpbRp09Bff/1Ft27dolWrV9PatWtj7cw7depIjRo1pg/ez0Jvv51CHOfvv/+m69ev06DBg+jf/75md2wA57ixflSqVCnKlCmTqH/w4AEdPnyYRo8ZY9feXJA9e3YaMXw4ffbZZ6LqUEgI+fn5mZtZ7rds0YLatmvH9/47or5xkyb0+PFjy7Zdu3Wh6tWqU44cOfjZjGiPhpK3I0eNpHPnwi37orBmzRo0dMhQevfdd+mtt95iUPqbn+XHFBoaSt4+wx32c6ciVoEJE580cZLTeYAJLVq2pKtXr9q0c6cvGFG4SBGbfoUKFaJpU6fSe++9J8qfP39OU6ZMoU1BQTbt9E7i4UC2rNkoKGgT/eMf/7Cc9PwFC2jOnDmWddEtBLjMnjWTypYt53CIMQwy5vsKC+L6dWsNUDF3Pv/999SOgcOKPvv0UxoxciR9yfewShcuXKQ2bduoRTbbmGuXrp3Is60npUmTxqbu61q16Pbt2zZlcieEAS9jhgxy1/J33rx5NJf/zDTa15caNGhgLjb2f/zxR36uW9F///sfoywqG3EGTD/99BOdCw+nSz/8QFmzZaNWPGmsfKAnT36nSpUr26h3KjCh7507d+3O6/nzZzT0m2+Mcqw0O7ZvF+htFEZuDB8xkrZt22ou1vuJgAMH9u+nzJkzi5niXggK2kw5c+akZs2aGte6Z6/edPTokTd2NtOmTaMqfE+CsAAeOXKUTp48ScmSJ6MivBiWL1eOxo0fR5s3B9scU+2H+3rNmlX0mv4mr3ZeBrAGBwfTKH6wVerRowd17dJFLTK2XQHT8WPHeezURnt1wxUwpUr5Dp0/f4EuXrxIv/z6MxUqWIjKly9PWbJkEcPg3Fu1bk0/8HMrKU+ePLRh/XqjfvWa1bRjx05xTYYOGUwZM74r6nbs2MGSk4/sFqXfWAWmwl8Wpl69epLf2LF08+ZNm4lBLD5yOMS4WF27daMTJ04YbVRg+mbYMPruu++MOkcbC+YvoJIlS9Dvvz+l7j260/+xLWvGjBn0ef78AvwqVKzgqKsuT6Ac+OKLL2jVypVidnfv3qWaX9cy7Bg9e/akLp07i7oLFy6wVNH2jZwFFsyjDERQT169esUSjiddunzJZmxIRmY7KSSXsNMnhcoHSaFW7Tr022+/iX65c+ei4EgQe/HiTypZqrTNeP6TJlGNGjVE2fUbN4QEGODvL/ZdAVP4uXNirv/5z38EUMJsUrBgQdHXGTClTZeWnj19ZjMPuePnN4bq1a0ndjdu2mSjSi5ZvJiKFi0q6gJnBdLChYtkN6EShvICAbON1XkaDV1sxCowuTg2jRgxgpo0biyaLVu2jKbyKiUpOsC0e9cuypo1Ky349luaPXu2GApqwK5dEaBWuEhR46aWx9G/CZsDc+bMprJlyopJDvP2pp07dxoT3r9vn6GyY2UvXbr0G7Ep+nj7CGkMB5o0yZ8gEbhDjRs1opGsioEOHDxI/fv3N7oFBPhTdY/qxn7/Af3pwIGDxr73MG8qXLgQjfEbK6SXDKxiHWZVC+QKmA6HHKLNwVsoMHCWUJ1U4HAGTMbBLTYgkW7dskXU/HDpErVkc4skyXfwvEjRr+yeKd9Ro6hhw4aiufk85RiufuMVmHAxmjdvJua4aNFimhk405hvdIBp+7Zt9NFHH9H27dvIZ/gIMVa5cuXZVhAoxHGzPco4mN5IsByQdhA8BMWKlzBsFlaqz+AhQ2jPnj0xPpe9PAa8TJBAipcoaffgOTrAvLlzBTiifuDAAbRv/wHRtECBArR61Sqbbnv27qHBg4fYlKk7UQEmtR+23wQwlS5dhubNnSOGhpOqU6RkioLTp04JyejZs+dUtlzEoiEaRv5TAdosbantnG3HKzBt3LDBMBI2Z2/C5cuXjbmqwARdPUWKt0XdvXv36PKVKzR+/Hg7b4MEOtzEe/ftpfv371MjRu5UqVILVbJe/frG+HVq16VOnTpQtmxZqXSZcnZiudFQb8QrB8L4oUiRIgU9fvKEKlasKOYCD90+frChauHhkLZK2HeWsuQdU5I2GxhwYSPp2KEDFS9enO+jVEI1O3HyBPn7T7YDrPXr11Fe9hqCvipW3ABRKWGocz3H6pdX+/YOpxqfwASP+NSpUyhDhoxifr6jfW1saVEBJtjmevXu5fA8HVXEGzDBlTo/0tqPuInSZcrYzFEFJpuKyB3o8BNZL9+wYaNRDR1/z+5dYrUzCnkDK19DFrNhL+jDTKpevbrQgdEGINbO05O+Z2+JpoTHAWk/gX2pRs2aYoJr1qwRdsM//viTZsycQcMiHSDr128QBumYnoU85pWrV+iTjz82wgTUcR8+fEitWrWmO3fvGMXSlIB7Skrnqh2sdZu2bC9bIdrD5qoulMYgkRtxCUxFihSmYWzHfSfFO6xx/NPmfMPCwqhjp04205NAi/O0UuVGsTrbiJ83EIzqrds49ijaDKzsxAswIWYi5NAhw/Ddo0dPCj0WqkwrIkYCoQZYKXERHz18xPaj91nCykPJkycXbcGYxk0a28SSAJwG9O8nRGqscDBanjsbLmwGuXPnNo4BaQrxL8uWLxeAZVTojQTDAUhCoUcj7gvEDTVg6bcWu78nsLQMGjRoINuUXglVHfuHDoVQ3359sRltQkjC8WPHbPojBunIkSP0VrJk5FGtmnHfmh86zBVzxqIJiQnq4J7du4VkB9sYbGQS9ABslatUsTmOuhOXwNS0aRMabhF3tGPHdst4pKVLlgjPJOY7Y8Z0WrxkqTF1OLWOHztqLPy3OFQB1yyqFC/AtHLFCsNrsG/ffhrIN5iZcGFgL8LFVylDhnS0bNkKyp0rlyh2tPJ8wBHmZukIMVNw+c6cGWjnZVGPobcTBgcyZcpMBw/sF5OBWoWVF4ZeqObhHHri6eVFJUqUoG85jgl0jAGlO7vdY0LqMTHOjRs3BSDKSHMAFyQGGVPVokVL416SKiAk9GKs+q1bu4by5ctPiKWrULGSACwJTKpqajXfuASmokWLEAz+yd9+WwRLqrFN8Ha28/SyMXXk53Nay+cGgnCwgp/n3Xv2CmlryODBRlAp6u/cucOe1K+xGSWKc2BC8GOVyJUCoFK/QUM7Xd3VGeCiHTxwQEhOqtiMftJ2pEpHCBtYw56VtGnTU7VqVSldunT0888/04SJE23sWq6Oq+vjngPnGYBAuMEvsXcI9w4kkipVq4g3BlQJagt7kUayRyimJI+Jccy2T5T17duPOrT3wqZQJRcvXiK2VRXHx2cE20HHinI1xkqO7UqSiEtgEpNU/sEjt5A925D4QFYq8iR+dmpGqtZKV7GJcJ10HIoAG6Arj6K5r9yPU2BS3bBQpWrVrk0vX76Uc4nS7xZ2j+bKlVP0qc7xH4gXWbFiuQgQQyGkoxMnjtP0GTNFVLkqpckDAdSgDkjviSzXvwmHA2fCTgubB66nVOFVF34bttsMjpS4HUUpR/Vszp45Y7noyXGkpxf7uzhERQb5Bm/eTHJBxCtXiOU5xR6szpGBk4gbCmVjMMisBopC5V98AhOmkTFjRjrEIQ8AF0fxSPC+9enblzKkTy/aYcFAAOzAgYM54HK7OBtHGpFyqpabcQZMqnsX3olatWvxivfEclLuFKog1L5Dezp79hy1ZmNkWw7dX83G0ZUrOeI28kXh2rXqGKsX4kvCToeRl5enWBEcMd2dOeg2sc+BY/zelfqaBYIP1VchxoweTfUjva2Oovthd5Sghhm/fv3auDeszgA2JqhqcJYUZ1XRTF98UdAwYsM2ChspaNGihVTsq2JGc6h0lSpXEp5DFKou+JCQw/xQ9zHamjfiG5gwn10c1JyN39IAuYoBhHQFzQQE1XBJpBQJLym8pVGlOAEmdVUDENSr38CIiI3qhGV7KTZjv0TJkk4lL/mawJUrl6lZ8xZiCHVFaNS4kY0BXR5D/8Y/B9SQEki4tevUES/vyplJTxj2IYHjxV4zmaVlePNKl7GNvFb7bNu6VbzYijJ4neQCJ9vUq1eP/CJfxl21ehWHDgSIqgEcUOnJHl5J5nfpYLSXhmB4E6UKKNurvwkBmEIOHTReLwFAA6jdoWVLl3KwaGHRFC8UR8fjHevApF5EnFiTpk3tXk+xOll47hwxQg0lsAo1MI83Z/Ys8TKm6vqE9+AUx6NgJZUSl7mf3o9/Dqj3j1la+uSTj2nTxk1CjXBmZMUrLXi1RZIrKVldSM2BvxhDlda9vYfTjp0RagscMyGHDhtqTclSZYxYJtxvMNxD+gPAluRwGWdmjNgGptTssU7+dnJDmpO8kb9qOI8rfsk++IVUOJej9aECOrsmah+r7VgFJpwcomExSdAads/fZFHciv7FLwmqyArvBfRVrEhhYWfol19+ES8JtmWbQhMOEZBjfrtwIc2aNctqSKMMn3fo0a2HuCF8fX0JYjQ+I1G+fDlRVpTFb/OqaHTWG/HOARlkiYlAypjNXxLImfMjVheWchBgejE/ZxJIVIFJXbQAIiNGjjJeAO/Vqxd1jozrwQNbtlwFA3wwEVXCO3/+vLDBoDyQ32rAC7IglCN2zkx49ebD7BGqU5p/pDFeaYGKtODbCM8j+uxhD5hqBoH07+FRzRiuQ/uO9OGHEePMmTeHHj54KOpu3brDnsuI8Is2rdsI+ypsXWvXrmcv5zn69davhFe4WrZsQa1btzLimazUzimTp4gxlyxdwg6kK+wlz0l169YVX06Qz6Yj1dqYqJONWAUmvCvkZXEBrOZjjoSV3gurtrJMxrbIfUe/eOEScVPp06ezawKwnMgeBk0JlwOQmmBLkje8eabXrl3jeLamDheXqAITxofXDd43SQAokDoHLG545UIlSHFr2capfntMrYcaidg7q0+RqF9RUPuYt82v3qieSXNbdR8Op6ochwUCMA3m70m5IoQ1ICDZLN1t5s8IfczBp47IUQyUo/bm8lgFpr59+lIHNky7Q2FnOMK0YyejqWo7MAojN+ChWbZsuXDVmusc7b/Ln2IIDAzkD9blFSsBVMCly5dy9Pn/ViJHfXV5/HPga46FATipHzQDWEDK9uQPEco4I6uZRtXGJMdA6Imv70jxSowswy88bt4cLLmXY/CsCPF3iPCWr3TINgCGlq1aGUZiWS5/VbupLLP6Vd/DQ71q2rBqL8sgeXkwyIAQ7T1h/ATx0rsKtrIteIv3Dsf4jbFU9xyFC8D8MoM94StXrZRDRes3VoEpWjNSOsEz8hW/t5PjoxyU8d2MdJdjWcLPh2tDtcKj/982EWNTuVIlun7jOn8p8biNGhVbvIB6U6lSRf6qEr/AevqU2/cf7ETVq3vwHP/LILbP4SdGYmve7owLbaIQfyLlI/6K5YfZswq174cfLtGVK1dd8hZR7qXZXIO+jx494vCCEHr0+JE7h3XZJkEDk8vZ6waaA5oDSZIDGpiS5GXVJ6U5kLg5oIEpcV8/PXvNgSTJAQ1MSfKy6pPSHEjcHNDAlLivn5695kCS5IAGpiR5WfVJaQ4kbg5oYErc10/PXnMgSXJAA1OSvKz6pDQHEjcHNDAl7uunZ685kCQ5oIEpSV5WfVKaA4mbAxqYEvf107PXHEiSHNDAlCQvqz4pzYHEzQENTIn7+unZaw4kSQ5oYEqSl1WflOZA4uaABqbEff307DUHkiQHNDAlycuqT0pzIHFzIFEBE9LwOPtSYeK+FHr27nIgvu6D997LQs+fPeW05C/cnWqM2kXnPJFkICN/rfXO3TsxOnZ8d451YFqyeDF9+ulnTs8TWScWcOZPK8LNEOA/ifLkySvywuOzukjRs2r1av6I+lqrLqIMX+ZL+U6KOLuJHE5EV7wRDkT3PojpwTt16kiNGjWmD97PYnycH5+dxffmB/E3s//972sOD9GyRQtC+qKUnPEH1LhJE3r8+LHD9qhAlpEB/fsRkrniu+FIeHCDE3hMmDBJfL3V3Dl37lw0dMhQyps3r0jvLT+Tizn++ecLTjy5gyZOmuTya5RyXHy6eCtnNE6TJq0oms0ZTxw9ZwDOcWP9CElHMmXKJNo/ePCADh8+TKMj01vJcaP6G+vA5M53jLdwHq+RI0fazR2fNA0K2mTkiTc3mM856+dwxgyVChUqREhD/t5774li5I2fMmUKbeKPp2tKnByIzn0Q0zPFQzd71kyR9svRWOa8cWiHfl26diLPtp42iTpR93WtWpZJCFAHqlKlMk2dMtUm4UFEDYlsPl26dhWZfWUZfps0bkwjRoxQi+y2kWDWgz/xi+/cuyI8O0jDLslRwkos/OvXraXPPrMWOs7zt9jbMShHl+IMmJA++Pjxk5bzDA4OskzTrWaNQCqnoKDNIoVTs2ZNjYun5oXPnj077di+3ahTDxaTVDLqOHo77jkQ1fvgTcxQJknFWJA+jnBq75MnT1Ky5Mn4Q/5FqHy5cjRu/DjavDnY5nDHjx3nhTS1TZnccQZM+D44MvlIiQcZo48fP06VKlYwwBHaQukyZWwylgCYhg8fTrf5e/ineH7XWJJ7/ddr8a3xAgU+N6S8CxcuUJu2beVULH8Lf1mYk3wstalzBEwqf548+Z3WrOHM1/xVdK92XoYgERwcTKN8fW3Gc3cnzoBJTR3jzuSQoBBpd0B3796lml/XMuxLPXv2pC6dO4s6leEL5i+gkiVL0O+/P6XuPbqLbBQzZsygz/Pn5zxcv1MFvsiaEhcHonMfxPQM8ZH9owxEAAlk/WjXzpMuXb5kMywkBqtchMiHiH5IDw7Qyp8/HxXkj/2DnAHTkCGDRYp7tNu1axcN/eYbbApaw+mgcA+DZs+ebWP2cGayQGagffv2CHACuBZmQHVGBw8cECoZnh+Z6swKmCAVhp0+KcaFwFGrdh0js3bu3LkoOBKso5Io0zyvBAtMc1i3RQJA0DBOlbNz505j7qp6CIaXLl1a2JJkyifYq3ABQVADdu36Tmy7yr8uGul/CYoD0bkPYnoCPt4+BKkcNGmSP61es9rtIZFtd3PwFk4VNkvYdWBjLVq0qOjvDJjQD+mecD+rWXphW9u3d48hSakpmNyZ1Lq1ayhfvghQq8MJKZE41ookMAJo5s6bR7179RbNrICpcaNGhukFkh3yR0oKCPCn6h4RKaJQ1n9Afzpw4KCsdvs3wQJTSEgIZWTxFheqWPEShvGuR48e1LVLF5sTlAkAt2/bRsjptX37NvIZHqF3lytXnm0FgWIcVyuGzaB6J0FwIDr3QUwnvpfzqb3//vtC6ileoqQhqUdnXHeACQbn06dOieHNwLOGnTyff/65zaG/LFzYZt/ZDhb07B9+KJqU5czTz54+s2v+z+z/FM8MJD1kNH7x50saOnSIaGcFTMiuDWEApOa4K1CgAK1etUqUy397GFQHD44YS5a58xtnwASAefLksdA/nzJzfmXPWhBnMQ1mD4AVybTQyARasWJF0URdPWDQg8gNgr4LBnoP86bmzZsJENq7by9BfWzUsCGlSpWabt68SfXq1xft8Q/JDDt16kDZsmVlvb2cpVhuNNYb8caB6NwHMZ2stBP9+OOP5O3jQx07dKDixYvzfZRKqCwnTp4gf//JbgGWO8CE7L1BmyKcM7ArdeveXZwCknxOnDBBbMOJkyZNxP1ekfPqufLuZciQjrp1606tWrYS/fHsVahYSWyb/8ELh3x90tyCPs6Aaf36dZSXveSgr4oVN4QGqcmoz6Y5w7b52I724wyYHE3g6tWr1L5jBzskl7o67Es1atYU3aWujTTLQPZhkXr4+vUbhCESuu+e3bvEaqceD/p+QxY/YS/o07uXSHksUzgDMJFHHhldNSU8DkTnPojpWchjXrl6hT7hNNhvv53CbsiHDx9Sq1atXcYLuQNMlStXounTpotjQMKB6QJS1JHDIWJRvXjxoljUy5YtJ9p4enpZhg4gO27uj3NTFlb/pPseHQBKvXr3sbzHW/M5QI0DyXFdAZM0meDZkVqIavdt3aatyESMMc0CAcrcoTgBpsyZM4tYjNt3btPbyVNwznNmXpYsxvzM6cEhCYUeDRX1iBdpwFKPmp990KCBbFN6JVQ0NDp0KIT69usr2gOcEAcCURMrHIyW586GC5tB7ty5RRv8w+qA+Ixly5cLwDIq9EaC4UBM7oPongSyPx8/dsymO2Jzjhw5Qm8lS0Ye1aoZXicARus2bWzamnfcAaY2rduwujNIdIU9C3atKZOnULVqVQmeuKpVq9GgQQOoTp26oo2PzwjavmOb+VAk1V61Ak6fRuy5u3//nlostiFVHdh/QADviRMnqWu3rqLcFTDh2cS1gT0KEhPU3j27dws7mARWCe4A8MpK+IHdJBwUxDowFeMU3xf4Ar58+dJmClClxo4dYxj1OrPd6FSknp0pU2Y6eGC/aA9xGhcfxkGoZOHh4Zyr3otKlChB33IcE+gY30jd2fak0gcffGAnHeEiw+U7c2agnZdF7au3EwYH3sR9ENUzUY+Jvjdu3BQLo3zjAMAFlQW/oBYtWjq9l9wBpg4d2lPfPhEL63JeKHezjUt6pGfMmE6Llywl31GjqCEv0CA/Pz/ayGYQM00OCCAsvlD5IAxA6gLhvu/Ttx8dPXrEpoucGwCmStUqLFk9FfWugEmqutBEirGKKw3sUDehLmI8CUyqKcbm4C52Yh2YnB3fz28M1atbTzQBo8FwSecZgEB3OD7j0qVLIuhLZaAqQW1hHXkkXziQtB2p0hEMimt4JUqbNr1YhdKlS0c///wzTWDR9/Lly6Kf/pcwORDd+yAmZyOPiTGac/S2+R7pyw95h/Ze4hAwKSxevERsW/2TDz/qHHnlVFvSjh3bOeSllAgQvnX7ttAU0FeNG+rWvQfHONlKdWhjpq7dulCPbhELNp6dMqwKSgFBVR/nzJtD8+dFLPIYwxUwSVsSVDlIb+PHjxWHVmMKJQ/VczDPz9l+vAITorRX8AoBUuORsH8m7LQQMYH2yZMnR5GN67YN67GDWaUDzWP3JlyceLWlUMFCogz9Tpw4TtNnzCTYsVauWGHEk4gG/A+MhVq4j8VZTQmTA9G5D2J6JmfPnBH3nGpDUceUnl6UmWOO1HbYdgeY1FgtSCEpUqQQ92b9Bg2EjQbjLFq4kIoVK4ZNjhuqLV7LEjsu/vnz6yg1atQQrdQYqJ38qkr27NnFcczhEF8U+IK+/PJL0QfPzml+FqG5yGDS4M2bhWSGBq9evRSvzkDbgdYDSpsuLYVyHBjIHXVXNDT9i1dggm4K1yzo+o0b1IAvhKRjoaGGF8Kqfszo0VQ/0ssmo7phyGvbtg3HnayhlSs5EvX1X2K42rXqGKiOuIuw02Hk5eUpdOOYBIHJuerf2ONAdO4D82xgd5SLG+pev35t3BvmttiHjQmqGpwlxdlkYKYvvihoGHdDj4VSjx49zU2MfXeACbaewyG2atYatn9OZIlekur2j0o8ngqiBw8don79+okhpQFbju/qV3VCLVrEIPlVBEiiH8C0UuVKBG8cCO/7zZs7R2yHhBxmNbKP2I7Kv3gFJlWEVZmGE9i4YYPxHg5Wrtp16tisEipjXa0gUgy+cuUyNWveQvAnY8aMdIhBCrEbjRo3cvoyZlQYqtu+WQ68ifvALC3Dq1u6TEQcjtVst/G7mzly5BBVRYp+ZQdi9erVI7/Il1RXrV7FoQMBVsOIMneACQ1lWAS2Hz9+RBUrVcamIER3nz0TJu5VV3OXfeSvOtcDHNndf8AAUQXtIo+D99xSpHjHAHI8ey9fvqArV3803n0bwAGVnuzJlmR+Z3DC+PGGCupK1ZVjmH9jFZhgfMOq44ikrop68wmoDDVLU4j72LRxk7hQsEHV5HgPZzRn9izxvlFYWBh17NRJNIUL+BTHo2Albc/Gx7NnzzkbQtfFEwfexH0AQzLUJUmupGTVTLBo0WKaGThTdhW/qsnA23s47di53aZe3XEXmALZIVOhQnnR1SwteTEIyOhq2KC8fYYbh0Bsn5XHTTZQ1a6AgMm0clXEa16y3urXlY0JEl7IocPi+YPtqmSpMkYsE54rOKpggAeoqVHsVsdyVBarwAQvAWIvdnNs0dZtW9mIeIX+ZjG6RMkSIhgya9asYl5YBSpWqmgHYuoqAgPjbP6SQM6cH7HevpTD99OLvmZAszpRaQQEo3x9fdmtelgY2stzJCzKirJYKtU+q/66LH45ENP7IKrApC5auD9GjBxF2/j+BfXq1Ys6Ry5uALiy5SoYDyXqIYl7eFTDpqAO7TvShx9mE9swMj988FBs37p1h73JESExKMjPr42s5ddHQDjmgIEDxKscMFJPmzpNgADqzNoBXPewpwIc9+7dS5d+uESvcU+zpDeU45OkEwhjVmdbExxBrsgVMKG/KsmeP3+e1bUIr2Igg7i086IcMYLRoVgHJg8PD6fzAsMQ/GV2ZaITVkvYkqBuWdG1a9f4GzdNXYIKRGG8uS1fTFTHMq9Oap3eThgciOl9EFVgwlnD6wbvmyTcpyD1XrRy26veYtnX6ldGWat1qgqklsvtdevW0/gJ4+Wu+JUxRTaFFjvjWL1av369RY19kTvABK1lLdtyZaCyeRQIG42bNHb6mRdzH3U/VoEJFxeGQXgZrAgu+34cDOnsY1uwQwGcZEwGxsFNgkhtT6/2vP3aami7MrxpHRgYyG975xXePnybZunypTZuUrtOuiDBcCAm90FUbUzypBF64us70u7+hSfKm6Oz9+6LiLWT7fFbs2YNmjRxklpkuW1+J042GsXfJUO8kgqAuN8RCAxbqZngdStfvgIb61Obq8Q+AHCM3xihJVg2sChswSES8q0KaCrQSqwI76WuWrlCvHys1uOYLVu1cks6U/up27EKTPJAn336KX3y6SfsBftAfM3vXyxufv99uGHFl+2c/eJdnsqVKrH37jqFhh63EZ+d9dN1SYsD8XEf4AsVldjUAJnp9OlTThfSN8XtIkUK01ccnHzixCl2uV9wOSwCij//PD+/sPtPSp06Ff307584BOdfTu1PLgd1swG+JVW9ugc/k/9lsN5n93qZm8PYNIsTYLI5ot7RHNAc0BxwwQENTC4YpKs1BzQH4p4DGpjinuf6iJoDmgMuOKCByQWDdLXmgOZA3HNAA1Pc81wfUXNAc8AFBzQwuWCQrtYc0ByIew5oYIp7nusjag5oDrjggAYmFwzS1ZoDmgNxzwENTHHPc31EzQHNARcc0MDkgkG6WnNAcyDuOaCBKe55ro+oOaA54IIDGphcMEhXaw5oDsQ9BzQwxT3P9RE1BzQHXHBAA5MLBulqzQHNgbjngAamuOe5PqLmgOaACw5oYHLBIF2tOaA5EPcc0MAU9zzXR4whB5COyd0vl8bwUDbd8eH/58+ecnr6FzblsbmDj9T9xt/pjotv0qdMmZI/Mpeas7Q8jvIpIRXbvXv339h1iVVg+uabb6h2rdpuneSdO7eM1ErogNTi06ZNd9oXaWWqOfimOL7znfKdFHF6EzmdrK6MEQcACgH+kyhPnrycUTmN+AD/rVu3aNXq1fwR/7UxGttZ506dOlKjRo3pg/eziE8yoy0+dXv9+nUaNHiQ069ZtuRP1LZt1058tRX9Gjdp4vKhx307kb/rja9XIs23/MQusg3hc9Iyyw/GUwlgPW6sH5UqVYoyZcokqh48eECHDx+m0ZGpptT2chv586bzc1akyJfG97txrNu375Dv6FF07ly4bGr3i88IDx0ylN59910xT/DlyZPH/IXZUJtMLnYd3SiIVWCaN3cuJ79znL9Lnd/Dhw+pcpUqRpE7304GIwoXKWL0wQay+06bOlWkWMY+8qlPmTKFNgUFYVdTIuQApIagoE0iCaXV9OcvWEBzOIPOmyQ86LNnzRRZfhyNa86nhnbo16VrJ/Js62mTsBV1jlKEow6EDCsbOGEApA9H9GXhwnZVALP169YaeRjNDc4zoLVjgDQT+Lp1a7ABSOZ6PF9Dhg6lPZFJadX60ZxtSE1Qq9ZhG5l7W7RsFe1PYMcqMDXgTLnVqjnOkpIvX17KkiWLOKcgBg4V2VVg+umnn+jOnbvmc2fQeUZDWSqThJTHO7ZvN1YZWY5fma1XLdPbiYMDB/bvF9IDZot7IShoM6fxyknNmjU1rnXPXr0tM+1E9wxlklT0xwN6hFNenzx5kpIlT8bSRREqX64cjRs/zkibLY9z/Nhxh4kBXAGTep5YUA8dOijyHWbOkpnKli4rFl3zQozjqnN98uR3WrOGs1DzF8q92nkZYB4cHEyjGExUUpM0ID/jlCmT6c7d/6OmnN1Egg7O3ZwbLk+ePAJAMRbqkWJ8x46d4pogZVRGTvwB2sFpyL19fMR2VP/FKjC5msyW4C2UK1dO0cyjenWbrAoqMH0zbBh99913roajBfMXUEnOWff770+pe4/uYrwZM2bQ5/nzs4j5O1WoWMHlGLpBwuIAElUi/RIIaaprfl3LsGP07NmTunTuLOouXLhAbdq2Fdsx/QdV8SgDEdQoqDXt2nnSpcuXbIaFlGJl9wk/d070Q9rszZuDOStPPipYsKDo6wyYkD8OKhUIINGkaRO7ZB1Wx4SEFnb6pFAzkXyyVu069Ntvv4lxcufORcE8B5A5ySeksr2RkhBSLZUpW9bgK9ojdVUHznIEmj17Ni349luxjX9qEs/AWYG0cOEiow7ZjEKPHhFSmPmYRiM3NuINmFTGII1TXc4hp1J0gEmmDQcTwUwQxNVduyJALSo539W56O3448CcObOpbJmyYgLDOGXSzp07jcmomZyxcsNs8CYM0z7ePkIaw4EmTfIXEoFxUBcbyEK7mRfcwMBZQo1RH2JnwLR1yxYhcWB48yLt7JCNGzWikZzyCXSAU97LjL3YDwjwp+oe1bEpqP+A/iKJJnbU58tKmgIIyrTk5lRTku/gOVKomx0RvqNGiRRUOI56TOy7S/EGTNDP60eC0cSJEwmJJ1VSGeeuxLR92zZCrqvt27eRz/ARYrhy5cqzrSBQiJxWYrB6TL2d8DgQEhJCGTk9EB6CYsVLGDaLHj16UNcuXWwmPHjIEEt7iE0jN3YgSWDhhNRTvERJuwfPjSGMJu4Ck5S0YJtp0rSp0d/VhmrHHcjZe/ftPyC6FChQgFavWmXTfc/ePTR48BBR1rdPX+rQob3YdpQ6HCCbIUNGu2fn9KlTIs/js2fPORNxxKKhHkgFy42bNoms12q9O9vxBkxSF4f4WbxEKTuxWAUmqGEpUrwtzufevXt0+coVGs+ZRc1uTe9h3tS8eTPByL379nJOrfvUiJMHpkqVmm7evEn12OYlCckMO3XqQNmyZaXSZcrZHV+207/xywGZHvzxkydUsWJFMRl46PbxQwZVCw8HVC8QbC1Lly0T2zH5J+9NgARsJB07dKDixYvzfZRKqEknTp4gf//JbgGWO8CE89nP9ytoOSe2PBd+jpo3a0FQY//66z/0yy+/sl0tyNKBs379OsrLnkrQV8WKG8AtpRqVP+dYzfRqHwFGKjD5+wewd9MWxDCeBCZsq9pGVIAJtrlevXthiChRvABTdbYnBfj7i4keP36cunXvbjdpFZjsKrkAgDaRs5Bu2LDRqIa+vWf3LjuvBla+hizywl7Qh5mE48vUxliJkV8drlhNCY8DUpKAfalGzZpigms4NTXshrCNIEuszBq7fv0GYZCO6VnIY165eoU++fhjI0xAHRde5FatWrOx+I5abLftDjDBxT9/3jzR99ixY1SmTBm7cVBw/vx5ca+qldJ8gftYagSq7a11m7YiWy76qIuz+nxt3ryZQwNGq8OSqsqholbt2oTwDJAEPUeqHLIJN+LnDXTx4kVq3aaN2I7Kv3gBJrg28+bNJ+YJxlllGpWMw0oJhj56+IiyZn2fXaJ5KHny5KIvGIP86GqKcYDTAE47DnsDVjgYLc+dDRc2g9y5cxu8gTSF+BekXgZgaUp4HIAkFHo0VEwMcUMNWPqtVasWTWBpGTRo0EC2Kb0Sqjr2Dx0Kob79+mIz2oS4nuMMDiohHujIkSP0VrJk5FGtmuHpcuehcweYWrFbfejQCBVLHvfKlcsUHv49ZeH4KWSglvFM8xjA5kaCGNqCP+ATFmpITFBB9+zeLdrDHge7nARaNSQHmXvRDvTHH3+w1mALhqrxG226duvGWYFPYJOWLlkiPJPYnjFjOi1eshSbgt5+OwXz76ix8N+6fVtcM1nv7m+cAxNiNQ6xkQ6MRjBWhYqVLOeKtMOwF+Hiq5QhQzpatmwF5c6VSxSrq4DaDow3S0d//fWXcPnOnBlo52VR++rthMGBTJky08ED+8VkoFZh5YV6AdU8PDycPL28qESJEvQtxzGBIG10Z9tTTEg9Jsa5ceOmAERp4AVwQWLAL6hFi5ZO7yV3gAm2HqhWkqAFjB03Vu5y6u/PaQ0HkoKwiBbnc5Yk1U5oBcVY3Vy3dg3ly5dfxO/h2QJgSWBS1WH0x5gYG4SAyoDJ/vTwwSMOFahvGK9FJf9TwzHy8/hr+TggCAcrVqyg3Xv28vP6TxoyeLAR4Il6eBhrfv01NqNEcQ5M0g6EWUKvhX4bVQJoHTxwQEhOqgiLcaTtSJWO4FVYw7EWadOm57iqqpQuXTqCJ3ACG90vX74c1cPr9nHIgfMMQCDc4JcuXaIqHISLh61K1Sq8sD21kaC2sGdrJHuEYkrymBinOUdvm+8RVZqAKrl48RKHh3QHmFQpEABToqS9zVW1JVXl2MD79++JY6pqlY/PCLa9RgCaCiTyfMzSCxb+IDZOw8VvReB5tmzZRJXZoziJn52akaq1uS/CddKlSyuEjwsXLnIYRyJQ5aToCUCpyCLqE1bVokNqDFT1GjWEUXLFiuVUqGAhMRykoxMnjtP0GTPp6tWrpAaTyeNhDlAHpCdDluvfhMOBM2GnhY0H11Oq8KoLvw2bAgbzNQSZ1ZzonsXZM2csFz05nvT0Yn/Xrl02Qb6yjfx1B5i++KKgYQeyCp3BWHjdpE6dumJY1QUfzPYhuQi/evVSqFCn2GvWOdJjmZYBIpQN0CAr1RMaSGDgbMqfL58BUFD5EIOVO3cusRCgr1XEObxvffr2pQzp0wsQwoKBANiBAwdzcOV2dKN9+/bTwMjrIwrc/BenElOZMmVpLselgKLqFjWfjwpC7VkUPnv2HLVmY2RbRufVbBxduZKjX1//JbrVrlXHWEkQ6xF2Ooy8vDyFPh6TIDDznPT+m+fAMX7vKk2aCK8bRr9+44YRlYz9MWy0rR/pbXUU3Q+7owQ19Hn9+rVxb2DfTLAxQVUzq02ynQokocdCqUePnrLK7tcdYIJ5I+TQIdEXtqVmzVvYjYP3TvHuHUh9FWbRooX8Xmkxoz0krkocrAlvHKh06TI0b+4csR0ScpiBpI/YtvonvZuy77atWylHjhwibAJqojOCbQuaCaho0SIchBkhRcJLCm9pVClOgUkFE0c3kbsnIEVYtC9RsiS9fPnSYVcZsq9edNXW1ahxIxsDusOBdEWcc2Djhg3GO2CQcGvXqWN4hzAZ6ZXCtuo5wr4ks7QMb17pMo7f4ZQPJPojgFAucHK8ehx/5xf5Yqwrc4Q7wIRxpR0ITpmqbGA3UyDbRStUKC+KW7ZqRT/88IPYHtC/P3myV1mSCloog6MAqiLIldopGkX+y549O+3kV0pA0vEQWeXyZ9nSpVQ48p0+vMQcHY93nAETViCsfjB6S0OdszOE3uvIWyY9duhv5VEwjztn9izxMmZYWJjxdja8B6c4HgUrqZS4zP30fvxzQAUBs7T0yScf06aNm8Q95czIildaEBMkyZWUrKqHixYtppmBM2VX8asusN7ew2nHzgi1xaZR5I67wLRoIUs+xSIkHyuDujRyY1gVLKGKhRw6bKhSJUuVETY4tMM9DmcBJE6AuvmdN7SxIkiY69auNjznvXr3Fl5Jq7bmMkho0IrwnDu7JuZ+5v04AyY1oMscOm+eFPaxgkBfxYoUFnaGg8x+ESH7bdmm0IRDBHDioG/5gs6aNUtsO/rXtVsX6tGth7g4vr6+BJHWz8+PypcvJ8qKsihsXhUdjaXL454DMsgSR4aheTZ/SSBnzo9YXVjKkcnpxYScSQNRBSZ10cIDPWLkKNq2bas4Tq9evahzp05iGwBXtlwFAwhQCEncw+N/Ek+H9h3pww8jDMhz5s1hr9dD0ffWrTvsRYwIhUCB6l2EKoXFErZRLNCIcSpatKjoZ2UnUqVKxDrB7gMKZECVNlerGCgYv+fPn09LWcKBLejPP56z3bcie7P7ECQmkBpiIAoi/02ZPEVsLVm6hJ0DV9hLnpPq1q0rvmIgn82YaEVxBkwh/Ka0fOu4CX+X5kcGHWckPQnO2rgrYiJYDDp8+vTp7IbDqzB4JUZTwuUApCbYkuQNb57ptWvXOJ6tqcPFJarAhPE78Aus8L5JAkCB1DlgccMrFyqpHja13LxtpbLJl9BlWxiTAZKSMAeoq7c5NkglSI5r2a4qg4bVOmxDdUW8n7mfGoZg7iP7ebItFgBpps0cif4xB586Ihi/vX2GO6p2WR4nwPTZp5/Sxo0REdpWF8RqlqrtwFwPD82yZcuFzmyuc7T/Ln+KITAwkN/2zisuNlTApcuX8moUEQPjqJ8uTxgc+JpjYQBOqmsbDyrsF55e7Vnyfe1wolG1McmBEHri6zuSX4f6HzigDt4vbw5c3MtShplUM4O5Tt03vxgr63COAGIVAFGHyPdu3buxveeGbGrzC+ln1coV4t02tQLPG2xS0jCt1jn6HhP4eoOdDIgTc+Q1dxQuAPPLDPaEr1y1Uj1UlLfjBJiiPKvIDrBL4Ut+OT7KQRnfzUh3Oa4i/Hy4NlRHl6FJoB++w4RI6Os3rvOXEo/bqFGxdXp4gCuxigOZ6fTpU3Fy/0GaKVWqJP129x6dPHXSiFtydY6I8ate3YP58l8Gzn307OkzV11EkGWBAp/zy9IZKexMmIg4dwb0ckB48Urz6zQfsefu0aNHHDgdQo8eP5LVMfpN0MAUozPTnTUHNAcSLQc0MCXaS6cnrjmQdDmggSnpXlt9ZpoDiZYDGpgS7aXTE9ccSLoc0MCUdK+tPjPNgUTLAQ1MifbS6YlrDiRdDmhgSrrXVp+Z5kCi5YAGpkR76fTENQeSLgc0MCXda6vPTHMg0XJAA1OivXR64poDSZcDGpiS7rXVZ6Y5kGg5oIEp0V46PXHNgaTLAQ1MSffa6jPTHEi0HNDAlGgvnZ645kDS5YAGpqR7bfWZaQ4kWg5oYEq0l05PXHMg6XJAA1PSvbZJ9szwsXx3PmT2phnw3ntZ6Pmzp5yW/IVbQ+Nrm++++67IeehWB4tG+Ejdb5wWKS6+SZ8yZUpKnTo1PX782GImcVukgSlu+a2PFk0OABQC/CdRnjx5OaNyGsLnlW/dusXJKlZzuuq10RzVdbdOnTpSo0aN6YP3sxjf38anZ/G9+UGDB9l8zRLf527RvDk1b95MJCCQ3+tGe3zKeQN/Xnr69BlOQRXfp584Ybz4cmvmzJmNT+zik7X4jHDHyEQIcub4nnmOHDnlrtPfPXv3iCQcaiN8JXb6tOlUpMiXxjfDcSykDPcdPYrOnYvIhKz2cbTdpXNnzuvYTlQ/efKY6nByguiSBqbock73izMOQGoICtokklBaHXT+ggU0hzOnvEmCVDZ71kyR9svRuOYcbpMDAjhDioej5qL8wYMHVJO/X26VmgwZVjasXy8SsToaxJwRNyQkhD+Jm8FRc5tyc8JLR9/8lp0AqEOGDqU9e/bIIoe/H3zwgcjxJ79V7k6KNoeDcYUGJmfc0XUJggMH9u8nSA8gpPQKCtosUnk1a9bUkCh69upNR48eeWPzlUlSMSAe0COcZvvkyZOULHkyli6KUPly5Wjc+HEilbY8KFIaVatWVbQ/x+nHvr9wgT/qf12kUEK2YJkN+OTJU9SlaxfZzfhVz/P58+d0iDMLIcN05iyZqWzpslSoUCEqzMdWafCgQcyLXGqRzXbJksUNSagTSzSnT5826tUkDcgBN2XKZLpz9/+oKWdUadCggWiHc3cnHx0ANU+ePMbYGpgMVuiNpMgBJKqEugJCppCaX9cyVKGePXsS1AfQBQaBNm3biu2Y/oOqeJSBCKs/JJt27Tzp0uVLNsNC5TLbfTCXDz/8kCbzAy7TbMtO+fPlpzVrVosx8bCbAaYyp/WGSgUCSDRp2sRuDKtjyvGtftH+9KkTQgXFfMqWK2s0Q0rvvZGSENI7lSlb1uArGiF1FVJYgWbPnk0Lvv1WbFv9a8CgO5qzu+C8AEiwrSVoYMKNkylTJjqw/4BIUpk/f37OUfUj+fv70z/S/IP69+tHuXPnpmvXr3E6HB87oxtuEOj3WJ2yMCPTsD58h2/Oy5cu09Zt2+jixQt2fEK6ZORbf/3Xa3GDWKUOb9iwAWdmLSj6Lvx2IY95x24cXZAwODCHs7qWLRPxQA3jlEk7d+40JqamicdDUbp0abcN08YgFhs+fC9CGgNNmuRPqxlQ3gRt53sWaZZATZs1s8nXtnXLFiEFos6jenXLdEuoiwq1btWahgwZLLrAvjV27Fiju5pmKjg4mEb5+hp12AConeWMKQBnR6mm0A42KuRsBBghx151j+oif2OCBiY1gypOQtLvvz/lE3mbUqVKLYvsTh5J/II2BRn1VhvLli2jqdOm2VR179aVunXrLsqQiqZjx0429WrG08dPnlDVqtXiJAWQzST0jtsckDYUAE+x4iWMa9WjRw/q2sVWHRo8ZIhb9hBXB4ckAYkCD1fxEiVtJAlXfZ3VbwneQrk4Yy2oAS+Oao44ZJ4GCPz4448sLUWAorOx3Kn7bud3RhbgylWqclbdB0Y3NTN2QMBkyzxwSC+egVM6WUl4cqB5c+eKBQHG/bLlyhuJZRMNMN28eZOyZctq6Ls4MYisyIMF1AXVrPm1Ib1A9F27do0oB2L//MvPnGPrN4KRDbnmpJHNKkX4yhUrqWDBiFz1/v4BIs04BoIEhlUWgAhmN+UbwFVGYDEB/S/eOCAXNywiFStWFPOAh24fe5hwD0BFwXUFwS60lBermNLxY8f5nkwtQMLbx4c6duhAxYsX5/smlXD9nzh5gqX+yVEGLHku5ocW57N/314x7eXLl9O58HPUvFkLluq/YO/jf+iXX35lu1oQbeI/dwmSGSQ00I0bN6l+g/o2XVVgUp8RtZEEJpQVLlLU7nxLcU45pC8HDf1mKO3atZuOHD6SeCQmmcob+dB37tghTgSuXqQ7zpAhHR0OiTBaqsiNi+Xj401Tp07lC/OL6CP/ZcqUWdyYMCaadWe0AdABgPALAGrYqKFYndRU0eqx5Lj6N+FxQEoSsC/VqFlTTHANp8P+nM0CsI3MmDmDhn3zjShfv36DMEjH9CzkMa9cvUKfcBps6fZXx3348CG1YlXJXTPANzzHli1aiCFgGPdq394YTn3Ajx07RmXKlDHq1I3z589TOzZVuEMBAf5CrULbsePG0oYNEZmwZV9Vldu8eTOHBoyWVeJXVeVQgGcVz6wkeC2hwmXIkN5GyktUwLSbReMhLGaD5EVXXZdnwk6Li79o0WKaGThTnrvT34VsjMMqBjK7UFEGD8ZyXj2xquImws0MmxcIngl4KDQlbA5AEgo9GiomKRe3WrVq0YTx40XZoEED2ab0it36gWL/0KEQ6tuvb4xOCovZcQYHleDiP3LkCL2VLBl5VKtmSPgXL16k1m3aqE0tt5FVd/WqVeJehLRUtVoVTr391GjbqmUrGjo04vmQhVeuXBYZcbNw/BQyD0sNYR5LKHMjpRTZ1ur39KlTwu7z3//+h1Vge3UUmsee3btFV6hhpU1gqBq/0ahrt2504sQJ41C+o0ZRw4YNxcJfp05d+vXWr6IuUQGTisgShHaw5AQxGSSZCOOZn5+fKJP/0qZLS81Y5YKRHHEXKVOlFFUIKpPxG1hxrKJxrewQT578TtU8qlnGkchj6t+EwQFIxgcP7BeTge0FIAD1Aqp4eHg4eXp5kWozhLTRnW1PMSH1mBgHalAD8QC+FsOq0jgKWrRoaeexEw0j/0Ej2Lljl6FuensPpx07t6tNqEOH9gTVShKkG0g5kgBsaziQFAQvYfESJWSV5a/0kqEy9Fgo9egRsSCbG2NMjA1CQGXAZH96+OARhwrUF6CjtlfDMWD/3bRxkwDLLWy0H8kgJSlRARO8GvBugKxASOr0KlihrZ/fGKrLaCxXC5RZUYWK5W1WILWNFPtRBrWuGUfmXr16VW2itxMwB84zAIFgj7x06RJVqVJFGMCrVI2QOlQJyvyQRPe05DHRvzmrX5cvX7YZSpUmoEouXrzEpl7uwFO1Y/t2I2DSDDiynXoOkKhKlCxlF4qwfv06ystR76Cq1Tzo/v17srvdr2pkb9W6Nf3rX/+ya4MC2KGCWBjAPK0IPM+WLZuo+pol1du3b4vtXd99J8qhSpevUMFwSKAyUQHTqtWr2FgYIE5KApPqvrQCJu9h3iK0H50AKFgxf/75F3rMoe6g0iwlwWYFqsiirqP3e9QgMozTuEljm9cIxAD6X4LlgJSw8QqKDFBUXfht2rSlwazSgdxVc1yd7NkzZ8SxcL+Y443Qtxx7n6T6uGvXLjb8Rti41HFhg9nM0eqQ9EEI0OzVu5faxNhG6MqqlSvE/s8//0x169Uz6uTGuLF+BJUJ1H9Afzpw4KCssvlV45MeP37Ez0Zlm3rzDiS6wMDZlD9fPgOgYPrYvDmY555LLAToI80lqoQKG1xYWBiqDWrOYRCwyYF3Msxi8eKlToHU6KxsxGrkt/RCRAeYJIBhBanPUaiq4Q3znz9vPpUqVVKciiNgQsCbtCvJc8Y7PFWqetigvKzTvwmPA8dCQylNmjTGxK7fuGFEJaNwDBttEVUNGj5iJG3btlVsq/8AEhLUUP769Ws7iURtDxsTVDZHapMKJI5UJXVBdBX8iVdRYEgGwbbUrHmEkVwURP5TjefmV2HUdqirHwls8PBNYeeRuyS9m3AogbZt3SpiAlUvohoI6u64ffr2IdiUo0IJEpjUC3WQL1g/DsQ0025eqbJmzSqKrYAJrlbcHFADweht27cZXpETJ06yMa+reUi9nwA5sHHDBvrss8/EzLAK165Tx2aRUu8Ds+dIno4KEiiDClK6TGlZbfcrH0hUFCn6lR2I1eMH348BAKQuuqKA/0Fyg0QPgtG+IQcJu/oagnQK3b9/n1W1aqKv+i9wZiBVqFBeFLVs1Yp++OEHtdrYltoHeFWxUgWHJg6jg4MN1YMuHQ9oWrRoEZrr5L1ENTbxxYs/xejduneP0svA6JQggUn1xiD+qV7kiijOkv+p7lWUmYEpNceb7Of3q7DS4gKROrmBAAADs0lEQVThVQV4UBDhmjtXLnQRqiVuKk0JmwMqCJilJdUIC3sIXo61IjVMBPV4YEqWcgxMqnpo5SlesWK5eP8NY5mN2XiroQZHboMwpzp167klnS9auJCKFSsm+lkZ1CXgoIEVWKK8Oh83gI8PgprVrFlzsR3Vf5Aw161dTXnz5hNde/XuLbyS7oyT5G1MUpUDM8axexgvbsL1WaVKZfJnQ3qKFCkMPpmBSQ2wVG8sSGL79u4VfQFYOsDSYGGC3pAmAUwShubZvGLnzPkRLWHbBeJoQM6M0FEFJthITnEQJdQ/3CcjRo4yVMRevXpR58hPjwDgypb7n/F3QP/+hFeiQOg3bfp0evXypdg3/0NogxoDpdpuIOG3Z08dnDQwTCOIsWjRomIIZyEK69etNcDE/PqO+fjYh/F7/vz5tHTpUtq3bz/9+cdzXuQrUp/efQz7LexNldnh4C4leWAaOGAAvzwZ8W0XMAUXGrYBaSvATSHFRhWYunO8RTf+A+FN9MZNmoht+Q/ANm3qNLGLaGJ8psLqExSyvf6Nfw5AaoItyZF39tq1a3ydm9qpXHLmUQUm9OvQ3ku8yCrHwP0HUueA0BaEuEgyv2Evy61+raLUF8xfQCVL/i8UAAuxGtyJOUBdld4xdVwsuocOHhTzc2QbU9tjWw1DMNdhHyqvp5dnlLzYiQqYVCPc6VMneRVISWqUrjQ2bmc7kM/wEQaPxnMsR61atW1uBlycrWyUe/HipeG1q8CvKjxhkMmZMydtYXUNNw8uTjUGHZSbCQF6cNGC3kRQnnl8vf/mOfA1q2kAJ9W1jXsBH0/z9GrPC1dEnJHVkaNqY5Jj1Kldl3x9R9pI56h79eolq3DetJelDJVUiUUtt9qGURrPhZlwjgBiFQDRBpHv3bp3s3m/Tu2rhjBA+hkY6alU25i3HX2PCXy9wU4GxIlZPT/mcdT9w2zkhhTrLjiqfdXtWLUxqQeK7jZWAnjfPvrnRxyxHUbh5yPiWqI7nu6XuDmAxQeR0Nf5O0ehocfdst/E9IzxAFdiFQcy0+nTp+Ik3ATSDO773+7eo5O8mDuLW4rp+eFYBQp8zgHLGQkvvoeHf+8U6GN6PHf6J3hgcuckdBvNAc2BpMUBDUxJ63rqs9EcSBIc0MCUJC6jPgnNgaTFAQ1MSet66rPRHEgSHNDAlCQuoz4JzYGkxQENTEnreuqz0RxIEhzQwJQkLqM+Cc2BpMUBDUxJ63rqs9EcSBIc0MCUJC6jPgnNgaTFgf8HkzymojlfOAMAAAAASUVORK5CYII=;" vertex="1" parent="1">
          <mxGeometry x="250" y="30" width="294" height="298" as="geometry" />
        </mxCell>
        <mxCell id="e7r8Hhf1rWDUr8E3D0WA-6" value="" style="shape=image;verticalLabelPosition=bottom;labelBackgroundColor=default;verticalAlign=top;aspect=fixed;imageAspect=0;image=data:image/png,iVBORw0KGgoAAAANSUhEUgAAASoAAAEsCAYAAAB0Y/4yAAAMPmlDQ1BJQ0MgUHJvZmlsZQAASImVVwdYU8kWnluSkJCEEkBASuhNEJESQEoILYD0biMkAUKJMRBU7GVRwbWgIgo2dFVEwQqIHbGzKPa+WFBR1sWCXXmTArruK987+ebeP/+c+c+Zc+eWAUDjOE8iyUU1AcgTF0hjQwKYySmpTFI3QOCPDqjAm8fPl7CjoyMAtIHz3+3ddegL7YqjXOuf/f/VtATCfD4ASDTE6YJ8fh7E+wHAq/gSaQEARDlvMblAIsewAR0pTBDihXKcqcRVcpyuxLsVPvGxHIhbAVCj8njSTADolyDPLORnQg16L8TOYoFIDIAGE2LfvLyJAojTILaFPhKI5fqs9B90Mv+mmT6oyeNlDmLlXBSmFijKl+Typv6f5fjflpcrG4hhDRs1SxoaK58zrNvNnInhckyFuEecHhkFsTbEH0QChT/EKCVLFpqg9EeN+PkcWDOgB7GzgBcYDrERxMHi3MgIFZ+eIQrmQgxXCDpFVMCNh1gf4oXC/KA4lc9G6cRYVSy0IUPKYav4szypIq481n1ZTgJbpf86S8hV6WP0oqz4JIgpEFsWihIjIaZD7JSfExeu8hlVlMWJHPCRymLl+VtCHCsUhwQo9bHCDGlwrMq/JC9/YL7YxiwRN1KF9xZkxYcq64O18nmK/OFcsEtCMTthQEeYnxwxMBeBMDBIOXfsmVCcEKfS+SApCIhVjsUpktxolT9uLswNkfPmELvmF8apxuKJBXBBKvXxDElBdLwyT7womxcWrcwHXwYiAAcEAiaQwZYOJoJsIGrvaeyB/5Q9wYAHpCATCIGjihkYkaToEcNjHCgCf0IkBPmD4wIUvUJQCPmvg6zy6AgyFL2FihE54AnEeSAc5ML/MsUo8WC0RPAYMqJ/ROfBxof55sIm7//3/AD7nWFDJkLFyAYiMjUGPIlBxEBiKDGYaIcb4r64Nx4Bj/6wueAs3HNgHt/9CU8IHYSHhGuETsKtCaK50p+yHA06oX6wqhbpP9YCt4aabngA7gPVoTKuhxsCR9wVxmHjfjCyG2Q5qrzlVWH+pP23GfxwNVR+ZGcySh5C9ifb/jySbk93G1SR1/rH+ihzTR+sN2ew5+f4nB+qL4Dn8J89sYXYPuwMdgI7hx3GGgETO4Y1YW3YETkeXF2PFatrIFqsIp8cqCP6R7yBKyuvZL5zrXO38xdlX4FwivwZDTgTJVOlosysAiYbvhGETK6Y7zSM6eLs4gaA/P2ifHy9iVG8NxC9tu/cvD8A8DnW399/6DsXdgyAPR7w9j/4nbNlwVeHOgBnD/Jl0kIlh8sPBPiU0IB3mgEwARbAFs7HBbgDb+APgkAYiALxIAWMh9lnwXUuBZPBdDAHFINSsAysAmvBBrAZbAe7wF7QCA6DE+A0uAAugWvgDlw9XeAF6AXvwGcEQUgIDWEgBogpYoU4IC4IC/FFgpAIJBZJQdKQTESMyJDpyDykFClD1iKbkBpkD3IQOYGcQzqQW8gDpBt5jXxCMZSK6qDGqDU6HGWhbDQcjUfHoZnoJLQInY8uQSvQanQn2oCeQC+g19BO9AXahwFMHdPDzDBHjIVxsCgsFcvApNhMrAQrx6qxOqwZXucrWCfWg33EiTgDZ+KOcAWH4gk4H5+Ez8QX42vx7XgD3opfwR/gvfg3Ao1gRHAgeBG4hGRCJmEyoZhQTthKOEA4Be+lLsI7IpGoR7QhesB7MYWYTZxGXExcR6wnHid2EB8R+0gkkgHJgeRDiiLxSAWkYtIa0k7SMdJlUhfpg5q6mqmai1qwWqqaWG2uWrnaDrWjapfVnqp9JmuSrche5CiygDyVvJS8hdxMvkjuIn+maFFsKD6UeEo2ZQ6lglJHOUW5S3mjrq5uru6pHqMuUp+tXqG+W/2s+gP1j1Rtqj2VQx1LlVGXULdRj1NvUd/QaDRrmj8tlVZAW0KroZ2k3ad9oDPoTnQuXUCfRa+kN9Av019qkDWsNNga4zWKNMo19mlc1OjRJGtaa3I0eZozNSs1D2re0OzTYmiN0IrSytNarLVD65zWM22StrV2kLZAe772Zu2T2o8YGMOCwWHwGfMYWxinGF06RB0bHa5Otk6pzi6ddp1eXW1dV91E3Sm6lbpHdDv1MD1rPa5ert5Svb161/U+DTEewh4iHLJoSN2Qy0Pe6w/V99cX6pfo1+tf0/9kwDQIMsgxWG7QaHDPEDe0N4wxnGy43vCUYc9QnaHeQ/lDS4buHXrbCDWyN4o1mma02ajNqM/YxDjEWGK8xvikcY+Jnom/SbbJSpOjJt2mDFNfU5HpStNjps+Zukw2M5dZwWxl9poZmYWaycw2mbWbfTa3MU8wn2teb37PgmLBssiwWGnRYtFraWo52nK6Za3lbSuyFcsqy2q11Rmr99Y21knWC6wbrZ/Z6NtwbYpsam3u2tJs/Wwn2VbbXrUj2rHscuzW2V2yR+3d7LPsK+0vOqAO7g4ih3UOHcMIwzyHiYdVD7vhSHVkOxY61jo+cNJzinCa69To9HK45fDU4cuHnxn+zdnNOdd5i/OdEdojwkbMHdE84rWLvQvfpdLl6kjayOCRs0Y2jXzl6uAqdF3vetON4TbabYFbi9tXdw93qXude7eHpUeaR5XHDZYOK5q1mHXWk+AZ4DnL87DnRy93rwKvvV5/eTt653jv8H42ymaUcNSWUY98zH14Ppt8On2Zvmm+G307/cz8eH7Vfg/9LfwF/lv9n7Lt2NnsneyXAc4B0oADAe85XpwZnOOBWGBIYElge5B2UELQ2qD7webBmcG1wb0hbiHTQo6HEkLDQ5eH3uAac/ncGm5vmEfYjLDWcGp4XPja8IcR9hHSiObR6Oiw0StG3420ihRHNkaBKG7Uiqh70TbRk6IPxRBjomMqY57EjoidHnsmjhE3IW5H3Lv4gPil8XcSbBNkCS2JGoljE2sS3ycFJpUldSYPT56RfCHFMEWU0pRKSk1M3ZraNyZozKoxXWPdxhaPvT7OZtyUcefGG47PHX9kgsYE3oR9aYS0pLQdaV94UbxqXl86N70qvZfP4a/mvxD4C1YKuoU+wjLh0wyfjLKMZ5k+mSsyu7P8ssqzekQc0VrRq+zQ7A3Z73Oicrbl9Ocm5dbnqeWl5R0Ua4tzxK0TTSZOmdghcZAUSzoneU1aNalXGi7dmo/kj8tvKtCBH/JtMlvZL7IHhb6FlYUfJidO3jdFa4p4SttU+6mLpj4tCi76bRo+jT+tZbrZ9DnTH8xgz9g0E5mZPrNllsWs+bO6ZofM3j6HMidnzu9zneeWzX07L2le83zj+bPnP/ol5JfaYnqxtPjGAu8FGxbiC0UL2xeNXLRm0bcSQcn5UufS8tIvi/mLz/864teKX/uXZCxpX+q+dP0y4jLxsuvL/ZZvL9MqKyp7tGL0ioaVzJUlK9+umrDqXLlr+YbVlNWy1Z0VERVNayzXLFvzZW3W2muVAZX1VUZVi6rerxOsu7zef33dBuMNpRs+bRRtvLkpZFNDtXV1+Wbi5sLNT7YkbjnzG+u3mq2GW0u3ft0m3ta5PXZ7a41HTc0Oox1La9FaWW33zrE7L+0K3NVU51i3qV6vvnQ32C3b/XxP2p7re8P3tuxj7avbb7W/6gDjQEkD0jC1obcxq7GzKaWp42DYwZZm7+YDh5wObTtsdrjyiO6RpUcpR+cf7T9WdKzvuOR4z4nME49aJrTcOZl88mprTGv7qfBTZ08Hnz55hn3m2Fmfs4fPeZ07eJ51vvGC+4WGNre2A7+7/X6g3b294aLHxaZLnpeaO0Z1HL3sd/nElcArp69yr164Fnmt43rC9Zs3xt7ovCm4+exW7q1Xtwtvf74z+y7hbsk9zXvl943uV/9h90d9p3vnkQeBD9oexj2884j/6MXj/MdfuuY/oT0pf2r6tOaZy7PD3cHdl56Ped71QvLic0/xn1p/Vr20fbn/L/+/2nqTe7teSV/1v178xuDNtreub1v6ovvuv8t79/l9yQeDD9s/sj6e+ZT06ennyV9IXyq+2n1t/hb+7W5/Xn+/hCflKT4FMNjQjAwAXm8DgJYCAAPuzyhjlPs/hSHKPasCgf+ElXtEhbkDUAe/32N64NfNDQB2b4HbL6ivMRaAaBoA8Z4AHTlysA3s1RT7SrkR4T5gY8jX9Lx08G9Muef8Ie+fz0Cu6gp+Pv8L8cV8XCu9DJQAAACKZVhJZk1NACoAAAAIAAQBGgAFAAAAAQAAAD4BGwAFAAAAAQAAAEYBKAADAAAAAQACAACHaQAEAAAAAQAAAE4AAAAAAAAAkAAAAAEAAACQAAAAAQADkoYABwAAABIAAAB4oAIABAAAAAEAAAEqoAMABAAAAAEAAAEsAAAAAEFTQ0lJAAAAU2NyZWVuc2hvdNrHh28AAAAJcEhZcwAAFiUAABYlAUlSJPAAAAHWaVRYdFhNTDpjb20uYWRvYmUueG1wAAAAAAA8eDp4bXBtZXRhIHhtbG5zOng9ImFkb2JlOm5zOm1ldGEvIiB4OnhtcHRrPSJYTVAgQ29yZSA2LjAuMCI+CiAgIDxyZGY6UkRGIHhtbG5zOnJkZj0iaHR0cDovL3d3dy53My5vcmcvMTk5OS8wMi8yMi1yZGYtc3ludGF4LW5zIyI+CiAgICAgIDxyZGY6RGVzY3JpcHRpb24gcmRmOmFib3V0PSIiCiAgICAgICAgICAgIHhtbG5zOmV4aWY9Imh0dHA6Ly9ucy5hZG9iZS5jb20vZXhpZi8xLjAvIj4KICAgICAgICAgPGV4aWY6UGl4ZWxZRGltZW5zaW9uPjMwMDwvZXhpZjpQaXhlbFlEaW1lbnNpb24+CiAgICAgICAgIDxleGlmOlBpeGVsWERpbWVuc2lvbj4yOTg8L2V4aWY6UGl4ZWxYRGltZW5zaW9uPgogICAgICAgICA8ZXhpZjpVc2VyQ29tbWVudD5TY3JlZW5zaG90PC9leGlmOlVzZXJDb21tZW50PgogICAgICA8L3JkZjpEZXNjcmlwdGlvbj4KICAgPC9yZGY6UkRGPgo8L3g6eG1wbWV0YT4KTDv3KgAAABxpRE9UAAAAAgAAAAAAAACWAAAAKAAAAJYAAACWAAA+XYIyjbgAAD4pSURBVHgB7F0HfBTV8x+liKAUEaWFpkhRkdBCaIEAkQ5K7733EpDeQYiAgDRRqgiGLkU6CRA6AkoHKaICIgjSBJXff74veeu7vb3L3SWX/yW++XyS2319Z3e/O29m3ptn8uV/7X+kSXNAc0BzwIc58IwGKh++O3pomgOaA4IDGqj0g6A5oDng8xzQQOXzt0gPUHNAc0ADlX4GNAc0B3yeAxqofP4W6QFqDmgOaKDSz4DmgOaAz3NAA5XP3yI9QM0BzQENVPoZ0BzQHPB5Dmig8vlbpAeoOaA5oIFKPwOaA5oDPs8BDVQ+f4v0ADUHNAc0UOlnQHNAc8DnOaCByudvkR6g5oDmgAYq/QxoDmgO+DwHNFD5/C3SA9Qc0BzQQKWfAc0BzQGf54AGKp+/RXqAkgPPPPMs/e9/T+VpgvzqPhOEzbF2ooEqVha5VuCFF1+gXDlz8Yv0Pzp58qRrlf5jpUqUKEGh/frRSy+9JK580uTJtHHjRqdcePnlTBQ2cQK98UY+euGFNPTPP//Qzz//TEu+/JKWLVvmtK6nmZ72CVAbO2Y0lSxZ0rjGW7du0a5du2jkqFFOhxMYWIr69O5FuXLlpJQpn6M//3xEly9fpvHjJ9Cx48cc1k1sfTq8kFgyNFDFwiBXs3v26Elt2rQWxatXr0E//fyTq1WTfLnKlSpS3779KEuWLDbXOnv2LJo1e45NmnqSJXMWWrVqJaVOnVpNNo7nfPopzZw50ziPjwNP+3z22WQU/tUyyps3r+Uwjn/3HbVo0cIyLzi4Ak2eNJmeeeYZu3x8+Dp07EgHDx60y0tsfdpdgBsJGqjcYJazohqorLmzaNEieqdQIcvM2IBqx/btlDFjRlH3woULDFqrKWfOnNSgQX3jpe7arTvt2bPbsn1PEj3tc8qUKRRcoYLo8u7dP2jp0iX0lP5HrVq0MoB2zZo1NHzECJthpUuXjiIjIozr2bFzJ+3bt4/KB5Wj0qXLiLKQIgNLlaLHjx/b1E1MfdoM3IMTDVQeMM2qigYqK64Qbd2yhV555RUxJd5/4ABdvPgDNW3SVBR2BlRvvfUWLfniC1Hu+vXrVKVqNUM/1bVrV+rQvr3I+/7776lZ8+bWnbuZ6mmfmH4dPnSAkidPQX///RdVY4n6xo0bovfcuXPRmtVrxDGmcwElA8Wx/Ne/f6jBj02bNtGADz6QWQx2S6lggQLifMaMGfTp3LlGXmLr0xi4hwcJAlRZs2alRg0bUsGCBSl79uz05MkT+umnq7Ro8Re0f/9+y6Hjprdv15b8/YtQdr/sdP/+PTpz+gyFL19BJ058b1mnfbt24guMOf2mTZvtyvTt04dSpEhB+GqponSN6jXJv0hh+u3mr2IqgvOQkMqUL98bdPPmTdqxYzvNm7/Arr0uXboYX/wi/v6UJ08eUWbr1q10948/jPL//P0PjRs/zjj/Lx0sZV3SjV9/pVGjRtPt27eoZcuWrIvpLVjgDKhmzpxBpUuVFuUGDhpko8vavm0bvfzyyyIPU6PAwEB69OefcWarp33Wff99GjZsmOgfz1bvmOtDQljYRAqpHGKMrXef3vw87TTOd0VGULp06QWQB7BuS0pN0JNt27rFkLR+ZR5WDvm3ncTWp3HBHh54Hajw5cMLbTX/xph3stjbq1cvm+G/9loemjdvPqVnsdhMeDDnL1hIU6d+bM7ir9ohAUQnTpygps2a2eUfPxatlNzMX/n+/fsb+eHhX1E+VtY+efKY9kTtNUR4owAfANjad+igJhn92SQ6OHmncGEHOf+tZFeBKjIyUtx/3O9ixUsISQWcwrPU0XQfQvlebuF7GlfytM/Zs2YJsET/ffv2oW3bd4ihvPnmm/TlkiU2w9rC4BMaGv3spUyZkg7F6J7MQASAx4ddJfUZSkx9qtfg6bFXgQoSjKpAvHLlCv1w8SKlTfsivf56XvEgmkV3iLR7o6J4Xv+8uKY7d36nU6dOU/oMGahA/vwG4I0ZO4aWs3SlUlyBSrYFEf3EiZOUOk0aQ/RGHsAPICgJX8tM/OUD+fn5GV/5M2dO06NH/37h//77b2oXM1WRdf+rv64ClbyXd+7epaCgIMEuVcq4f/+BsAIiA7qaBQsXxpmlnvYpP3QYQNFixQ1QlZKfOtajR49Sq9bRRhd8kFetXCXGDb1Up86dxXHVqlXpw/HjxfGDBw8oDT+HoKDy5enOnTviODH1KQYcx39eA6qXXspIO7ZvE8ACZWC/0H42Ii/GDWnLL4cfDR0aLTbLNOggQKdOn6YmrM+QvjMVKpSnKZOniDahsCzHCkeV5IPmqUSFtn777TeqWasWPXz4UDQNoAXggsxivUiM+ad1VCo3HB+7ClTH+IWGFA791LtVqogGpc7m4cNHNHXaVBoYo88JD19OY8eNddypizme9rmZdUuZM2cW07fCrAIAqXq0ps2as75tsUjHx7pW7driGM/zx1OiZwZw08AUF1LW7l2RlCrV8+KjePfuHUOp3rJlK8NVITH1KS42jv+8BlTjxo6l6tWri+F9ufRLmjBhoktDlcpXFK5SpSpdu37Npt5Xy5ZS/vzRCsZWrVvR0aPR0zkUig+g6ta9O+3ebWtF+vbIEUqWLBlBUmrYqLHNeOSJBirJCee/rgAV/KWi9kSJhi5dukR13nuPqlWrRuPHjRNp/fr1ZZ3UE5rxyXRxHhERST179XTecSy5cekTY0V9KNIhUcF4sGXzZgG0EoAkCN6+fZsqBAeL0TRr2oyngf3EsXxHJn00iSqxOwc+7hUrVqJ+/fpQjRo1RZnBg4fS+g3rxHFi6lMMOI7/vAZUy8PD2UnvDfGVUXUMsY330MEDwuENjnLBFSvaFW/SuAkNGBA9x584MYwd//7VAcQHUKl6ANm5fCiuXbvG1qeqMtnmVwOVDTscnrgCVJDGd7IBA3T+/Hkx5YbSGVLGMdYztmzViuA8Opf9qEB79+6lzqy7igvFpc99e/cJVcVff/3F+rTiJD+mmLaVCyovAEwClTqVhd8dnhsQ3DigO5WWTuhgYcAZMXw4vcdADRo9ejStWLlSHCemPsWA4/jPa0AlFZNWJllnY5Y3FH4zdevVsytaii1Bs9giBFq+YgWNGTPGKBNXoII1sji/AGaKjNhJ6dNnEBbASpUrm7PFuQYqS7bYJboCVKgkDR/4OJxmFUAwSyGQWIIrBtPdu/dsJKy1a9fSMH6h40qe9il1UVD8Q+oZNy76mVR9vGTbP//yixg7xqrqojZsWE8BASWFnlMto/pKderchX2s9orLTEx9xvW+oL7XgEpKRuoXJLYBq1YQs5Jd1oUlBBYRENwA+oWGyqw4T/1g9SteIsBoTx5ooJKciPuvq0B15PAh4ZeEKRCm3SCoDzBFAjVjvU8oTwFBs2fPZreS2eI4Lv887XPN6tWUO3du0TWeISyBUa3EWF4VtXuPyFf1p6rfFqQxuM4A7GrXqUPQZYE+/+wzKlasmDiuxqoULB8CJaY+xYDj+M9rQCV1TXLe7uo4pUR19epVqlEzem6u1g1hX5KwidH6LojGqpsCTL0Au1OnTlHjJk3Uauyrko52sckb5Mw9QQOVDdvi/cRVoILlV1q7MIhLly9THX6BJY0aOZJqxyilh7AxZt26r2WW8QsLsgQ5JD59+pT//jHyzQee9vn55wwmRaPBBG0CdMpXKM++fw9EF1jHN3vWTHEcGbmLevTsIY7TpXuRn8nd4lj+W8rrFz/88EN5KvzHsrEfIqgw+xRKw1Ji6tO4mDgceA2oFsyfz86a0RaQ9+u+Tz/8cNGlYUp9ECw7gaVsvXjRgOryoCoXkbePdRVYF2YFclgoOifmq+sNoOrRvQe1bdsGwyB3rldU+A/9cxWoVixfbqybg5RRvUYNQ5oAu6TVC8eqpIFzSV8sXkxvv/22PGVLrvUzJQt42iccWHFdkkbxAuSVq6LdDpAGIwCMASBYK+EjKEmqK3AOV5yg8hVkFmEt37dHDgulvHnsia1P46I8PPAaULVhi1zPnr3EsKwkHDle+Mb89ttNeSoWdubLl1+c9+LV5Dt3Rhh5OJDTMBxX5Zv/C8/5JUkpzkrXhOlBIIMVyBtA9d57dVjxOUK07+gLLzL/4/9cBapa7CIyOmbHAbM0Bf+jlStWihfYmYEDimlMryTFpi/1tE9IRpERu8R4MIMIKFnK8KXCCgsYAiAdAnBV73OMa/q06VSuXFkxRLM01YrBT3q5Q4c1aPAQeSk8Q0hcfRoD9/DAa0CF8ezcscPY7uL48ePUvUc3oQhFXgF2MZg0eRLdZuueulbL378wLeApHQiA07pNW7FkBjd8Jq93CgiIVnarc31RmP/BCgRrEEium4L436ljB+rUqZNIxz9vABUsnLB0gqCXGzBgALtOHDWWRIiM/+i/OjxFS5Eyhbj6smXKsQNntP8bnBy3x1j3Hj9+Ql9/bTt9U6UNSCEzeKeEnDn9aP68BfyiphXtmSUUlcXuAhXqetqnKo3hWe/RM9qaN336NCr0diExLKS3UCQvJOI9WMYuNyAAWR/2bMcSG9VnEHlWUmNi6hPXEBfyKlAVK1qU5syZLZSicpCYvydPnlx8fZBmpTRfxF7G77zzjqwivk4AKklQsDbktYPn2TKoknrTkY4bD4LjIERn6e3uDaBCP+v4RcuRIwcO7cjK7cGuUBJNkBav2C7PzCNIONBFOVp+dZFXOdStV9+h3skToPK0T0h5y3gRMRTpVoTnr269ujYzAFlOnRrKNPX3q6/CLdeKJrY+1Wty99irQIXBwD9l9uyZYi2deXDwM5ny8RS7pTAoN4TF3Hp8Y80PKTzH4aHraL8nq7WFUGo2adqEvmYzNkhKW+KE/0m/F0dTAykZmtdjyfryFwr70bz4tjj70jz/fCqbsZtfQlnnv/DrClDhoyK9ulWewIQPsIKRRBLKfsf7O7Vs1dpQLss89dddHZWs62mfWEYFD3QsMlYJzyyMO3h+HNFwXtQMfyn1ecd1LmT/KrgoOKLE1qej64gt3etAJQcAiahQobeoMC/OvXfvHp34/iSdZk9vZ4RpG/YyKlLUn5dS3BCOfXKtk7N6AIxSvH9PtIfwFjvvdmd1dZ5vcgD7UFUoX56tf5coKmqfoQPy5mg97RPPX0hIZR7j37SVd3q4f+++y8OE6qMoz0T27z8oVB6uVkxsfbp6XbJcggGV7FD/ag5oDmgOuMsBDVTuckyX1xzQHEhwDmigSnCW6w41BzQH3OWABip3OabLaw5oDiQ4BzRQJTjLdYeaA5oD7nJAA5W7HNPlNQc0BxKcAxqoEpzlukPNAc0BdzmggcpdjunymgOaAwnOAQ1UCc5y3aHmgOaAuxzQQOUux3R5zQHNgQTngAaqBGe57lBzQHPAXQ5ooHKXY7q85oDmQIJzQANVgrNcd6g5oDngLgc0ULnLMV1ec0BzIME5oIEqwVmuO9Qc0BxwlwMaqNzlmC6vOaA5kOAc0ECV4CzXHXrKAWykKMNFedqGJ/UQgOTB/XscRv5PT6q7VQebPd6/f5+3zn7oVr34KJwlcxa6wbuQOgspFh/9eNKGBipPuKbrJBgHABJhEyfQG2/koxdeSEPYLx9BOJdwENplHAPPW9SuXVt6//269OormYw9/7E18KVLlzjobT+n4d8aN2pEzVu0oOditk9GxG9HO9N27NSBQiqFiL321e2W5XUOGz6Mg4Qcs7tM7AefI0dOu3SrhC1bt4hw8OY8hOP6cPw4saNoxowZjW2QEVQFWz23bdfOXEUEbFHjF9gV4IROnTvRyZMnrbI8TtNA5THrdEVvcwBf+FWrVopYjVZ9zeGoQzM5Mk18EqS2GZ9Mo9Klyzhs1hy3DwVRr0PHdtSyeUubwKnIM4d1Q5qkSA6Km563LnZGVpGgXakn21SDnsq09OnTi6hJkOAckdU+/67sf9+5S1feNjzKUbMepWug8ohtulJCcGDH9u2ELz3oAkccWrVqNYfLykkNGtQ3vv5du3WnPXtsow3HZWwIpBBcIToIKCSo3RyK/cCBA/RssmdFQN2yZcrQ2HFjafXqNTbd7Nu7z4hyZJPBJ7EBVarnUtLx49/zHukn6OpPP4rwWmXLlqVMmTKJpjCOJk2bigjgsu3Qfv2YF7nkqd1vQEBxIyJOu/bt6dChQzZlVN4iyEpExE769tujlDFTRiodWJrjGxSyDLYhgQrBUr/nuAdWNI6lNDXeplUZd9M0ULnLMV0+QTiAwKGY3oCuX79OVapWM/RTXbt2JUQbAlmFWxMZHvzD1HIPAxMiwWD606JFS7sAJJguWelwjnEMR9RDODiAWIEC+Y0ozc6A6oUXX3AY/GH06FFUq2YtcSUrVq60nL5ZXSbGeOjgfjFlRQSm0mVK2xRDzMCPp3ws0hDAtV79ekb4eVnQ0XVKoNrBMTt79+kji3v91ytAhQfppZdeoh3bd4iQVwUKFKBz587TxIkTKXWa1NS7Vy/KnTs3Xbx0kQYNGuxw/h4SEkKIPIL6KZ97ji6cvyCieqxbZxuoUuVS4XcKc/y09ylP7jzia4wH7geO/3bs2DFavPgLy4esRvWa5F+kMP1281eaNXsO4RxRRPLle4Nu3rzJASG307yYoKhqX/rYexyYOXMGlS4V/YINHDSINm7caHS2nSO7vPzyy+Ic0kZgYGC8KLoH87MIaQ00YcJE+nLpl+LYlX+Ihrx6zVqaPv0TESFn/rx5VKRIEVHVGVA5axvSowzxdur0aWrcuLGz4kZe0yZNqX//UHG+fMUKGjNmjJGHA7SJtkGV+R1zFsZLFFL+JSmgUqPNKtdIf/xxj8XR5JQq1fNGslWsvNSpU9Onc+YYXySjcMzBcVb0tecv6uPHj22yzIFLbTL55Pbt29S8eQu7mIDh4V+JuINPnjymPVF7DdFfrX/w4EFq36GDmqSPvcgBqYMBEBUrXsIIj9WlSxfqaLoPof3705YtW+I8mq3cBnQ2kIqKlwgwJDhPGo4PoAoMLEWzZ0Xr4DB1wxTOFfpm4zeUNWsWUbRCcEV+7m/ZVJPS3/nz51maigZmmwJOTpIsUF25coWyZMlszJfBA4ibiEMGQAJVqVLVJvaefGCQhwizx48f4wf1H/5C+RuKSqsbt5K/Hq+//roQ29Hv1atX0QQVLFiQMmfOLI4BRiUCAm0eQglUogD/QyDSEydOsvSXhgqyNCepabNmQo8gz/Wv9zggP3Z37t7lEPBBoiNYALexBQtTLExpMFUDQa+0gKNrx5Wkngkv8KDBg6ltmzYimGyqVKnoxo0btP/Afp4VfGTz7DjqM65AhSjjkydPMoKZjhg5wk4vZtU3ApKuX7dOZF2+fIVq16ltUww83L5tq0hbxMFNjx47Sg0bNCJMtf/55y9+Z35iXeAqWsl/ViSBCu/Rkyd/8/TyWfr99zt05cqPNP2T6V57P7wy9ZMPGUy5dTj6a7Zs2Wjjhg3iumFarla9Ot+AF2lXZLQSNCzsI/piSbQ+olmz5hTar68oe/bsGWrGEhCmbyCYRb/+ei1ly5pVnCNi8jEGMUk9uvcgRKVdymZrs7/NuLFjqTr3C5o4MYzN20tkNVKBCvVrcihx6cfSgs3MfWPm4jt27qTevXsb9fSB9zggv/rQT71bpYroaCmHTMeHAx+vqdOm0sAPPhDp4eHLhYI7rqORfZ49d5Zey5PHcEtQ24VU3oSnVteuX1OT7Y7dBSoEHh04cCClTJGS/Pyy2/R9+PBhS1cBu045ISxsIoVUDhFZY8aOsYtCXrJkSZoze7bI37t3rwjUa9XO8ePHqUXLlnZZEqjsMmIS1q9fR4OHDHWU7XG6V4FqM4vS/VksB8mHQDWVHjl8SNyQzz+fR9OmTxPldu/aTWnTvijEb1g+zE52QUHlaNrU6LLwDwkNjW5fVHbyD0rLKFaUgsyKQBWounXvzpYeWyvSt0eOULJkyegMR3Zu2Mg1PYGToeisWDgASSlqT5QoJT921apVo/Hjxom0fvwhe/TnE3YjmC7OIyIiqWevnrG06jwb0v0+fnFVunXrlngWnnn2WapcqZIxA4B1DtK1M3IXqOqzQnvI4CF2TW7YsJ6lO/t0u4IxCYdYRQF/rL///ounzPbT1yaNm9CAAbbvDASCY8e+o0zsMwadsAwrb+UWAaCC4HDhhx/o1xu/UoaXMlBensXI2RGGMWnyZIK0Fp/kVaBavXo1jRg5UoxXgtIGlqwgVoMkU1WLhgQ0OLxBLH2W/VMkSQb6+/uLpB9//FFIPzJf/mJuX6Z0Kcqe3U8wkmcKggq9XUj8mvVNKlBZ+Y7gpcHLgylrlapVZTf610sceOmljOxYuF20jmkYQAHKaug2YRRp2aoVlShRguayHxUIkkFn1l3FhdQ+0Q6mTZgNSMkcLyKU+PKFbMQfrNP84XJE7gIV1BpQ5idLnpwyZMhg41sFy2YLnj1YWRvV/uvUrk0jY963KPZj6sL+TGZq06Y19ezxL6gvX87Kdpa8JEFNspSdaUEApOLMZ5VKsYHD7CMFH7KRPDWtzTMREEAykMvJmZBa39NjrwIVrCawnoCsQEnqBCR4vfZaHlq10npubHWBqv4C+WDy9GnTDIuQVR2kHT7ConTbdka2BCqrG4NCkexjkj59BmEBrFS5slFPH3iPA3KKgY/DabZ4BQcHixcguGIw3b17j1QJay1bsYYNHx7nwcg+0VBD9i4/c+aMTZs9e/aiNq1biTRMPefNm2+Tr564C1RqXRzDKvfZ3LlCuY9zV6a3a9nqmCtXThQXfldW3uEq32A0KBFQ0g4A5fuAdipWqszqlJs4jJU2ffMN66Ojlfht27bl9+xIrHVcLeBVoIIeCPogkAQq1VxqBiqg9Sw2S4NgDcSX0hld+fGK8bBA4tm6BV+8aIsiLIynTp3itUs3xDQS7dSrW1c0d5R9Xlq1bm00LW8MFISw9phJA5WZI94/lxI4JGtMu0H46EmXAVWXaTVF8WSEcooPS2PhGKldbadMmbLGdHPTpk00IEZHppaRx3EFKrQD7/EI1otiJgEDT0DJQNm83S+slTBCgeCMGVS+gl0ZJLz11tvsn7ZY5DmakYwdM5pq1KgpyvTu05tVJTvFcWz/Bg0cRA0bNhDFZsyYQZ8y0MYX+RRQwRK4i5cUgMxST2wX3J7XJXXr1k0UkxKaWkfVQWigUjnjm8d7o6IMCy9GeOnyZapTp44x2FE8xanNUx3QkKHDyMq3DlMSCXIo9/TpUzvpAemSoKPCc+JIslZfckdTK9lWfAAV2lKllML+RYypqOxH/mJZj5x6QT8EPZEVAfwiIyJEFnRTDRo2siv2AQMw1iuCrJYL2VWISVDfQRi0PvzwQ0dF3U73KaDC6OVXzV19kOog6F+kqN0DqXrjaqBy+zlJ8Aorli+nvHnzin4h4VSvUUMsRpYD2cwSjXQ5gRUZ1mQzfbF4sY0vHqyFgaUcSyXrvv5aLA5GO1bPUC3WwYxmQACpswWRYPoXX0AlpXk0D32RI72PnJ2AV0Hly4npsWlIxqnUA8PCXZGNBGaaPm06lStXViQ3btLEZumOuax6PoXBEVN00KBBQ2jDxvVqdpyOfQ6o1Hl2x06daP/+/ZYXCMuGetM+nfMpBQREK/7MbgtoAL4l8DEBaaASbPDpfyoomKUp6DJXrlgppkTOPmhYggP/IEmxTZ/U6aRqiZb1Fy9eJNbh4Ty2F9EVoHqe/bOSJU9mt3xF9qe6EjgbO1ZwhPGqDxBcKxo0aCibsPz9/LPPqFixYiLPyiggQQ8FVMA2v3Nq4/DP2rJ5kyHBuqPbUttxdOxzQJU/f376Kmb7Dij7JoaFsSIx3Bg/HjxM8UoGBPB2Ep0NIIMPVdu2bUQ5WGz69O0ttuJ4jpfeQNoqVjT6xqCABiqDnT59IP3xMEgormfwTgk5c/rR/HkL2A8vrRi7M6W2u0AFP72D7NSJ6SIkk6HDhhtTSjxzmNqAABqly5QTyn2RwP8wpapc+V/ppE3rtoZ3+MzZM+n2rdui6M8/XzOsZs2aNiO4WsDdYdmycLZoHhWrJrBrROPGjahp0yaGP5Xq1iP7lL/hXy3j5V75xal5uZEso/6qFlM4zrZmS+C5c+eEWwN8rOTSH7MbBnRgz7KrRviKcNoVsZtB8RylS5tWGDZ69OhmrDiJz/WXctw+B1QYmLrmCud4aP766wmlYGc46aKAdFXigm4BYnLKlM8hSxAkLnwFQFCUyzwNVIIlPv8PUhV0Ueo9Vwd9kddw1q1X326aL8u4C1SoB6serHuS8OyB1DGMHj2a4FKjkmpNU9PNx+p0C0AVyntbxUawbkNqMi8ZQz1V4e5It2bVvjoDQT5cCgDUknDdmFKruyCoayxlOfMv3rNK7HB6l8ccn+RVoFKVeocOHhBAoZpZpfLSypsVFpYJrIyTyyTUi4akBdQO7T/AxnSKBclTp04RrgRq+bt3/+CNzJrTal4WgK+lWVH/1bKllD9/AYeWlZ28UhyLrGGJxCJOTQnHgarstwawkh8c9IyXCBu7tWzV2qFyGeXc1VGhDgiL0keMGMYfxn9fXKTjJRzEC6S3bov28UKapCpV3uXndYI8dfirPkP+7I0+ftx4oWtTgVBWxnViDeMo3kUBko8VqS4T23hcfWNWdViVNaeBr/gYmPvGagBsfnfp0mWbKtBdlS1bxq68LAQDAxy8HY1VlvPk1ytA5clAHNWBJbBE8WKU5/XX6Jefr9P58+fs/FvMdWGdKVy4MD14cE+YVuMb3c396XPvcwB+RfCavnT5EkVF7bOZdnmrd0zBypcPIshUhw4ddLqrZ1zGgC1VCr39NvnlyEFZs2UW08RTp07T2bPnEuQ64X9YsmQA3bh+kw6wQOHMbwqWVH//d3hZnB+9+mom/rhjN9DjrHA/7dWx+jxQxeUB0HU1BzQHkgYHNFAljfuor0JzIElzQANVkr69+uI0B5IGBzRQJY37qK9CcyBJc0ADVZK+vfriNAeSBgc0UCWN+6ivQnMgSXNAA1WSvr364jQHkgYHNFAljfuor0JzIElzQANVkr69+uI0B5IGBzRQJY37qK9CcyBJc0ADVZK+vfriNAeSBgc0UCWN+6ivQnMgSXNAA1WSvr364jQHkgYHNFAljfuor0JzIElzQANVkr69+uI0B5IGBzRQJY37qK9CcyBJc+A/A1QI6f4RYgxyjLSFCxfRvn3OYwYm6bueSC8Om7bJyMUJdQn/hT5xjZlffZWu37jhFn8RnAKBea9dv+b12+HTQPUqMy9Tpkz06NHDOO+umD1bdtqwITp8DwIFICiAJt/nAKKbhE2cQG+8kU9sS42ApAiNtYTDji+LCQIS31cR1z4RE695ixb0XMx+/XXr1eOgoHecDjMwsBT16d1LRDrG3v4IIHGZYxmOHz+Bjh0/ZlkXW2Sr+5xbFcKWwlYRkxH0ZMiQwVTl3XeNWAKoj37Xrd/AMfkm2O3YmTt3LhrA23/ny5dPhJ2XWxhjy+RHj/7k94vrTbCvh3bjSj4NVDK6hqMIxu5cvAYqd7jlG2WxFfCqVStFUFCrEc359FOOMDTTKsvjNE/7hFTSoWM7atm8pU3gVAykarVqNkESzIMLDq5AkydNttyLHCDQoWNHOnjwoLkaqSHo7TJjEjp36WpEvZFlEAhl65atlvEIZJlbt26JIA1Pn/4jk0Sk8aFDhxrnVgfYL71ySGV6+PChVbbHaRqoPGadruhtDuzYvp0yZswourlw4QKD1moOl5WT49bVN17qrt260549u+NtKJ72qcbCMw/GGVAhJgAiF0vpZAeHcN+3bx+VDypHpUuXEU1BigwsVcouCo0EKoRw//77k+Zuxfm48ePsQHLmjE+MthGUdcPGDbR582YOalGdEKQiVarnRV3MQAYNHmK0W69uXZbChtAv165xWLEDdPHSJXr6z1OOkFOZ3nyzoCHdJZpwWcaVxfFAS1RxZGAiro74jQh3BUJUlCpVqxn6k65du1KH9u1FXny+FHHpU0YfRoSk1avXUIEC+Y0ozc6Aqn//UGrapKm4lk0c/XkAh1OXtHTpUipYoIA4nTFjBn06d67MEr8SqHbwFLB3nz42ec5OVFDt0bMHIWagpJo1a9EYjnoDUkN74RxBKJ5LmYIe/fknTm0oA+uqtm3bIsAKUmBhf3+b/LieeF2iQoSLTh07cdSKrBw0Mh3df/CAbnLYqa3bttHatWttvhIIjdW7978MD+H4YGnTvsgP6P9oJYe6UgmhfL74YrGaZBwjXloQf5FycFSPK1d+5L620L69+7WOyuCQ7x8gaGzpUqXFQM1BNdX4cng2AgMDLV8ed68yLn3uioyg1WvW0vTpnwjdjiuRkjE+1EuXLr14xgNKljTeB+jJtm3dYkhaapgteV2eApUEVUhqRYoWlc2JX0xhj357RPSLWH9FixW3yXd2IsPOoUyNmjXp6tWrzoq7ledVoBo7ZjTVqFHT4YAOHTpE7WK+jCiEUN2rVtoCkqPKt2/fpgoxce5lGcR+W7xooYjRJ9PkL2L5yWjJWpkuueK7v5GRkZSeP2wAomLFSxiK3S5dulDHDh1sBh7KseQQ/y6uFJ99ugJUeF4PxeiezEC0lI0F+Mir9A6HgFPJU6A6sH+fmN6Bt2U4Tp8ahw8AuX3bVtHNH3/co7LlyqpdOj3euHEjZcuaVZQpjXbv3Xda3p1MrwEVFIRTJk8RYwFDINmcOXOaJaS09Prrr9Mrr7xiFwgUUV8/nhJdBxUx74UFBPWPHbO1fJw/f4HGjhtrc62zORx1IH+VQFDAH/n2KL2QJg1BpJc6AORpoAIXfJtkOHdECQ4KChKDVaUMvFwyOO0UfmYWLFwY5wuKzz5dASr1wwy9VKfOncU1IOjqh+PHi+MHPANJw88wKIjjGqrWQwlUeNafPPmbp13P0u+/3xHv2vRPpotQ8aKi6Z/6nny59EuaMGGiUWI0T/tq8fQPtHXrVuoXGmrkOTpIl+5F6tSpMzVp3EQUuXv3DpULKu+ouEfpXgOqsLCJhKkbaNSoUXZTN3wtsmXNYhl1Vl6JOzoqzJF37twhAAkWh2rVqtPvrGQEwfQ7i6cSEqw0UEkO++6vnJ5AP/VulSpioFJnAwUw3EsGxuhz1Ojbcbmi+OzTFaCqUKE8f5g/FkOGNIIpLqSs3bsihcRz4sQJDo1+x1B8t2zZysZVQQKVo2u2ikCOshAIFsyfT7lz5xZV4ZJwkVUpr7/2mhGRGgr66jVq2Ehbaj+IYp47T27KxBIYoohLwni7de8hIlnLtPj49RpQqeG0PZ2vugNUof36UbNmzQRPrMzWUMxCsgJpoBJs8Nl/kJSi9kSJ8V1iy1Kd997jD081Dn8+TqT147DljzhC7wyWGkAREZHUs1dPcezpv/ju0xWggi41NLSfGLKUbCZ9NIkqVapI0B9VrFiJ+vXrY6hPBg8eSus3rDMuEUD15MkTuvDDD/TrjV8pw0sZKC/PVuB+IGnS5Mm0aNEieWr8wv9q9qyZVLy4vQ7q/Pnz1Lx5c6d6PzlNNhrkg7t3/6D32TLoLNKyWt6dY68BlSpC3rx5k6ZMmSqU2mCsq+QOUKmK0HJBZZlp92y6gVg6YEB/kaaByoY1Pnfy0ksZaeeO7WJceGma8gcISmeYzaECaNmqFZUoUYLmsh8VaO/evdSZdVdxofju0xWgatOmNfXsEQ2wAJPNrGeTls6pUz+mefMX0Ijhw+k9BmrQ6NGjacXKlcZllmJjw9690YAuE6EMHzlyBNWuFT19g0I8kMup7122bNnoS9aBQQcIQpmHD//kKWZqSpYsmUiDRFW/QUOC7syKPgoLExIZpqVwIYEkCALA9ujZK15dRtCu14AK+oQtmzcZF47OQNA5wNks7KMww8IRnWP/3x2gWs1WwTx58gh9lpVpFDcV0z+QBip7XvtaipzWXGOfndOnT1MwG07wQgVXDBYfIVXCgvV4GL/QcaX47NMVoFJ1UfBZCggoSS+//DL9/MsvQoLE9UD/Flyhgri0Tp27uLz0a9M331CWLFlEvbZt27I++Ig4xj81T0pySAfIjR0ziqpXr4FT9oy/QrXr1BbHsf3r2KkDdekU/bHAfSrFPmCPHz+OrZrL+V4DKozAz8+PJjEgYfmD1A/JkeFiPmIxd6mTZRDuAJVkPhTvVkD15ptv0pdLlojuNVDJu+C7v0cOHxI+OfhCy688lL54sUDNmjWnUJ4CgqAcnsV/caX47NMVoFL9tuB/lSJFCvGhrV2nDivEr4jL+fyzz6hYsWLiuBo7ZGL5kCs0aOAgatiwgSiq+mBBNwyLIujS5ctUh/sy02b258qcObNIBmj99PNP5iKW5xN5+cy7vCQHpPZpWdjNRK8ClRwLHMVgjWvEa6ACA0uKG4I8PIQl+CsC0LIid4BK1YmZzbhoOyQkhNeMTRTdaKCy4rZvpe2NijKsXRiZ+aUaNXIk1a4d/bUfMnQYrVv3td0FQEKQIIfMp0+f8t8/duVkQnz0KdtyBahgLdsVuVtWEb/4cH/IimpJqsm/sH8RBrKnMsvpb/t27ahbt26ijNomnEvhZApyZISAorxKjAHDrBcTFR38K1OmrKE33BkRQb169XJQ0v3kBAEq87BUhz2zJUMtKx3I8LUpZqH0U8uqaN64SRM6deqUms0LPntTy5YtRZoGKhvW+OTJiuXLKW/evGJskJJhgVKlCfWr70jSUD9eaAjWwsBSgQ6vNz76lI27AlQoK10icAy9UFD56GkezvGB/5b9/zAbiW3sKK/SFFaiY7oMGjRoCC+TiV6QrwLYKlaXjGSLvJlUi70jZby5Ds5rsV5sdEx77nrLW7Wnpv2/AJW61qhV61Z09Kitj5QcoFquJEtkVq77sux779VhxeMIcWqF5uoaLg1Ukmu++6s+9GZpCv5HK1esFC8wdFhV2O/IilRLL/Jhhg8o6Rio4qNPOQ5XgWr6tOlULsapUpV80E4r/rD25g8syLzuDsprVUEuCsX8M+uHK1aqbFjiCr9TmLc5WiBKqq4fan3syiBdDhryLOjMmTMiG+06s+itWb3acHkIC/uIvlgSvQRKbdvTY68BFXxeUj+fmubO/UwseoTIii9EcIUgoZvCVwJfSv8iRR2Ks7hJuFkgSEhDhg6hixcvOyyviu7jWXzFNiDoc/LkSVShfHnRDv5poDJY4dMHqrSBezaDd0rImdOP5s9bwMtO0oqxw58KeVbkLlChDU/7hG9S5cqVjGG0ad2WsrKfIGjm7Jl0+9Ztcfzzz9dsLHUF8hfg53SpyMP70KdvH9qxYyfBxwoO01K3a5Yat7KF8Nlnn6XwFeG0K2I3nT13jtKxMzWMDD16dDMWFpvXQuJ9OHRwv7GAePfuPdSXdX1QfGN/qY8/nkolSwaI8ZiBHS4jUNdAOoMz6OlTp+kpj7kIv8MDeDop/bJwHSGsq3JkMRSNu/nPa0D1NVtisNJdErxnU6RIaTAe6WvWrKHhI0bIIna/8AeB85vVnjvYhiK4YkWbOtCBSSdAZICpuJnyZsvCGqgkJ3z7FxIOdFHm+ydHffHiRapbr75DvZMnQOVpn6oVUo7P6te80Bdl4B+G+o7oq6/CCbsgqKSqT9R09RjvXCV2ur7LlnaVrMYqlflqud59egvQlGkAKrkaQKZZ/Y7l6wkPD7fK8jjNa0AFq0Pt2jUNZFdHCOX56tVraczYMWqy5XHu3Lmof2h/9pspbgNYVkCFBrD6e+SI4TZKVPQ3ctRoY/48ly0pn3zyCYpr8nEOwIQPsJJ+Ohguvtjfffcd+1O1dihdo5y7OirUAXnSJ7ZHmcCbzcVGkDIqs2HHTMOHDRP+Uioo4zoXsn8VXBTMhCljWV5Pp5ZXy0Sxf1V/XgOpruNT82FcGjx4sOFLpeYBTIcNG05oQyXogcuWLccOpc+rycYx6o3iJTiRkbuMtPg68BpQyQFiw7q33n6T/LL70YMHD+nM2dO8Bumkw/m1rBfXX8zFixUvyhuOHYp3d/64jk3Xd58DkM4xfb90+RJFRe1zaCl2v2XHNf4/+vT3L0xFeUeD/fsP8nvyvePBcQ6smv7+7/DOJH706quZWAf3hJ/146wmOe0yf/B+FnqnEPnlyE5X2G/qu+++t9u/yjwI7LxbsGABXgKXnZ5/PhV7xl8Q+2E501+Z23D33OtA5e6AdHnNAc0BzQEzBzRQmTmizzUHNAd8jgMaqHzulugBaQ5oDpg5oIHKzBF9rjmgOeBzHNBA5XO3RA9Ic0BzwMwBDVRmjuhzzQHNAZ/jgAYqn7slekCaA5oDZg5ooDJzRJ9rDmgO+BwHNFD53C3RA9Ic0Bwwc0ADlZkj+lxzQHPA5ziggcrnbokekOaA5oCZAxqozBzR55oDmgM+xwENVD53S/SANAc0B8wc0EBl5og+1xzQHPA5Dmig8rlbogekOaA5YOaABiozR/S55oDmgM9xIFEAVd333+dN+UvyvtO36EPeZVDTf5MD2CjO1XBR/98ceuWVV+jmzd/cHi/q3b9/n6POPHTrErDfefr0Geja9Wtu1UsshRMFUMktZV0Jm5VYGK/H6RoHEPkkbOIEEcQW+3VjH3yEzVrCQTQRvCM+qRjvrDllysdOm3z8+E/eh7yyZRlsRzyg/wDKkCGD2CIYWwnfvXuHdySNokGDh1jWQYThkEohlCNHDpvtluV1Dhs+zDJKU+7cuURf+fLlM/pDB+jz0aM/OWrNBvFRdxQzE2VVwlbPiHOQJs0LInkGRxU38xd70OfI8W8cBLW++XjL1i0iBL053dNzDVSeck7X8zoHsmTOQqtWreQ9ulNb9jXn009pJkemiS9yZd9zAIFVJO6RHKTEKuqwHNv58+epUeMmdlsER0ZGWu5bLuvh1yoSdL26dWno0KFqMbtj7JdeOaSyS9KZGgcQDS1YuNBur3ZXxioHgX3Te/TsIU/j/JsogKoNx/4rXaYM3b59m0I50IOm/wYH1FiMFy5cYNBaLSIbNWhQ3whq0LVbd9qzxzbasKfcUYEK/V27dt2uqQcP7tOADz6wSX/jjTdoeUzUFQAZws5v2LBRjBVhpDAlA0HKGcQBFVTCy5/quZR0/Pj3vEf6Cbr6049U6O1CHEShLGXKlEkURZtNmja1CaoLoBoyZAj9wnENDx44QBcvXaKn/zzliOCV6c03CxqBUMzhstS+5bEa60+mWQFVaL9+fE25ZBG734CA4iwVPifS27VvT4cOHbIr42lCogAqTy9O10u8HHjrrbcIUw0QAmVWqVrN0Pd07dqVOvCLAHLlRRQFXfinAtUHAwfSN99840It4jiD8zi2XRFRdvon0+mzzz436mFKFcVAihfYHCcPhV548QW6f+++UV49GM0RXWpxVCXQipUrbaZSiM/3XMoUlkF5MzAwbtu2RYCVIwlQ7UcGHP3jj3uUNu2LIssKqNQ65mM1XiAkudJlSpuLxOncK0CFBwmRVnds30H16tWlAgUK0Llz52nixImUOk1q6s0x6RGs8OKlixxuejCHsr5jdxGdO3WkVBzAVKXfWaICAx1Rly5dKGPGjHTkyBGKiIigBvXrU3mOXJIlSxb68ccfadHixbR7d/x8fR2NQafHDwdmso6kdKnoh33goEG0ceNGo2E1ph1exMDAQMsX1qjg4oGnQCXHg7FYBdQdMXy4CIWFYZhj5TkbGqLgQG8EOnX6NDVu3NhZcZu8rzioaX4ObgqqUbMmXb161SZfnvRnia9pk6ZiSjpr9mzqzhIqyF2gQhtoC7R8xQoaMyb2UHiisIv/vAJUarRZdRxA7JQpk9vE+nMU5+zY0aOGeC/biE2ZLvs9e/YMA2VGQ3SW9fFr/uKpefrYdzgg9SF4+YsVL2HodvAx6tihg81AQzl+3RaOHBxX8hSoDh08KBThjiQJWK2Hcdw+kFkycjbmwMBSNHtWtA4O0yhMp1wlAHu2rFlF8dIc/89KakOorPXr14n3DBGn/3z0mAYMiFatuAtU32z8xogMXSG4Iqtpbrk6VJfKeR2orly5whJNZmPuilFd43l1unTpDCVplSpV7cyqC+bPFzHDUD5PnjyivqtAhTogBCk9x0rMnGypkOG10UaJgJIOo+tG19T//785ID86dzjKb1BQkBgOLIDb2JqEoJsABRm1FwE6nUnarl6LClR37/7Bkb2Ti6o3b97keJRnaRxHALaS/t0BKoRQ79a9W6xDggVy8uRJ/J6kF2VHjBzBQXvXxFovXboXqVOnztSEFfcgWB3LBZUXx+Z/Mpq5jN6MOp4AlZ+fH61ft040f5ljA9auU9vcVZzPvQpUl1jBV+e99zhAYjbayIpEEEzL1apX5xvwIu2KjJ6GhYV9RF8sidZHWF2Rq+4J8uFGG+YH4vPPP6NiRYuJ5s1TCas+ddr/LwekRA391LtVqojBLF26lAqyGuHhw0cECWBgjFI7PHw5jR03Ns4DVoHKqjGY+uHHt3z5Cpvs2KZ+iIL8PktVICjMmzZrZlMfJwg8OpD1YilTpCQ/v+yGMhx5hw8fprbt2uHQkiZ8+CHlzpObMjGQQ+UiCSDVrXsPywC86lStZctWdOz4MQFungBVWNhECuHQ8SBEPzfzR44nLr9eBarNLI4jrDRIPniq2fLI4UPihnz++TyaNn2aw+twF6gwXShVurSNWRYPwoL5C0QfOqS7Q1b7RAYkpag9UWIs8mNXrVo1Gs8SDahfv76sk3pCM1hxDYqIiKSevXqK47j8k0AFKQ4zgd9v/06ZM79CefO+QcmSJRNN49mqy3rXH364aHQF6d/f31+cT536Mc2Lec6QkDx5Ctq3d48xo/j5l18I12Km+vXr0RALX6sNG9Y79MGSbchpsjzHLyTC99kyaBW9GEIC9McY2/79B6gj64NBnkpUUqIEkBcrHmAYPUSj8fTPq0C1evVqGjFypBiqBCXVRCsvMLZ5u7tABVHd7JQHX5x9e/eKsXy97mv2QYnWGcQTH3Uz8cgB6Bd37tguWoT/ESSQXZERQrd57NgxatmqFZUoUYLmsh8VaC/f186su4orQR2BaQykHpXwYi9cuJhy58olkgFitWr/O70pwErrZay8BgHIFrPRZvOWrUIy6h8aaiPlQO1RpWpVUVb9V6SIPw1mw1Ky5MmFA2d6HoskWDZbsNTz9Ok/Msnm96OwMGGcSpMmjTAmwdIIgtNoj5697Nw3pJUSwBJcMZhB7Z4o7wlQ1WE+jIx5x6P2RlGXLl1FW/H9z6tABX+SCRMmijFbgdK+vftYT/W8pX+JeqHuAhWU6Q0aNlKbEMfH+SEHqZKeSND/fI4D8l7hxT7NFq/g4GChUJcvliphrWXL2DC2rHmTAGIw40OyAhiZnT4x/aoSM0U1jwNGpBfZDQG6te+/P0HNmttP/cx1YPH7bO5cwpIakDvTW3i7d+kUDdwAo1Kly9Djx49FOxUqlKePY7zvZ86eSXNmR4M9Mj0BqrVr1lKuXNHe6vD1OnnypOgnvv95FaiWfLmEXRLCxJglUKmmS28BlSM9gHz4NVDF92MU/+1JCRxSgZx24aOHjx+oWbPmFMpTQJCV57bIiOd/6ksZ8u67dOPGDZseYN3r0bMnpUubVoASQAKOo337hvLHeL0ou23bduobM26byhYn6dOnp4idO0VbVj5YFlWMpImsS3uXxwiaMWMGfcqgB4KuOFu2bAJsJS9FBv9768236J133hGn586do0OsmoFE60iJDxDdGmNtvXPndwoqX0E2Fe+/GqjinaW6wfjgwF5eH4epjKRLly/bLFEZxdON2jHTryE8jV/H03kzYRGzBDnkPX361OH0yVzX6nzx4kXCaxx5rdu0pm+/PWpVTKThJYbrDQjTuvnz5otjd83+m9jpFH6AoML+RVzW/5QpU9bQ4e2MiKBe7LsI2rxpE+vdMotjV/6pxgxz+VGjRlHtWtEOqYsWLaJJkyebi8TbuQaqeGOlbig+ObBi+XJWYucVTWKqVb1GDWExln2oLxysyLAmm0mqDGQ6rIWBpQLlqdu/0rqHiiUCAozpVGwNLVywgAoXLiyKNW/RwtIK56iNyIidxhKc4qyXe/LkiaOiNum1GEBGM5CAdvCUtXefPuIYYPtGDF9FgvIvBVscJbCD51iAfZYdtVvwmK1IzohQNqh8OUPXZVU2rmkaqOLKQV3fKxxQXzSzNPXaa3lo5YqVYkrkSDmNQWEJDpbiSIpt+gQltCMgkBZBtIUtWAJLlZLNOv2F0+Ys9rKHfso8VmzNkix5MuETZtVISd7aaA57i4PMY4dPmZVFT7azhg1ZWP0Bis39R9ZxR0cVEhLCu1pE65/PnjtLDRo0lM145VcDlVfYqhuNDw6ofnHzeOo0g3dKyJnTj6dRC9gPL63oAv5UyLMid4EKLjTQKUG3evjwEbHsBErt5qwPw1IwgA3Iyr1l0keTRN78BfPpzJmzlJsVzDVr1hTSiKxnnqI2a9pMuFpAp7psWTgdO3aUfvr5J8KuEY0bN6KmTZsIFwI0rLr14BzuG9Dfbdi4nrZu3UqnT52mpyzZFClSlLd/CTVACtIO9GlyGoq6jsgdoAr/ahnly5dfNJUQfok+CVRwI3C0tYeZyY2bNDFWlcsHWyvTzVxKnOeQqqCLki+6+SouXrzIPk31Heqd3AUqaWwx96OeS78uNQ3Hq1etEisozOny3MofCkAVGtpPFnH4C78uSDDScoeCACrpme+wImeMZd+z8JidHZyVQ56rQKUq+SGBYkrqbfIqUKkKtkMHDwinN9XMKgEJ640GDxlqXKu0EBoJTg7gYyP9XmQ9+J00a97crpZ8EDexQtG8VYddYZ3gExyoyj5HACvpG4RBQUr47rvv2J+qtVPlsrs6KlXvZb54SC8LFy4SHvHmPJw7ck/Aizx16jTLlRdwQh4/brxQbluBMa4TaxhH8S4KWDKkEqx6ZcuWE+49aro8xrIY1IMk5io1atTI8PaHlApp1Yp6sm8Wtl4CuWPFFBU8/OcVoPJwLLqa5oBDDmAKVoF3wrh0+RLvmLnPWKTssIKHGZDki/I6uxx+OSh9hvR0nf24sLxE9UR31DQknEDWK/nxbp2///47uxZE0u9sto+NsEVKobffFvWyZsvMW27f5lnCaTp79lys1/nqq69SwYIFeAFydrE29sIPF9hX66RT/VVs4/HFfA1UvnhX9Jg0BzQHbDiggcqGHfpEc0BzwBc5oIHKF++KHpPmgOaADQc0UNmwQ59oDmgO+CIHNFD54l3RY9Ic0Byw4cD/AQAA//9e//OZAABAAElEQVTtXQd8FEUXf4IURQQFFES60hQEpCWEKiC9hN5D771JAgFpUqUEkCK9BCmhBQRCSYDQSxAUsFBUig1BQAE/8Xv/SWad29u7XMrBec77/ZLbnZ2ZnX0z+583773Z91SBgvn+Jk2aA5oDmgMezIGnNFB5cO/opmkOaA4IDmig0gNBc0BzwOM5oIHK47tIN1BzQHNAA5UeA5oDmgMezwENVB7fRbqBmgOaAxqo9BjQHNAc8HgOaKDy+C7SDdQc0BzQQKXHgOaA5oDHc0ADlcd3kW6g5oDmgAYqPQY0BzQHPJ4DjwWonnoqBWV9+WX64ccf6dGjvzyeKbqBnskBjKO//3702BuXOXMWunf3Dv1x/77b7y3flRs//PDYnzVb1mwJfkczZMjAPHlEt2/fcStv3AZUlStXovYB7alQoYKUOnUa4yEePnxAx44do2GBwywfruTbb9O0adON/FYHDx7cp6rVqlldohQpUlKa1Kkey6CybIBOTFYOACQmT5pI+fMXoOeeS0d//fUXXb16lVauWkWrV69O1nuplXXq1JH8/RvRyy9loaefTiUu/f3333Tp0iUaNHgQffPNRTW7OAbIjBs7hsqWLUsvvviiSPvll19o37599P7o0Xb5ZUKaNGlo+PAgqvHuuzbvyv37f9CW8K00YcJE+t///pTZnf526dyZ2rRpK/Lcvn2L6tSt6zA/3pUJH4ynt/mdy5QpEz311FMi78OHD+mzzz6jjp06WZb18fGlkcEjKGvWrEYZ9Mu1a9doBKefOhVjWS4piW4Bqho13qWJzFxnhAdr3qIFffnllzbZXCmLAVOseHGbckWLFqVpH35ImTNnFun37t2jqVOn0vqwMJt8+uTfwwHM8GFh6+nZZ5+1bPS8+fNpzpw5ltcSmwiwmT1rJpUr5+ewitEMOuZxhZd+zSer6fXXX7csd5pf/LZtYwFEzYBni9gZIUBYTVePAXZVq1WPdzXyMq9admzfboDHn3/+SSVLlVKrMo4zZsxIa9esoZdeeslIMx+8VayYOYkC2rWj/v3726WrCWPGjKF169erSUk+djtQff3113QqJobOffEFZc2WjVq2aGl0yu3bv1GlypVtOkAFKpS9fv2G3UPeu3eXhr73npGePXt22hoebnSQcYEPho8Ipi1bNqtJ+vhfwoE9u3eLmR7NxVgIC9tAuXLloqZNmxh93bNXbzpwYH+yPdG0adOoCo9JECbE/fsP0JEjRyhFyhRUnCfH8n5+NG78ONqwYaPNPdVyGNehoSt5QfQ3BbQNMIB248aNNHLUKJtyc2bPMkDx99//oK3bttKOHTuoTu3ahHchbdpnRP6tW8MpMGi4TVnzCYAnf/78RrIzoFJ5i0k9MnIvnTx5ijJlyUTlfMoRJn6zMADpdlfEToP3Z86cZan2E0qVOiX3STMqXKiQuDf45lfej+7evWe0JakHbgGqYm8Vo169etKYsWPpypUrNm2EGL1/X5TReV27daPDhw8beVSgem/YMPr000+Na44O5s+bT2XKlKbffrtD3Xt0px9ZFzZjxgzBOAyaChUrOCqq0z2UA2+++SatXLFCtO7GjRtUo2YtQ2fTs2dPwhIHdObMGWrdpo04Tuo/LC0PMDBhCYTlT9u27ejc+XM21UJyMutZIYUdP3ZELBGxRKtVuw79wDomUJ48uWljHKhhKVemrA+SDTp08BC/C7Fg1KdvH4qK2mdcq1u3Ho0dE7tk/Pnnn+mdqlWNa+aDBvXr0/vvvy/AFQCVOnVqcgRUUMtMj1OvXL9+nRo3aWwHKlbP2bRpUwoKDBS3Rp+8W6OGTTP27tljLHmHvjeUtm/fYXM9KSduAar4GjRixAhq3KiRyLZ06VL6kGcxSYkBKoi7WC/PX7CAZs+eLarCsmH79liQK1a8hDHI5X30r2dzYM6c2VTOt5xo5DB+ObZt22Y0ePeuXcYSH7O3j49PsugkgwKDhLSGG02cOIlWha4y7unsoJG/PwUHB4sse/butVkaTZ48iarzsk1S/wH9ac+evfKUYk6dEsAIVUgJ1hWpBAA8dfKEuA4AfLuk9TIOy8eoyEgBTlhy4X7PP5/eIVBt3rRJSKa4V7Xq1cXErt7X0fFoBsL6DIigUNYPTpgwwSbrqJEjqWHDhiJtBU8yk6dMsbmelJMnAlSBwwKpWbOmot0LFy6imSEzjWdIDFCFb9lCOXLkoPDwLRQ0fISoy8+vPOsaQsQMYxZhjZvpA4/lQFRUFGVkixKAqGSp0oYyuUePHtS1Sxebdg8eMoR27txpk5aYkwiuAzobSCKlSpdxeXKb+9FHAixxz4EDB9Cu3XvE7d944w1atXKlTVN28tJp8OAhRtqRw4fE8s5quYSl1u5dESIvVgvlK5Q3yqkH8v6///47leNxD9ByBlQSHL/66iuWppqoVTk97t6tK3Xr1l3kiYyMor79+trk/5gFhVJxOrGEAL1NJQ5OnghQrVu71lA6NmvenM6fP280TwUqLNtSpXpaXPvpp5/o/IULNH78eLp165aRHwcS+NDZEdyxEJP9GdmxvsfSs17cLIC8dWrXpU6dOlC2bFnJx9fPToxHHk1PngPH2TKcKlUqunX7NlWsWFE0SNWRQP+BpRoI+qElLJknleQyDC9wYFAQdezQQbx4adOmFUu5w0cO06RJU+wAbM2aT6gAWyVBkHqkhU5KfmpbT7EEFdC+vdHUuXPnkg9bCUGQ4PCCSxrDy756vPwDRUREsLVxsLxk/MLCOI/rAMnl1v59+x0ClQp+y5YtY/3xKWrWtDlhqf3XX3/Sd999z7rAMDtjAerHKuXTT7fFLY0fsIK/qmG5fyHjC7Rr106x/MV7CN2z+T1FHYmlxw5UKmMxA/j4+tq0XQUqmwtxJxgEEyZOpLVr1xmXISLv3LHdzoKBmbEhi+XQN/Tp3Yuqs5grXSXAzLZswYAZVpPncUDO+qouJDQ0VOgdoXSeMXMGDYszqKxZs1YouJP6FPKeF768QPny5jXcEtR6b968SS1btqLrN64byVL1gDElpXdVj9aqdRvWty0X+c0TJ6xvSxYvZl1WHnEdeqyLly7Ta/nyiaUcEm/d+pVq16ljp0fCuIf0lCHD86RKR86ASn3/Dh48SL6m9080gv+dPn1avB/yXP625mcZ0L8fpUyZUiTBVSRFihQ88WcT53g/P/hgwr/D6icfyvwLBR8YK83NPXr0pOiD0TbZJFBhJkWn/nrzV9Y/vcQSWH6DORgQjRo3svFlQaeBgdBXYAaEEvTUyRihc5CDADeCtAX/m6U8mwDANHkeByApRR+IHRfwW2rA0nGtWrXoA5amQYMGDWSd1EOxtMd5pMUyBOkJIYzJQ/ziqgS3gP3799NT/CJWY0W2HLdnz56lVq1bG1nRVrRZ6pGwfNzJljso5aFbg45NgiCArnKVKkZZHMDANPejOcaySb0IAGrDxgIrZ1OpE8L7UKdOXfr+6veiqDOggtV96NB/lp4ocOHCeYqJ+YyysM9Y5UqVRLuRDmnvozhpDeeS4Ov48ccfG/lkOtoBvnz++ecyKdl+H6tEtWL5cipSpIho/K5du2kgDzgzwdMV+iYMBpUyZEhPS5cupzy5c4tk88wk88KXxCw9QVEJE/PMmSF2VhxZTv96DgdefDET7d2zWzQILyoG/76oSLGUj2FXl3YBAVS6dGlawH5UIEgG3Vl3lRRS74l6Ll++IgBSesIDpLCUk2DVvHkLYyzJJaO0sn2yOpQKFixEMPtXqFhJAJgEKnUpi/tkz56dVrHzKvRxIIDd77/fp3TpnjUmZkhUTdj8D2u2pHz58tL6desFWGxi5XgwK7IlOQOqDh3aU98+/+iWsDIZO26sLEqFCxemUG4PCBN5KeazSkOGDKZWLFFKwqqI6CnDcol01agl8yX197EBFZwxq8TNJACZ+g0a2q3143sYgBhMoBA7VTEb5aTuSZWe0LGhvO5/7rnnqWrVdyh9+vT07bff0gdsrVD1YvHdV19//Bw4zYAEgvn83LlzYuzgJa7yThWhF1ElLPOLmtjWynuivFl3irS+fftRh/YBOBRLz0WLFotjqYvCmAwKGsF61NgXX/XxknVfZe9ttF3Sdna/kcsmVUeFFcK4saOpNrs6gACc9RvEWtxwLsthGVy+QgVDL4ZrzoBK5RuAtXSZsnZ6WlXn9k7VarwK+QnVsq6wAs2cEWv4gv64fYcAY1UDHdeC+QsMwGrPgAi/rOSixwJUqtkXS69a7Mz24MGDRD3Dpo2bKHfuXKJsdd5yAH+V5cuXUdEiRUUapKfDbEmZzgyF17sqxckbYkBh+SCtMzJd/3oOB04cPyaWROhPqQ9RLUnQlQyOk8gdLVES+jQnT5ywnARlPdKSjPPt7BIjnY43bthg6JiwRQx60KNHj1LnOOvkc+mfo2j2zwKpy0ZVerl0+TI1aNBA5FH/Sf0X0gBaWN6p0iT0acePH1eLsHK8qaHUli4WixYtEYDz5ptFDH0ZJu269WKV9WoF2AaEpSRIdadYv24dvfbaayK9DXvZm/W7qn9Wcvq34YZuByrVnAzrR63atXhGvC0eNjH/VFCSqA1RtE2b1mw1CaUVK9gjOG7jc+1adYzZDf4tx48dp4CAdkLpbuV8l5j26DLu4cDB6Ghe/sRa9XAH84us+vQ42n0AqUSCHOp49OiRMTZwbiboqLC0s1ryIK/6kkO3Ch0raOHCj6nk2yXFMf5BUqnETpUY7yDsjYMOCgSHTjh2gjBusZQCOTIITGTpv0acYyWktfCtW0gFBFHYhX/SmRTKe+iJQdBNNW3WXByr/95jI0ULtsaD1O1CUhdn5fMly8slrpUuTuZJzK9bgUqd9QAM9eo3MDx2E9NYlJFiNo5LlynjVDKT2xrUDkFHRTJoQdHp38jfEF1RnybP4YDqwgIJGFYvWJgkqZIGJHT1msxjlqaxTPLxtfUMl3nxu2XzZsqZM6dIKl7ibTtQq8fSx5i4zcUrV61kV4XJIu8A3vvWji3IktSXG2kwAsjlHqyVcsnYmTf99urVSxSDS4DVxmXVYXQqq0/gUlCiRHH6yMkeR7ntBhXjvQN1697d2CwswcSRt3sI63IrxPlstWjZkr7g7W8gqYszq13Exbh/colr1sWpeRJz7DagUjsVMxQcy6Cbio9gGXRkjZMWQdRh5dpgrlvuo4JoLHeCw8JylP1hMNNKicxcTp8/eQ6o48csTamKZOiwatSsadlgbMGB7kRSfFK0OrGaHZFRhyrNBwYO53154aJqGHqiIveJyQ96tDJlfQ2dEcYbDAGQDvGCl2G/J6n2wFazpUuXiDpUNwyREPdP3ZZipTdT88pjZzoq5FnIFruSJWMlQNUoIMtLQMK5CtiqR3s/trDv3Rspi4hf6InHjRsjjr9gvWIL/uhAcpFbgAq+GvCWhdQCgrv9FV6DW9HnjNbqWhdojw2omLGOHz/BDmjfCXf/NqyTaMwuCbLOBczsWbNmWVVppHXt1oV6dOshBsioUaOE2I2d3eV5wyQGTQkW1+Uy0SikDzyGA9LpEw2CFDKbpYhcuXLQYta3wHcIpEooIkH5l1CgUicxjI8RwSONDe2QfCABgQB45fxsFdiqBAgfpD59Yy1rIbzrQupPzb5J2E937Ohhw18LG6BhCQeQPcMuNtOnz+BPxpQx7mneJyguWPyLD6hUHReWp5iwoc+FkADn0RIlSohaVX0aEuDWAPcGEHRx/foNMNyLsBydxM6qqAOErWyw/iUXuQWo8BkIfA7CFTJ76krR0VlZ6VvjLA+uYSBgPY7tBGay2qtkzqPPnywHIFVBFyUnJ3NrLl68yP50TRxONgkFKtQPqx6se5IAWCC1DVafMYGUt5p1pNKhWJaXv1h2wvcP32xSSbXCyXTouOCVr5Kq1FbTrY7jAyqUkRv5ZXlIggBqSXhuLKnN7VVVL8gLfRVI1QU6UtKLjIn85xaggp9GB0ZpV+j4CV6WdYydqZBf1T2Yy4MpS5cuE7Oo+Zqjc7j2h4SE8Af8CoiOwJJxybIlPHPE+uA4KqfTPYMDNXlZB7CSMzVahZcIUng7/jCj9HOyam1CdVSyDixhRo0KtgMLSBGB7LwZwT6AVgT/P3igZ8iQ0eYydEHQ9ah+UGoG7JgICgoyfKnUaygbzJKd2TFazWM+3scKe0icjowCMj/4islABWFcwzK0W/du/JHAyzKr8QsL5tgxY6kSb2syl0O/4Gsn0NFZOagalSTiwC1AlYh22BSB5QVfHcyZIydlfCEj3WA9RMzpGK34tuHSf+sE36GC1/Sly5coOvqQoQNyJxewt61SpYr8VSnir9IedXn8wd+vevVq3Mb/Majtort37rrUzFezv0pF3ypKOXK+yqqSKwzGZ+wkGpcqSmAmuElgifnDjZ/oyNEjht+Us2qwNMWm68L89+ivR/T5F2dZ6X7O0L85K5uYax4JVIl5EF1Gc0BzwHs5oIHKe/tWP5nmgNdwQAOV13SlfhDNAe/lgAYq7+1b/WSaA17DAQ1UXtOV+kE0B7yXAxqovLdv9ZNpDngNBzRQeU1X6gfRHPBeDmig8t6+1U+mOeA1HNBA5TVdqR9Ec8B7OaCBynv7Vj+Z5oDXcEADldd0pX4QzQHv5YAGKu/tW/1kmgNewwENVF7TlfpBNAe8lwMaqLy3b/WTaQ54DQc0UHlNV+oH0RzwXg5ooPLevtVPpjngNRz4VwAVwh45+5Kj1/SGfhCnHHhS4yBz5ix07+6dZP9qpdXDIhz83bt3RfASq+vuSHucz5fY9rsNqBYvWsTBCl932i5E9XD0AXgwb/KkiZQ/fwGOdJxOfJsZIZFWcrjp1RwswhHhO+lpUqd6LIPKURt0evJxILHjIKkt6NSpI/n7N6KXX8pifEscn9rF9/oHDR7k9GufiImHAJ1p4gIdNGrcmG7dumXZJAQgqV61ugjTpX5uGZ/dxngPHhlshLmyrMCU2KVzZ45x2Vak3r59i+rUjQ0kqmbLnz8/de3SleMNlhVxDOUnhfHddERkHsafW0awB1fJlXu6WpejfG4DKvNH4K0asInjqAUHB9tdwidgw8LWCybaXeSEefPn0xxTXLOiRYsSwsZnzpxZFLl37x5NnTqV1nO8NE3/Tg4kZhwk9Ukhtc2eNZPKlfNzWJU5bh8yolyXrp2oXZt2NoFTca0mh3A3B0lAOigqKsryW+mxV2P/uxoJ+uWXXxYxByTwIEhEyVKl1KrEsSsBVCZPmcrBfJfblTUnuHpPc7mEnrsdqIDShw4dsWzXxo1hlmHV9+zeTZkyZRJlEDorLGyDCJnVtGkT44PyPXv1pgMH9os82bNnp63h4cY19WaOouiqefSxZ3IgoeMgOZ5CBq1FXZCgEMLqyJEjlCJlCipevDiV9/OjcePH0YYNG21up8bCs7nAJ/EBVdo0qen06TMi3Pt3338rwmuVL1+esmTJIqpCO1q2amUEAjXXL8/XrlnDK5D88lREbHYGVAgcgdDzZ86cpVS8CvFv6E+5c+cy7omoOd98c9Goz+rA1XtalU1ImtuBylE0VkeNRMBIhDkCIRpGjZq1DP1Uz549CWImSI1tL0P//PbbHereo7uI9jFjxgwqXKgQh4//jSpUrCDK6H//Hg4kZhwk9emgYjjAwASJBBFc2rZtR+fOn7OpFqoFq1iQMvowpBiAWKFCBalIkSKirDOgQlQXR8EfxowZTfXq1hN1rFu/nhCmyxE1qF+f3ueoMgA1tAHLSEcSVSirT2bP+ciY6NU61SCrGzdupJEcD9MRJeSejupwNd3jgGrOnNlUzrecaD/Wytu2bTOeRV1OokN8fHyELkqG2IK+C4EPQVg2bN/+qTguVryEAXYiQf/zeA4kZhwk9aGCAoMIUjtoIgfTXBW6yuUqEQ15w8ZNHJptloiQAx2tDOTpDKic3QCRdxCdGOQs8jCiNkVx/EqAEwCterXqIpalI6Byds+SHP1p4cKFIstXX30lIpxb5U/Oe1rVb07zOKCSa3YAUclSpY2wSD169GAFYBeb9g8eMoR27txJ4Vu2EGKqhYdvoaDhI0QeP7/yrGsIETNMMRbZNf27OJCYcZDUJ4zgsQSrG17wUqXLJGlySw6g8vHx5Yjjc8RjHTt2jDrFrSbMz4mo5Ji0EbOyHI97gBaC7iYGqKDrXb5smbjFeZYmmzW3DsuenPc0P4/VuduBCoAD6wMQ+A7HN/ueLRlhjPob42YKc6NkGO9bt29TRQ5yCILlZ1fETiGSIwQ1RHQQ9AlLli6lwGGB1KxZUwFKEbsiOC7Zz7zebkhp0z5DV65coXosFktCcMlOnTpQtmxZycfXz1KMl3n175PjQGLGQVJbK/VMkCQCOSBoxw4dqBQro9NyDLsffviBDh85TJMmTXEJwJIKVJBsPvxwqhHMdNT7o+z0YnjesmXLijDsOB763lBeRewgVyIlI78VDeAo5+3iopwvY8CaygYqMyX3Pc31W527Haisboo0mD/bd+xgtz6Xa33op96tUUMUD+VQ2dA3ISz2jJkzaNh774n0NWvWCsUmLC47d2wXs6G4EPcPM0pDf3+hb+jTuxcHhaxuhNwGgLblDkHEXU2ex4HEjIOkPoW854UvL1C+vHkNtwS13ps3b1LLlq3o+o3rarLdcUKBqnjxYjRs2DBKnSo1rw5etbn38eMcTbzTP9HE5c0w7iE9ISqyukxLLFBBX7Z39x6xhMT70dC/oV205OS+p3yW+H7dClSw3F2+fJmuXb9GT6dMRXnz5jEsGWiYOZw7JKXoA9GizfBXacBSUS027X4wfrxIGzRoIOukHoolHRIiI6Oob7++4hoYOKB/PyECYwaEEvTUyRihc8iTJ4/Ig3+QtuCHtZRnCyhMNXkeB5IyDhL7NJD4Dx08aFP8l19+YavffnoqRQqqVrWq4S5z9uxZatW6tU1e80lCgapJk8Y0PGi4uRraujWcpTv7dGQcNXIkNeR3BKBSp05dXq18L8onFqhWLF9uGADWrltHY8eOtWtPct/T7gYOEtwGVBBdz3CHPnjwwObWWHqNHTvacCXozHonmEhBL76Yifbu2S2OMUNgMEBJiSVcTEwMtQsIoNKlS9MC9qMCHeSB1Z11VyrBr8MsPcF5DibmmTND7Kw4all97BkcSI5xkNAnUe+JsnB8xEQpd0QAyGDMwS+oOetuzBZBcSHuX0KBqkSJ4gRlfsqnn6YXXnjBxrcKFu627QJs1BT58uWl9evWi/doE6tRghm0JCUGqLp360bd+A/kyFKf3PeU7XXl121A5ezmzsyu0hnt+vXrdO7cOapSpYpQqFd5pwrruu7YSFhqB0ndkyo9/fjjjxTKlpvnnnueqlZ9h9KnT0/ffvstfTBhAp0/f95ZE/W1J8yBxI6DpDRb3hN1NGPvcvMY6du3H3VoHyBuARXEokWLxbHVv4QClbkOWPw+Zis2lPsgqeaQ+bZ/+inrWbMJdUj5ChUMoxOuJxSoGrF6RDpeP3z4gL3Z6wmdnLyX/E3Oe8o6Xf19IkClWhZUfyg0+sTxY2J9DikoZcqU4jlUU3Hr1m1oMC8BQdJjV/X9QLnDhw/R9BkzhR5MFWdFIf4HURnLyF28HtfkmRxIzDhI6pOcPHFCjDmMDytLsbQk4z7bt29n5XWsrtTqvkkFKtSZMWNGity7V0hN9+//QWXK+ohbqasK6NOgw1KpWdOm4h3Cc0gXi0WLlrCk9JOaTRxXrlyJd3RME/fAu9O8RQvL7TPJeU+7RriQ8ESACrMETMGgS6zDatCggdHUg9HRNlsQzNdHs1Nb/TgrnvQ6b8XKzTZtWnOnhLLb/0pDRK5dqw6NHx+7zt7DHX782HEKCGgnZim1442b6wOP4UBixoG58dBbyskO1x49emSMDXNenENHhaUddJelWMVgpjffLMLOyMtFcvTBaOrRo6c5i3GeHECFyqQUg2PpDwhwmT5tOpJcpj59+/B2nX02+WHRhBoFDq4ANahh4AZhRcl1T6u6XUl7IkBVs2ZNmvDBB6J9e9lq0a9fP6Ot69aupddfj93MDObVrlNHbM6UGaRzJ85r1a5tc03mkb9yO8SFC+epabPmIlmdpfwb+ce7RUDWpX8fLweSYxyYpWlYjX18Y6USq6fZwntPc+bMKS4VL/G2HajVq1ePxoweLa6vXLWSXRUmW1Uj0pILqKIi97Jk9YKoE+AJEIU+6yPTXle1IdDpSsKEDOrWvbvN5ubChQsT+AMgx3vWf0B/2rs3UuS1+pcc97Sq19U0twAVPGSdWdRUD3PzWl8dDGZpSlXmQYdVgwHPGc2ZPUtsLlXNu08/nYqOsj8MOqh9h/Z08uQpZ1Xoa0+IA8kxDrAVC1txJMUnRatqhYULF9HMkJmyqPhVVQyBgcNp67Zwm+vqiStA9Qxbp1M+nZI/63JPLWocq/5K8bXdKMQH8emo8uTJTWvZtSdVqlSiWFDQCArfukUcJ/ZffPdMbL2ynFuAasrkyQIgdrBv0+Ytm1kpeYH+ZrG7dJnSwjkza9as4v6Y4SpWqmgHatLZD5mgsJzNs0euXDloMa+z4TMCMgOcSDT9wyc0enTrIWaMUaNGCdEX+6XKl/cTaSXeLmk3a5qq0KdPkANJHQcJBSp1EoOUMSJ4JG3h8Qvq1asXdY7zZQJolPOzVWBDUq9WrarBrQ7tO9Irr2QT53PmzqGbv9wUx1evXmdrdawLTutWrYWuFO4Oq1evYcv2KeFigO1fLVo0p1atWhr+VFi2YfnmCjkDDfhK7Y6IEJZ01AUXoV0RuyyrhU4rYlesFd4yg5Lo7J5KtkQfug2oqlWr5rRRGAi9evex3BiJ2RS6KPm5CnNFFy9epEaNm8QLMthAKrcTmOsIZV+qCWz90+S5HEjqOEgoUIETsOrBuicJ4xSkjkVMdthTp5Lq76emm49V0z+AajB/2yo+wi4NOCubXX0clXMGGq+/9hqtYx8pVwhbcnx8fV3JGq8U51IlTjK5BajQ2VA0StHSfH+4CPRj50xnn5CAHgtgpX5MDIMGnuTtAtqzRPTIXK3l+Qu8vg8JCeHd7AXE7ATmL1m2hLcdxPpiWRbSiR7DgaSMg4TqqORDw9Vl1Khgu/EL030gb5S3kjJq1HiXJk6YKKtw+AuXmWoMOiB4o38w/gPCCkMFQlkY4x17WUePGe1weSjzqr/7WPrCysPKKAD1Sdj6MDW7w2N80823XOwHAhxmirvg7J7xlXXluluASt4Y6J3vtXxsZXtZfO3w8y/OMdDEJIjp8CepXKkSWwcvUXT0IRt/EXkf/ev9HHgS4wBLsEqsmoBMdezYUacTa1J6AJJ/Uf4kTA5W5L+SPatYJn7B78qFC1/q8R7HWLcCVVI6T5fVHNAc0ByQHNBAJTmhfzUHNAc8lgMaqDy2a3TDNAc0ByQHNFBJTuhfzQHNAY/lgAYqj+0a3TDNAc0ByQENVJIT+ldzQHPAYzmggcpju0Y3THNAc0ByQAOV5IT+1RzQHPBYDmig8tiu0Q3THNAckBzQQCU5oX81BzQHPJYDGqg8tmt0wzQHNAckBzRQSU7oX80BzQGP5YAGKo/tGt0wzQHNAckBDVSSE/pXc0BzwGM5oIHKY7tGN0xzQHNAckADleSE/tUc0BzwWA5ooPLYrtENM3MA4a9c/bKruWxSzjNnzkL37t6hP+7fT0o1LpVNkyYNPfPMM3Tr1i2X8idHJvA1K0cYv/HDDwniL4JTIELO9RvXk6MZTutwC1C9x4EZa9eq7fTG8uL161eNUFZIQyj4afHELHvw4D5VdfBNdnwtMU3qVI9lUMln0L/u4wBAYvKkiZQ/fwGOeJ2OECTz6tWrtHLVKg6IsNptN+7UqSP5+zeil1/KYgRYwKeBL126RIP4O+fOPqPdgqMst2nbVnzVFg1s1LixU+BBLEHE6Ste/C3+9HYa8Uz4jPC1a9dp1PsjbcJcmR8YIDNu7BhCxJoXX3xRXP7ll19o37599H5caC9zGZwDEIcPD6Ia775r3BPpCFyxJXwrxxOYaPd10Tx5ctPQIUOpQIECIuy8/Hwy+PLHH/dp61YuN9G+HOpNKrkFqOZ+9BH5+DiOn6Y2+ubNm1SZw7ZLcuXb02CMOZItoi9P+/BDypw5s6gK33ueOnUqrQ9z7fvQ8v7613M4gE8Bh4WtF0FBrVo1j4NnznES386qTHxpePFnz5opoig5yjuaAcA8rlCuS9dO1K5NO5sAuqijZq1aDDrXLKvDM27evNEGLNSMGOtDhg4V305X03GMSXnNJ6uNOJjm66c5vkBbBkwzARgjdkYI4Ddfk+cAu6rVqtsEUGncqBGNGDFCZrH8ReivatWrcaj53y2vJzbRLUDVgCMZV63qOApNwYIFKEuWLKLNYQwkKvKrQPX111/T9es37J7t3r27NuG0s2fPTlvDwy0/kC+jKdtVohM8ngN7du+mTJkyiXZiLISFbeCwabmoadMmRl/37NXbMpJRYh9OBq1FeYDE/v0H6MiRI5QiZQqWeIpTeT8/Gjd+HG3YsNHmFocOHmJA/Sfwp3rRGVCpASgQq3Lq1Cm8lPqRmjRuZEQQRzvKsMRkjkKjtvX27d8oNJSjhPMX3gPaBhjgvnHjRhrJoeJUkvEukYaQdVu3baUdO3ZQHQ7oi/dPBjDdujWcAoOGG0UBVMOHD6dr3M6jzJOLLF0++usRR8ipRm+8UdiQPM+cOUOt27QxyiXHgVuAKr6Gbdq4iXLnziWyISIHInNIUoHqvWHD6NNPP5WXHP7OnzefynDMwN9+u0Pde3QX9c2YMYMKFypE6MAKFSs4LKsveCYHEDgU4a5AN27c4GCztQz9Sc+ePalL587iWnK+FFhaHmBgwpIGS6+2bdvRufPnxH3kP0gxjx79JU+N35hTp0S5P//8U4BYoUIFqQgHbAA5AqqXXnqJJZudIg8AAxFfVB0cwnZ14IhOoNmzZ9P8BQvEMf5Bgjt+7IgAh//970+OGl6HfmAdEyhPnty0MQ5IrQKXqqBqDvVet249GstRb0BqaC+cO1OrINrTrl07RXusVjwonxR67ECldg7CZtXlGH4qJQaoZJh3dCQ6FASRevv2WJArVryEzQBQ76ePPZMDc+bMpnK+saGahnGIqm3bthkNVSNt46WAmiE5FN1BgUFCWsONJk6cRKtCVxn3jO9gX1QkbeAJOCRkltDtuBIpWR3rVpIPgOEkBwgFcKphttCWRv7+FBwcLJq1Z+9e6t+/v9HEyZMnUXVetklCuPY9e/bKU5KgCn1fCdYJqwQAPHXyhLgnAPDtkqXUy06PP1kdSgULFhJ56tStS999953T/Am5+NiBCuv7+nHghACgCASqktp5rkpU4Vu2UI4cOSg8fAsFDY9dQ/v5lWddQ4gQ3836LPV++tgzORAVFUUZM2QQ/VeyVGlDsdujRw/q2qWLTaMHDxliqcOxyeTCCaQbTKSQikqVLpOkyc0VoOrbpy916NBetGzy5Cm0YmWsBKk2FQCYIUNGu3Gs6oEHDhxAu3bvEcXeeOMNWrVypVoF7YzYyYFOhxhpRw4fEss7gLwfRw1XQ8rDeLF7V4TIixVK+QrljXLxHWAyyf7KKyJbOdR75258RVy+/tiBSoqdQOtSpcvaidEqUGHZlirV0+JhfvrpJzp/4QKNHz/ezoISOCyQmjVrKjozgpkMkdW/YUPRGVeuXKF6rDOThOCSnTp1oGzZsnIUWD+7+8t8+vfJckCGc0eU4IoVK4rG4CXaxS8dJAy8XFiqgaCrWbJ0qThOyj85Nr/66ivWzQRRxw4dqFSpUjyO0opl1eEjh2nSpCkuAVhCgWrSpMlsybQFGDyLBCocqyuDNWs+oQJsCQVB6sH7BJLSpsqfU7wsDWgfC4jIM3fuXPJhnRcIUiOkR0ljeNlXj5d/oAgO/T5o8GB5yeFvhgzpqVu37tSyRUuR5/btW6xuqeQwf2IuPFagQljqyZNimXLo0CHq1r27XZtVoLK7yAnoEJhA1679Jyw1xNWdO7aL2VAtg5mxIYvI0Df06d1LhMWW5l/MJm3btRORl9Uy+tgzOCCXJ9BPvVujhmhUaGio0DtCnzNj5gwaxm4woDVr1goFtzhJwj95zwtfXqB8efMaymG1SlipW7ZsFa/vkCtApY71DRs2sCvC++qthE5ILv1woRYru+GaAZLqDlUfpOruWrVuwzq+5SKvebLOmDEjLVm8mHVZecR16LEuXrpMr+XLZ0Qmv3XrV6pdp46NtCUyx/2byKuhPHnzUBaePKRbBC4BpHr17pPs79VjBSqYUgsUKCgeFYw8e/ZM3GP/8yM7DzMpGPzrzV855PVLbILNTylTphQZ0TmN2Cqi+rIArAZwmHjoKzADQgl66mSM0DnIDkFhSFvwv1m6bJkAsH/urI88hQOQlKIPRIvmwG+pAUvHtdjE/wFL06BBgwayTuqhWNrjPDIyivr264vDRBNM9ocOHrQpDxP9/v376akUKaha1aqGJe3s2bPUqnVrm7zmE1eA6mV2stzJ1jYQzPk+vr421ajKdFzo2q0bHT58WOQBf8AnqUfCkhV1QdrEEgx6PQm8ZhcgVPD006lo7kdzhMQoKlT+QaJsw1Y7Z3o/uTRXignDlT9bBn/++Sc1OVmOHxtQAcUjWekHRjoTDTOwXgL6JgwGlSBeLl26nPLkzi2SzbOEzIvON0tPUBrCxDxzZoidFUeW07+ew4EXX8xEe/fsFg3CSwNQwBIIZvOYmBhqFxBApUuXpgXsRwU6yADTnXVXSSH1nqjn8uUrAiClFQ5AhmUVfkHNm7dwOpZcASrUE8qOq4ULF8ahcPCcPGUSh3T/lV0T6lNDBmiVVFcMuUzFqqEkL0+lIhv+g1h2AcAkUKnLZ9SXPXt2WsX3hQ4QhLy//36f/b+eNYQBSFRNmjazsciLzHH/pkyeLCSydOnSCReS1KlTiyt41/qwtfLAgf1q9iQfPzagknoktBhrcazJE0oAsb179ghmqiIv6pG6J1V6gqUklNfgzz33PPt1vUPp06cnWBo/YLH1/PnzCb29zv8YOXCaAQkE36Jz585RFXYKxgtV5Z0qPNHdsZGwNm3aRMEjRya5dfKeqKgZe5ebx4gq4WDpuWjRYof3dBWoMCmHrV9vLLnMFeL5s2XLJpJVNwepi8J7EBQ0gnW3Y0UeFczk81xlZ1NIpJK2s8uPrFPVUWFVMm7saKrNrg4ggHV9BkxXqGu3LtSjW+xkgX7yLedn5/flSj2O8jw2oJKiKhhbsVIlHmy3HbXJabrqg1Wd3f/hO7J8+TIqWqSoKAdEP8xWjekzZtKXX35JqkOdrBhtwPJBWkpkuv71HA6cOH5MLE/Qn3LJr7oMtGbVwWDuQxCUwx/xX1Lp5IkTlpOgrFdaknG+fft2G6djmUf+ugpUyI/VQkjIbCpUsKABWFiuwak0T57cAqSR761ixfAjaCPrtOSk/PDhAy6Xho4ePUqd4yyiz6V/jqLZJwykLlUhvUGKA126fNlwKhUJcf+k/gunAK3vr36vXnZ4PIl1x+/yOwky+305LOTihccCVL6+5egj9osBQZRv3KSJi82zz6aCUns27Z48eYpasXKzTZvWbMEIpRUr2Ds3ziGvdq06xkwDX5Pjx45TQEA7oXS3coSzv5tOeVIcOBgdbbMVxfxSjWbFc/04a66j3QeQECTI4TkePXpkjA2r54KOCks7GF9K8dLSTG++WcRQUEcfjKYePXqasxjnCQEqoxAfSEumdBnYsnkz5cyZU7hMYIknaeHCj3lfbEl5Kq5XqlzJUH77+PgKHRQyREXt4+VYH5EX78qQIbGWPEdGCCjKa8QZMCCthW/dYtzH2YEK5HsjI6lfv37Osifo2mMBKhVcHA0qV1stRV7kL12mjFPxUm4xuHDhvLHxWdWV+Tfyt1HIu9oGnc/9HFi3dq2xhw0SMCxQ0uKFu6uzvmoNU1tmlqZhLfTxdbwHVYIC6ihe4m07UKvH/n9j4jb6xqe+SCxQqe3Pnj07beONviBpVJDXB7CDZzu2WkuCf6K6/xCGB7ncU5epnTt1ol69eoli5u1rsi7VYXQq759dxoYnV0jlzx5W0fQfMMCVYi7lcTtQYYbC7AglulT8OWsZlHKY0axIWgRxzcpKYi4j9zQdP36cOnIHgWDtOMr+MJhppURmLqfPnzwH1EFvlqby5ctL69etF2MKOpwaNWtaNhhbcLAVR1J8UrS6nFy4cBHNDJkpi4pfdcINDBzOe+TCba6rJ0kFKkiDn6xeZVjJe/XuLSyQ8h5YLkZF7hM8gE6oTFlfocPDdYxxGB+g6AbIq/sEi71VjI1SS0Q1quuHSIj7Bz2wdDlQdXXwY3Nm0VOXo44cWNX7JOTY7UClet+aXf2tGgpLBTagYsY6fvyEcMPHRtQ2rJNozC4JADzQgo8/plmzZllVYaRJBR86a9SoUUIEHjNmDJVnr1mklWDRWS4TjUL6wGM4IJ0+0SAormfzlxJy5cpBixctYb3O86KdqrRgbnhCgUqdxDA+RgSPpC1bNotqIYVAGgEB8Mr5VTCAAWmQ1KtVq4pDQR3ad6RXXolVgs+ZO4cteTdF+tWr19lKGet6gQQo0+fNm0dLlizhvXK76Y/f77EOtyJbrvsI6xzyWLkXIF2VOk+fPs3Lu1gXjRAGWKmzRTr8BSVhW86xo4cFmCENm64Hsq4PG57xfanp02fwJ2PKiOxmYIeeGTpDADScQc99cY4e4T1i6XMoLyelzgy8g/4YxqzkIrcDVVTkXvFxLTS4MX+X5ysGIWckLRXO8pjFYEd50SlRvFZ+/vn0dlmwdQdbeDR5LgcgVUEXJScnc0svXrzI/nRNHE42CQUq1N+BNwHDuicJLx1IbQMmu3VsqVNJ9fNS083H5o2+qnLbnBfnWK62Y70qDENmgmS5mvWy0onZfB1l4W9o/sSMVVux2kmVKpVNFeY9gtIgZpPJ4mQcLzvXrFljcSXxSW4Fqtdfe43WrYv1IDd3kKMmq7oHcx6g+dKly4RXsvmao3Ps6g4JCaFChQqIWQRLxiXLltC8ubE+OI7K6XTP4EBNXtYBrKSfDloF8PiMv7XULqC90+0sCdVRySeGq8uoUcF2Ly6sa4HsSBnBko+ZVLWE+Zp6DikDXwyR5Oh7VHjGy2yVg8+YMws5JDJ4oGM/oEp431q0bOlQqsEukSDeJiR9qcxlg1mahMFAJVj1ypevwAaHZ9Rk4xj3HM1bcKC8T25yK1AltrHQa73Nu7pz5shJGV/ISDdYDxFzOkYrvhPLUC8oh+V/ZXZruXT5EkVHH7JZdrnr8QAilXgZBpnq2LGjbh1/kKzeeKMwA0dGOn7iODu2fuYUhM3PDB/D6vxdqP/9738MpLtc3hD8avZXqehbRSlHzlfpCvtNffbZGTsJzHwvOFUXLlyINyC/yp9NTktff/M1nTnzuVP9lbmOhJ57JFAl9CF0fs0BzQHv5oAGKu/uX/10mgNewQENVF7RjfohNAe8mwMaqLy7f/XTaQ54BQc0UHlFN+qH0Bzwbg5ooPLu/tVPpzngFRzQQOUV3agfQnPAuzmggcq7+1c/neaAV3BAA5VXdKN+CM0B7+aABirv7l/9dJoDXsEBDVRe0Y36ITQHvJsDGqi8u3/102kOeAUHNFB5RTfqh9Ac8G4OaKDy7v7VT6c54BUc0EDlFd2oH0JzwLs5oIHKu/tXP53mgFdwQAOVV3Tjf+MhEPBARi5+nE+MoAb37t5xGuJcbQ++RvrCCy+ImJNquivHadKk4Y/RPUO3bt1yJbuRB987z8hfs71+47qR9jgOEEr+p59+dnu/aKB6HL2p75FoDgAkJk+aSPnzFxAx7/A5aoTNWslBNFfzd+/dRZ06dSR//0b08ktZjEAI+Dwwvtc/aPAgm699IihE82bNqFmzpiKgA85ByI9PX6/lz3EjaIIjkMUXbadPm07Fi79lfP8ckZiuXbtOo94fSadOxdg9Zp48uTmgwlCOUlNAgKL8pjvu+ccf92krh9mawJ8ORoQaZ4SQXCOGDzdCk0VGRRG+Ce+M8Nll3BtgjPvinrdv3+Ivr0ZTYNBwZ0UTfU0DVaJZpwu6mwP4FHBY2HoRFNTqXvPmz6c5HJkmOQlS2+xZM6kchyR3ROYYelMmT+YINNUcZRfpv/zyiwjrZQ4F5+ib6bIygMCQoUNp586dMkn8Nm7UiEaMGGGTZj5BENNq/HligKWZEM9gRHAwvVU0NsK4vH7mzFlqzcF8HdH7HM2pQYMGji6LAMPNW7SMFyAdVuDgggYqB4zRyU+eA3t276ZMmTKJhiCEWljYBg6XlYuaNm1iRIXp2as3HTiwP9kaK4PWokKABMJJHTlyhFKkTMEST3Eq7+dH48aPE+HW5U2nTplKVau+I/Kf4nBvn505w4EZLomQVYjmLKM1HzlylLp07SKLiV81AAViFE6dOoWXbz9SE44eIwEB7VBj86EggGo4S0LXuMxRbt9FlvQe/fVIfDcd316XUt0ZbkvrNm1s7tmjRw/qGhf63eYCnzgDqvz589PauOgyaNOq0FUsuW0TfYJwWVh6giDNBXLgiOQkDVTJyU1dV7JxAIFDEe4KhECZNWrWMpZOPXv2pC6dO4trVi+iuJCIfwinfoCBCcsZSD5t27ajc+fP2dSEEGzmWJBoyyuvvEJTGGRkKHZZqFDBQhTKL7RcIhVjsJME/U5EnKSE0Fa+5coZz4g8CNuF8F2g2bNn0/wFC8Qx/qEdaVKnstSbIfLSrl07BVgBUNR7oiyiybzLcfdACO4KqXTypEni3BlQqUFVQ2aF0McfLxRl8A96uWieMBC6yxwP0MiUhAO3ABUGEiKt7tm9RwQNLVSoEMcl+4omMTOeTfcs9eeY9AhWePHSRQ4/FGSnOMSAgX4As1cW7sx0vIa/zoP1/LnztHnLFjp79ozdIyO8dc6cOcWsggGDgIpmatiwAUfOLSKSP17w8WNXPJrbo88dc2DOnNlUzrecyDCMQ1Rt27bNyLybo6xkzpxZnONF9PHxsXxhjQIuHgTxWIS0Bpo4cZKQGFws6jRbOI9ZhLUCNWna1IjRp4bY2rhxI43kZZVKAKOTHJEGIGcOs6Xmszr+ZHUoFWSQBNWpW1cE8pX5AocFUrFiRTm01Vh+l85yqK0MHFk5Slx2BlSS7+A5Qt6bdW6jRo6khg0binrMMQHlvRP76xagUiPcqg377bc7jLhPU9q0/8QFM3cAgiqGrQ9Ti9kdL126lD6cNs0mvXu3rtStW3eRhnBDHTt2srleunRpWsA6DdCt27fpnXeqJvs62uaG+iRJHIjiFwcx5/BSlCxV2ugrq2XL4CFD7HQ4ibk5pBtIOQjGWap0GbsXMTF1osymjZsod+5congDniwvXbosjtUo4o5CoCM0O2L2WUlGohIH/wDs2VnKA5XjyOB379x1kJNcBqpjR48KyQlSYzm/2ElErbSRvz8Fs94LhACt8Snl1bLxHbsdqK5cuULZsmUVIqFsDNbiQHFYO0A1atQ0pBuIyqt5NgABxL797lv64cYPhFhiiPWH2QVkFdJ9xfIVVKTIm+L6pEmTRVh4nEBCw2wAgESHN2nSJN6IzaIS/e+JcUBOdphUKlasKNoBC+CuiJ1iDOBlQb+CoFdawpNXUunQwUMiuOZXX30ldCwdO3SgUqVK8bhJK1wNDh85zKuCKQkGMPksAMCSXJ8kFajU8Sqv41cCFY6LFS8R770zZEgvJuyWrNAGwRpXoWIlcezon6sSVUKACrq9Xr17ObplgtPdClQy9DpMoNtYwQaCablW7doMVOm5E2KVoOpsgsEYFBRIH374oY24irIvvphJDFQoJ61QHcAHQMIvAKmhf0Mxe6mhvdV7oU5NnsmBGFZKY1KCfurdGjVEI0M5fHlhViNAnzNj5gwa9t57In3NmrVCwZ3UJ5H3vPDlBcqXN6+hkFbrvXnzJrVs2cqYWNVrVsfvcRtbNG8uLkHRHtC+vZFNXfpt2LCBXRHeN67hQF364RzvDd4fM02cMIHy5M1DWfjdgcpFEkCqV+8+Iqq0TLP6dRWo4lv6jWRpyp+lKhCWlK1aO7YeWrXDWZpbgWoHi9JDWCwHyUGAcM99+vYRaSeOHxODYeHCRTQzZKZIi+/fx6xQxCwHeqtYMbvsRdncuoxnVwxyDCoMbujMQMeOHaNOcUpYu4I6wWM4AEkp+kC0aI+c7GrVqkUfjB8v0gYNGsg6qYfsRhAiziMjo6hvv75Jaj8mt0MHD9rUAZeC/fv301MpUlC1qlWNFYCrLyGiH69auVKMRUhT71StwhLOHeMeWCXs3LFDnMOFwMfX17iGA1WZjvOu3brR4cOHcWhDcpmsJt6+/Rv5s2Xw559/UpMtj10FqiWLFwvLJyqZMWM6LVq8xKgPVsZDBw8YK6er164R+iy5yK1Apc4SEpRU06UUJa3Ws8+lf46a8hINSnf4mqRJm0Y8c86cuYTuAidly5a1VKJa6THQcVWrVRXWnORinq7HPRyA5Lx3z25ROZZhmJmxBMLSPSYmhtoFBJCqczzIANOdTe5JIfWeqOcyhzdvwIphqTBWpXVcb968hZ1FEOmSsGLYtnW7sTwNDBxOW7eFy8vGbyg7rgLQQHDwnDxlEt385Vd2TahvKKZlZkeuGPDjwnuSLl064c4BCxwIzrF92HJ4gK1xzshVoFLVMlixLF++nHbsjGBDwas0ZPBgG2kO6p0aNWs6u22CrrkVqOBnAesJyAqUpE5ABS/kHTNmNNWtU1fMRDh3RBUqlreZodR8cpmANDC1KXsOf/nll2oWfezBHDjNgATCgD937hxVqVJFKNSrvBMrlagS1qZNmyiYLU5JJXlP1NOMl2vnz5+3qVKVcLD0XLRosc11eQKg2BoeLhTzSFu7dh2NHTdWXrb5hTUwjBXPElxsLvIJnj9btmwiuSZLKNdYUomPunbrQj26xQI3PNN92XnVygou63EVqJAfy8wacUtxWV7+wliWngUMrGacWQ9l/oT8uhWoVq5aycrHyaI9EqiwnWDs2NhOswIqmE6xFQEEgMGM+u2337Gl7pZI82EpCjovUMVKlexcG8QF/qc60qGeRuxA9803F+Vl/evhHJASOKQC6TCJSQ+TH6h16zY0mJeAoLlz59JH/JdUOnnihLgXxovZ9wh1+/mVN5ab27dvp6FxOjL1vvBs38De9JBwQK4olSF9hYTMpkIFCxqABbXFhg0buZ7cAqRRl5WqA+lWpPpKmX2wzPkTAlQoC+ten759KcPzzwtQAhjCIXfgwMHs7BkrNe7atZsGxvWP+X6JOfc4oJKAhjV9fXbVNysP582dx0u+MuJZHQEVHPCkXkoyBYrFKu9UM8zcMl3/eiYHDvK+MSxlJMExUXpqI200K57h9Q0aPiKYtmzZLI7VfwANCXJIf/TokZ2zppofOios8eDsWYrdWcwEH7yVK5aL5OiD0dSjR6zuU82nTpCJcUaVlkzpOLpl82bhH2i2GKr3tDpWQXVvZCT1Y99FR5RQoFLrgTsHrPOgEiWK0+I4KRNWWFhjk4s8CqgyZsxIUcxUkCPm7uCZLGvWrCKPFVDBoxmDBeInOntL+BbD6nL48BFWSHYVZfU/z+bAurVrjY2ykHBq16ljM2mp48CRNUwFDTwtrIU+vj4OH1yCAjLAodHsgV6vXj0aM3q0KK+uFmSFkOwg8YNgBGjITstSxyXzJORXtZZLo4Kr5dW27tmzh/oPGOCwaFKASq106ZIl7Egaa+Bq07ZtvNZGtWx8xx4FVKq1B/5X9eJmTPkQUJ7PU0R8M1DhUxe7eX8YZmIMbuxxgoUGXr95cucW1TjyV5H30L+ewQH1RTNLU3AKXr9uvZiMnCltVbcUPFV8WzvU5aSVnysPUAAABApJREFUJXr58mVi/x7qMivHsevi3erVcUnolerUrZck6R3S4CerV/HXEQqKOnv17i0skOKE/8GNx5lFbyO7O8jlZ3wuOckBVD4+vvQR7yaAgOCsT2T7E/rrUUCFxsulH47HsTkaG1GxBq5SpTLvUZpEqVKlwiVBZqBSHT7VgQZJbVdEhCgLANMOn5KDnv0rHSXRSiiuZ/OetFy5cvDyYgn74T0vGu9MqZ1QoIKJ/Sg7dWK5iHEyIniksaTs1asXde4Uu9sBgFfOr4IBRAP69yds4QKh3LTp0+mhxRYuXIcrhfrNKCjT582bR0tYGoFe54/f77HutSL1Yf8nqYuFvqoyGxNUgvsG9HewJEbw2D73xTl6xPcuwZIgNghLkEJ7qvO+Prk8k3Vge9Ir2WOV9OmeTUf9+RlAyDd/wXyZjT3+I9hgdds4xwZs0OIli9nYcIEFgFxUt25d3hfZVoAUrjlaiuNaYsnjgGogi6h4aElgNHQLUteAQSK34KhA1Z19TLrxHwiKvUaNG8sqxC+AbtqHsWtmeDvjsxzmT27YFNAnT5wDkKqgi8IsbUUXL17kfm5it0STeRMKVCjXgTcBw7onCeMPpLYBW0PgUiMJXxTAlwVcIbMXPVwT4KLgiLBcbRfQzs5iDaCS+ixHZZGOyX5N3BcP1HzqlynUdPOxeXvShrAwysvOsI4IynR3fJPKrUC1bNkymsoe5qBjR48IZzDVi1gqL8NZjxQ0fITx7OPZlFurVm2bwYEBs5kVi/fvPzCsghV4awXQHp/+2MTLOwwmgE9VBiF1FpAVw2FQOqElh5OgrFf/uo8DNdkXB2Clmu8xFj777DN+gds71QElVEcln6JO7bo0alSwjfSOaw8fPuAlXyBFsOSj0ppPVhtLNDXd6hjvA94LSY6+R4VnvMwGBPiMWY1lWPXKl68gtvzIutTfn3/+mTcdjyY4WFuR9DK3uqamDRw4gHbxxwUkOXJPwHs3Y8ZMWrFyhcyarL9uAarkaCGWa7Du5Xg1B3uUH6eY0zHJUa2u41/KAUxGlStV4s+SXOIvSR4yll3ufByASCVehkGmOnbsqFvdWyBZvfFGYXZmzkjYVB8T85lTEJbPDe/2woUL8QbkV/kTxmnp62++Zh+mz53qr2TZxP5CkoPRIAd/reTXX3+lyL1R9OutXxNbnUvlPBaoXGq9zqQ5oDnwn+CABqr/RDfrh9Qc+HdzQAPVv7v/dOs1B/4THNBA9Z/oZv2QmgP/bg5ooPp3959uvebAf4IDGqj+E92sH1Jz4N/NAQaqvLEebf/u59Ct1xzQHPBiDmig8uLO1Y+mOeAtHNBA5S09qZ9Dc8CLOaCByos7Vz+a5oC3cEADlbf0pH4OzQEv5sD/AXwi6YFyXCZnAAAAAElFTkSuQmCC;" vertex="1" parent="1">
          <mxGeometry x="90" y="30" width="298" height="300" as="geometry" />
        </mxCell>
        <mxCell id="e7r8Hhf1rWDUr8E3D0WA-8" value="&lt;font style=&quot;font-size: 17px;&quot;&gt;x1 No Augmentation&lt;/font&gt;&lt;div&gt;&lt;font style=&quot;font-size: 17px;&quot;&gt;8.1.1&lt;/font&gt;&lt;/div&gt;" style="rounded=0;whiteSpace=wrap;html=1;" vertex="1" parent="1">
          <mxGeometry x="240" y="-30" width="160" height="60" as="geometry" />
        </mxCell>
        <mxCell id="e7r8Hhf1rWDUr8E3D0WA-9" value="&lt;font style=&quot;font-size: 17px;&quot;&gt;x2&lt;/font&gt;&lt;div&gt;&lt;font style=&quot;font-size: 17px;&quot;&gt;8.2.1&lt;/font&gt;&lt;/div&gt;" style="rounded=0;whiteSpace=wrap;html=1;" vertex="1" parent="1">
          <mxGeometry x="400" y="-30" width="160" height="60" as="geometry" />
        </mxCell>
        <mxCell id="e7r8Hhf1rWDUr8E3D0WA-10" value="&lt;font style=&quot;font-size: 17px;&quot;&gt;x4&lt;/font&gt;&lt;div&gt;&lt;font style=&quot;font-size: 17px;&quot;&gt;8.3.1&lt;/font&gt;&lt;/div&gt;" style="rounded=0;whiteSpace=wrap;html=1;" vertex="1" parent="1">
          <mxGeometry x="560" y="-30" width="160" height="60" as="geometry" />
        </mxCell>
      </root>
    </mxGraphModel>
  </diagram>
</mxfile>
